<svg width="708" height="475" viewBox="0 0 708 475" fill="none" xmlns="http://www.w3.org/2000/svg">
<g opacity="0.9">
<path d="M237.001 299.287C237.002 363.953 291.885 419.774 358.782 419.776C424.008 419.776 477.518 363.954 477.519 299.287H586.218C586.219 363.953 641.102 419.775 708 419.776V491C629.658 490.999 560.268 441.783 531.177 371.934C502.812 441.782 435.165 491 358.782 491C278.039 490.999 206.793 438.725 179.388 365.458C151.981 438.724 80.7428 491 0 491V419.776C66.8985 419.776 121.781 363.954 121.782 299.287H237.001Z" fill="#FA9500"/>
<path d="M237.001 299.287C237.002 363.953 291.885 419.774 358.782 419.776C424.008 419.776 477.518 363.954 477.519 299.287H586.218C586.219 363.953 641.102 419.775 708 419.776V491C629.658 490.999 560.268 441.783 531.177 371.934C502.812 441.782 435.165 491 358.782 491C278.039 490.999 206.793 438.725 179.388 365.458C151.981 438.724 80.7428 491 0 491V419.776C66.8985 419.776 121.781 363.954 121.782 299.287H237.001Z" fill="url(#paint0_linear_187_11341)"/>
<path d="M237.001 107.574C237.001 172.241 291.884 228.061 358.782 228.063C424.009 228.063 477.519 172.242 477.519 107.574H586.218C586.218 172.241 641.102 228.062 708 228.063V299.287C629.657 299.286 560.267 250.071 531.177 180.221C502.812 250.069 435.165 299.287 358.782 299.287C278.039 299.286 206.793 247.013 179.388 173.745C151.981 247.012 80.7434 299.287 0 299.287V228.063C66.8991 228.063 121.782 172.242 121.782 107.574H237.001Z" fill="#FA9500"/>
<path d="M237.001 107.574C237.001 172.241 291.884 228.061 358.782 228.063C424.009 228.063 477.519 172.242 477.519 107.574H586.218C586.218 172.241 641.102 228.062 708 228.063V299.287C629.657 299.286 560.267 250.071 531.177 180.221C502.812 250.069 435.165 299.287 358.782 299.287C278.039 299.286 206.793 247.013 179.388 173.745C151.981 247.012 80.7434 299.287 0 299.287V228.063C66.8991 228.063 121.782 172.242 121.782 107.574H237.001Z" fill="url(#paint1_linear_187_11341)"/>
<path d="M429.88 58.9187L355.102 133.837L280.324 58.9187L355.102 -16L429.88 58.9187Z" fill="#FA9500"/>
<path d="M429.88 58.9187L355.102 133.837L280.324 58.9187L355.102 -16L429.88 58.9187Z" fill="url(#paint2_linear_187_11341)"/>
</g>
<defs>
<linearGradient id="paint0_linear_187_11341" x1="-9.31369e-06" y1="491" x2="479.989" y2="-179.28" gradientUnits="userSpaceOnUse">
<stop stop-color="#FF1420"/>
<stop offset="1" stop-color="#F8C768"/>
</linearGradient>
<linearGradient id="paint1_linear_187_11341" x1="-9.31369e-06" y1="491" x2="479.989" y2="-179.28" gradientUnits="userSpaceOnUse">
<stop stop-color="#FF1420"/>
<stop offset="1" stop-color="#F8C768"/>
</linearGradient>
<linearGradient id="paint2_linear_187_11341" x1="-9.31369e-06" y1="491" x2="479.989" y2="-179.28" gradientUnits="userSpaceOnUse">
<stop stop-color="#FF1420"/>
<stop offset="1" stop-color="#F8C768"/>
</linearGradient>
</defs>
</svg>
