<svg width="769" height="300" viewBox="0 0 769 300" fill="none" xmlns="http://www.w3.org/2000/svg">
<path d="M12.4609 1.17188H65.0781V58.0469H48.3594V14.4531H26.7188L25.4688 34.8828C25.026 42.0443 23.5807 47.8516 21.1328 52.3047C18.7109 56.7578 14.1016 58.9844 7.30469 58.9844C5.42969 58.9844 3.91927 58.8932 2.77344 58.7109C1.65365 58.5547 0.729167 58.3594 0 58.125V42.7734C0.598958 42.9557 1.17188 43.0729 1.71875 43.125C2.26562 43.1771 2.8776 43.2031 3.55469 43.2031C6.02865 43.2031 7.7474 42.4219 8.71094 40.8594C9.70052 39.2708 10.3125 36.6667 10.5469 33.0469L12.4609 1.17188ZM78.5547 58.0469V1.17188H131.602V13.9453H94.1797V23.9844H128.281V34.9219H94.1797V45.7812H132.266V58.0469H78.5547ZM137.031 14.2969V1.17188H200.078V14.2969H177.031V58.0469H160.039V14.2969H137.031ZM202.617 29.4531V28.9844C202.617 19.4531 206.315 12.2396 213.711 7.34375C221.133 2.44792 230.273 0 241.133 0C251.992 0 261.146 2.44792 268.594 7.34375C276.042 12.2396 279.766 19.4531 279.766 28.9844V29.4531C279.766 39.375 276.042 46.8229 268.594 51.7969C261.146 56.7448 251.992 59.2188 241.133 59.2188C230.273 59.2188 221.133 56.7448 213.711 51.7969C206.315 46.8229 202.617 39.375 202.617 29.4531ZM220.117 29.6484C220.117 35.7161 222.057 40.2865 225.938 43.3594C229.818 46.4062 234.909 47.9688 241.211 48.0469C247.487 48.125 252.565 46.6016 256.445 43.4766C260.326 40.3255 262.266 35.7552 262.266 29.7656V29.0234C262.266 23.2943 260.326 18.9844 256.445 16.0938C252.591 13.1771 247.513 11.6667 241.211 11.5625C234.857 11.4844 229.753 12.9427 225.898 15.9375C222.044 18.9323 220.117 23.2812 220.117 28.9844V29.6484ZM285.273 50.2734C285.273 47.9818 286.042 46.0547 287.578 44.4922C289.141 42.9036 291.393 42.1094 294.336 42.1094C297.279 42.1094 299.518 42.9036 301.055 44.4922C302.617 46.0547 303.398 48.0078 303.398 50.3516C303.398 52.6432 302.617 54.5833 301.055 56.1719C299.518 57.7344 297.279 58.5156 294.336 58.5156C291.393 58.5156 289.141 57.7214 287.578 56.1328C286.042 54.5182 285.273 52.5651 285.273 50.2734ZM5.89844 138.047V81.1719H66.4453V138.047H49.7266V94.4531H22.6172V138.047H5.89844ZM86.4453 81.1719H139.062V138.047H122.344V94.4531H100.703L99.4531 114.883C99.0104 122.044 97.5651 127.852 95.1172 132.305C92.6953 136.758 88.0859 138.984 81.2891 138.984C79.4141 138.984 77.9036 138.893 76.7578 138.711C75.638 138.555 74.7135 138.359 73.9844 138.125V122.773C74.5833 122.956 75.1562 123.073 75.7031 123.125C76.25 123.177 76.862 123.203 77.5391 123.203C80.013 123.203 81.7318 122.422 82.6953 120.859C83.6849 119.271 84.2969 116.667 84.5312 113.047L86.4453 81.1719ZM210.43 138.047H193.711V118.984H171.211L169.922 118.398C163.724 118.164 158.893 116.354 155.43 112.969C151.966 109.583 150.234 105.13 150.234 99.6094C150.234 93.9844 152.109 89.5052 155.859 86.1719C159.635 82.8385 164.518 81.1719 170.508 81.1719H210.43V138.047ZM193.711 108.438V92.7734H175.469C172.656 92.7734 170.573 93.4766 169.219 94.8828C167.891 96.263 167.227 98.1901 167.227 100.664C167.227 103.112 167.891 105.026 169.219 106.406C170.547 107.76 172.63 108.438 175.469 108.438H193.711ZM166.094 138.047H148.398L165.078 113.242H182.539L166.094 138.047ZM260.469 138.047V81.1719H277.227V138.047H260.469ZM302.617 138.047L278.906 111.875L292.422 102.656L323.789 138.047H302.617ZM268.867 102.188H283.125L301.602 81.1719H321.68L292.031 115.664H268.867V102.188ZM214.219 138.047L245.664 102.656L258.867 111.875L235.117 138.047H214.219ZM268.867 102.188V115.664H245.625L215.977 81.1719H236.094L254.57 102.188H268.867ZM324.492 130.273C324.492 127.982 325.26 126.055 326.797 124.492C328.359 122.904 330.612 122.109 333.555 122.109C336.497 122.109 338.737 122.904 340.273 124.492C341.836 126.055 342.617 128.008 342.617 130.352C342.617 132.643 341.836 134.583 340.273 136.172C338.737 137.734 336.497 138.516 333.555 138.516C330.612 138.516 328.359 137.721 326.797 136.133C325.26 134.518 324.492 132.565 324.492 130.273ZM5.89844 218.047V161.172H25.3516L47.2656 196.25C47.6042 196.797 47.8255 197.161 47.9297 197.344C48.0339 197.5 48.151 197.682 48.2812 197.891H48.3594C48.4635 197.682 48.5677 197.5 48.6719 197.344C48.776 197.161 48.9974 196.797 49.3359 196.25L71.0547 161.172H90.8203V218.047H74.4922L74.5703 185.625C74.5703 185.156 74.5703 184.818 74.5703 184.609C74.5703 184.375 74.5703 184.023 74.5703 183.555H74.4141C74.1536 184.049 73.9583 184.401 73.8281 184.609C73.6979 184.792 73.4896 185.104 73.2031 185.547L53.1641 218.047H43.3594L23.2031 185.742C22.8646 185.221 22.6432 184.896 22.5391 184.766C22.4609 184.635 22.2786 184.284 21.9922 183.711H21.8359C21.8359 184.336 21.8359 184.727 21.8359 184.883C21.8359 185.039 21.8359 185.352 21.8359 185.82L21.9141 218.047H5.89844ZM99.3359 189.453V188.984C99.3359 179.453 103.034 172.24 110.43 167.344C117.852 162.448 126.992 160 137.852 160C148.711 160 157.865 162.448 165.312 167.344C172.76 172.24 176.484 179.453 176.484 188.984V189.453C176.484 199.375 172.76 206.823 165.312 211.797C157.865 216.745 148.711 219.219 137.852 219.219C126.992 219.219 117.852 216.745 110.43 211.797C103.034 206.823 99.3359 199.375 99.3359 189.453ZM116.836 189.648C116.836 195.716 118.776 200.286 122.656 203.359C126.536 206.406 131.628 207.969 137.93 208.047C144.206 208.125 149.284 206.602 153.164 203.477C157.044 200.326 158.984 195.755 158.984 189.766V189.023C158.984 183.294 157.044 178.984 153.164 176.094C149.31 173.177 144.232 171.667 137.93 171.562C131.576 171.484 126.471 172.943 122.617 175.938C118.763 178.932 116.836 183.281 116.836 188.984V189.648ZM180.117 189.922V189.141C180.117 179.505 183.633 172.24 190.664 167.344C197.721 162.448 206.927 160 218.281 160C229.688 160 238.255 161.849 243.984 165.547C249.714 169.245 253.112 174.87 254.18 182.422L254.414 184.18H237.695L237.461 182.812C236.732 179.167 234.935 176.354 232.07 174.375C229.206 172.396 224.779 171.406 218.789 171.406C212.227 171.406 207.122 172.917 203.477 175.938C199.857 178.958 198.047 183.346 198.047 189.102V189.883C198.047 195.768 199.896 200.273 203.594 203.398C207.292 206.523 212.344 208.086 218.75 208.086C224.792 208.086 229.271 207.161 232.188 205.312C235.104 203.464 236.888 200.638 237.539 196.836L237.773 195.312H254.414L254.219 197.109C253.359 204.557 250.117 210.104 244.492 213.75C238.867 217.396 230.182 219.219 218.438 219.219C206.615 219.219 197.266 216.719 190.391 211.719C183.542 206.693 180.117 199.427 180.117 189.922ZM308.516 218.047L281.094 191.328L294.102 182.109L330.586 218.047H308.516ZM270.664 182.188H285.195L307.266 161.172H328.477L290.703 195.664H270.664V182.188ZM262.305 218.047V161.172H279.023V218.047H262.305ZM329.414 189.453V188.984C329.414 179.453 333.112 172.24 340.508 167.344C347.93 162.448 357.07 160 367.93 160C378.789 160 387.943 162.448 395.391 167.344C402.839 172.24 406.562 179.453 406.562 188.984V189.453C406.562 199.375 402.839 206.823 395.391 211.797C387.943 216.745 378.789 219.219 367.93 219.219C357.07 219.219 347.93 216.745 340.508 211.797C333.112 206.823 329.414 199.375 329.414 189.453ZM346.914 189.648C346.914 195.716 348.854 200.286 352.734 203.359C356.615 206.406 361.706 207.969 368.008 208.047C374.284 208.125 379.362 206.602 383.242 203.477C387.122 200.326 389.062 195.755 389.062 189.766V189.023C389.062 183.294 387.122 178.984 383.242 176.094C379.388 173.177 374.31 171.667 368.008 171.562C361.654 171.484 356.549 172.943 352.695 175.938C348.841 178.932 346.914 183.281 346.914 188.984V189.648ZM415.117 218.047V161.172H451.797C457.943 161.172 462.526 162.461 465.547 165.039C468.594 167.617 470.117 171.12 470.117 175.547C470.117 178.802 469.284 181.497 467.617 183.633C465.977 185.768 463.88 187.253 461.328 188.086V188.242C464.896 188.711 467.76 190.078 469.922 192.344C472.109 194.583 473.203 197.695 473.203 201.68C473.203 206.966 471.25 211.016 467.344 213.828C463.464 216.641 458.529 218.047 452.539 218.047H415.117ZM431.289 207.266H447.812C450.104 207.266 452.07 206.693 453.711 205.547C455.378 204.401 456.211 202.539 456.211 199.961C456.211 197.799 455.378 196.198 453.711 195.156C452.07 194.089 450.104 193.555 447.812 193.555H431.289V207.266ZM431.289 185.312H447.266C449.427 185.312 451.133 184.753 452.383 183.633C453.659 182.487 454.297 180.885 454.297 178.828C454.297 176.745 453.659 175.182 452.383 174.141C451.133 173.099 449.427 172.578 447.266 172.578H431.289V185.312ZM476.914 189.922V189.141C476.914 179.505 480.43 172.24 487.461 167.344C494.518 162.448 503.724 160 515.078 160C526.484 160 535.052 161.849 540.781 165.547C546.51 169.245 549.909 174.87 550.977 182.422L551.211 184.18H534.492L534.258 182.812C533.529 179.167 531.732 176.354 528.867 174.375C526.003 172.396 521.576 171.406 515.586 171.406C509.023 171.406 503.919 172.917 500.273 175.938C496.654 178.958 494.844 183.346 494.844 189.102V189.883C494.844 195.768 496.693 200.273 500.391 203.398C504.089 206.523 509.141 208.086 515.547 208.086C521.589 208.086 526.068 207.161 528.984 205.312C531.901 203.464 533.685 200.638 534.336 196.836L534.57 195.312H551.211L551.016 197.109C550.156 204.557 546.914 210.104 541.289 213.75C535.664 217.396 526.979 219.219 515.234 219.219C503.411 219.219 494.062 216.719 487.188 211.719C480.339 206.693 476.914 199.427 476.914 189.922ZM605.312 218.047L577.891 191.328L590.898 182.109L627.383 218.047H605.312ZM567.461 182.188H581.992L604.062 161.172H625.273L587.5 195.664H567.461V182.188ZM559.102 218.047V161.172H575.82V218.047H559.102ZM693.203 218.047H676.445L676.484 184.648C676.484 183.789 676.497 183.203 676.523 182.891C676.549 182.552 676.549 182.188 676.523 181.797H676.406C676.224 182.161 676.003 182.552 675.742 182.969C675.482 183.359 675.052 183.867 674.453 184.492L650.195 218.047H631.133V161.172H647.852V193.594C647.852 194.271 647.852 194.792 647.852 195.156C647.852 195.495 647.852 195.99 647.852 196.641H648.008C648.19 196.172 648.398 195.82 648.633 195.586C648.893 195.352 649.31 194.883 649.883 194.18L674.141 161.172H693.203V218.047ZM768.672 218.047H751.914L751.953 184.648C751.953 183.789 751.966 183.203 751.992 182.891C752.018 182.552 752.018 182.188 751.992 181.797H751.875C751.693 182.161 751.471 182.552 751.211 182.969C750.951 183.359 750.521 183.867 749.922 184.492L725.664 218.047H706.602V161.172H723.32V193.594C723.32 194.271 723.32 194.792 723.32 195.156C723.32 195.495 723.32 195.99 723.32 196.641H723.477C723.659 196.172 723.867 195.82 724.102 195.586C724.362 195.352 724.779 194.883 725.352 194.18L749.609 161.172H768.672V218.047ZM737.539 148.359C739.362 148.359 740.964 147.839 742.344 146.797C743.75 145.755 744.792 144.232 745.469 142.227L755.352 145.664C753.737 150.065 751.406 153.242 748.359 155.195C745.312 157.122 741.706 158.086 737.539 158.086C733.372 158.086 729.766 157.122 726.719 155.195C723.672 153.242 721.341 150.065 719.727 145.664L729.609 142.227C730.286 144.206 731.315 145.729 732.695 146.797C734.102 147.839 735.716 148.359 737.539 148.359ZM0.976562 269.922V269.141C0.976562 259.505 4.49219 252.24 11.5234 247.344C18.5807 242.448 27.7865 240 39.1406 240C50.5469 240 59.1146 241.849 64.8438 245.547C70.5729 249.245 73.9714 254.87 75.0391 262.422L75.2734 264.18H58.5547L58.3203 262.812C57.5911 259.167 55.7943 256.354 52.9297 254.375C50.0651 252.396 45.638 251.406 39.6484 251.406C33.0859 251.406 27.9818 252.917 24.3359 255.938C20.7161 258.958 18.9062 263.346 18.9062 269.102V269.883C18.9062 275.768 20.7552 280.273 24.4531 283.398C28.151 286.523 33.2031 288.086 39.6094 288.086C45.651 288.086 50.1302 287.161 53.0469 285.312C55.9635 283.464 57.7474 280.638 58.3984 276.836L58.6328 275.312H75.2734L75.0781 277.109C74.2188 284.557 70.9766 290.104 65.3516 293.75C59.7266 297.396 51.0417 299.219 39.2969 299.219C27.474 299.219 18.125 296.719 11.25 291.719C4.40104 286.693 0.976562 279.427 0.976562 269.922ZM83.1641 298.047V241.172H143.711V298.047H126.992V254.453H99.8828V298.047H83.1641ZM152.227 269.453V268.984C152.227 259.453 155.924 252.24 163.32 247.344C170.742 242.448 179.883 240 190.742 240C201.602 240 210.755 242.448 218.203 247.344C225.651 252.24 229.375 259.453 229.375 268.984V269.453C229.375 279.375 225.651 286.823 218.203 291.797C210.755 296.745 201.602 299.219 190.742 299.219C179.883 299.219 170.742 296.745 163.32 291.797C155.924 286.823 152.227 279.375 152.227 269.453ZM169.727 269.648C169.727 275.716 171.667 280.286 175.547 283.359C179.427 286.406 184.518 287.969 190.82 288.047C197.096 288.125 202.174 286.602 206.055 283.477C209.935 280.326 211.875 275.755 211.875 269.766V269.023C211.875 263.294 209.935 258.984 206.055 256.094C202.201 253.177 197.122 251.667 190.82 251.562C184.466 251.484 179.362 252.943 175.508 255.938C171.654 258.932 169.727 263.281 169.727 268.984V269.648ZM237.93 298.047V241.172H277.148C284.44 241.172 289.87 243.034 293.438 246.758C297.005 250.456 298.789 255.69 298.789 262.461C298.789 268.789 297.044 273.893 293.555 277.773C290.065 281.654 284.479 283.594 276.797 283.594H254.648V298.047H237.93ZM254.648 272.578H272.344C275.938 272.578 278.464 271.706 279.922 269.961C281.38 268.216 282.109 265.833 282.109 262.812C282.109 259.635 281.367 257.24 279.883 255.625C278.424 253.984 275.911 253.164 272.344 253.164H254.648V272.578ZM301.016 254.297V241.172H364.062V254.297H341.016V298.047H324.023V254.297H301.016ZM368.477 290.273C368.477 287.982 369.245 286.055 370.781 284.492C372.344 282.904 374.596 282.109 377.539 282.109C380.482 282.109 382.721 282.904 384.258 284.492C385.82 286.055 386.602 288.008 386.602 290.352C386.602 292.643 385.82 294.583 384.258 296.172C382.721 297.734 380.482 298.516 377.539 298.516C374.596 298.516 372.344 297.721 370.781 296.133C369.245 294.518 368.477 292.565 368.477 290.273Z" fill="#FFF9F2"/>
</svg>
