<svg width="659" height="611" viewBox="0 0 659 611" fill="none" xmlns="http://www.w3.org/2000/svg">
<path d="M958.182 80.5C958.182 24.7893 947.656 -28.4307 928.66 -77.369C922.847 -43.8329 911.204 -11.5734 894.178 17.9081C875.287 50.6165 850.19 79.2704 820.303 102.212C790.416 125.152 756.326 141.935 719.993 151.616C683.663 161.295 645.793 163.685 608.548 158.634C602.312 157.788 596.125 156.685 589.974 155.431C599.503 178.184 613.371 199.094 631.053 216.893C666.991 253.07 715.72 273.409 766.545 273.409L776.043 273.174C823.41 270.809 868.344 250.81 902.038 216.893C937.977 180.715 958.182 131.663 958.182 80.5ZM427.626 97.6904C404.178 95.1736 380.231 96.9389 357.026 103.248C307.755 116.648 265.772 149.224 240.341 193.768C214.916 238.313 208.133 291.207 221.439 340.805C231.84 379.567 253.885 413.797 284.133 439.143C338.886 476.788 402.7 501.925 471.605 510.825C442.717 488.312 418.086 460.25 399.367 427.84C361.219 361.784 350.656 283.174 370.079 209.31C380.97 167.902 400.766 129.87 427.626 97.6904ZM493.22 169.796C479.303 188.916 468.86 210.631 462.716 233.989C449.795 283.124 456.802 335.436 482.179 379.377C507.558 423.319 549.255 455.336 598.068 468.343C646.87 481.342 698.807 474.288 742.451 448.751C749.651 444.537 757.505 442.404 765.282 442.205C801.955 417.674 834.647 387.646 862.27 353.286C836.216 362.551 808.806 368.087 780.815 369.487L766.545 369.864C690.308 369.864 617.214 339.355 563.306 285.089C530.905 252.473 507.107 212.865 493.22 169.796ZM596.197 -347.941C619.151 -327.615 638.978 -303.6 654.633 -276.495C692.785 -210.437 703.345 -131.831 683.921 -57.965C671.997 -12.624 649.327 28.6046 618.467 62.6031C619.429 62.7487 620.403 62.9433 621.368 63.0741C646.134 66.4305 671.319 64.8463 695.477 58.4115C719.639 51.9734 742.318 40.7906 762.194 25.5379C782.076 10.2771 798.8 -8.79657 811.367 -30.5546C823.932 -52.3112 832.123 -76.3535 835.462 -101.294C838.799 -126.234 837.227 -151.616 830.83 -175.943C824.431 -200.266 813.329 -223.095 798.173 -243.103C783.014 -263.113 764.062 -279.907 742.451 -292.555C738.012 -295.154 734.151 -298.373 730.894 -302.021C689.573 -324.387 644.214 -340.143 596.197 -347.941ZM455.932 -316.951C418.285 -326.981 378.793 -325.072 342.662 -311.959C283.777 -283.882 232.237 -242.775 191.683 -192.333C222.159 -203.174 254.516 -208.864 287.455 -208.864C363.692 -208.864 436.786 -178.355 490.694 -124.089C521.414 -93.1655 544.436 -55.9681 558.581 -15.4836C573.605 -35.3114 584.821 -58.0694 591.284 -82.6438C604.205 -131.781 597.2 -184.09 571.821 -228.032C546.442 -271.973 504.744 -303.944 455.932 -316.951ZM95.8182 80.5C95.8182 135.083 105.9 187.284 124.171 235.402C130.15 204.149 141.242 173.8 157.295 145.682C195.389 78.9648 258.243 30.2068 332.042 10.1371C375.545 -1.68979 420.76 -2.93576 464.119 5.85135C454.588 -17.0075 440.699 -38.0229 422.947 -55.8928C387.009 -92.0703 338.28 -112.409 287.455 -112.409C236.629 -112.409 187.9 -92.0703 151.962 -55.8928C116.023 -19.7153 95.8182 29.3373 95.8182 80.5ZM1054 80.5C1054 373.487 818.054 611 527 611C435.826 611 350.09 587.636 275.29 546.618C271.298 545.559 267.344 544.077 263.594 541.909C250.142 534.126 237.449 525.254 225.556 515.534C89.2404 419.641 0 260.608 0 80.5C0 -111.678 101.495 -280.019 253.488 -373.091C256.37 -376.004 259.662 -378.602 263.36 -380.767C277.15 -388.838 291.531 -395.615 306.263 -401.208C373.422 -432.445 448.16 -450 527 -450C818.054 -450 1054 -212.487 1054 80.5Z" fill="#FA9500"/>
<path d="M958.182 80.5C958.182 24.7893 947.656 -28.4307 928.66 -77.369C922.847 -43.8329 911.204 -11.5734 894.178 17.9081C875.287 50.6165 850.19 79.2704 820.303 102.212C790.416 125.152 756.326 141.935 719.993 151.616C683.663 161.295 645.793 163.685 608.548 158.634C602.312 157.788 596.125 156.685 589.974 155.431C599.503 178.184 613.371 199.094 631.053 216.893C666.991 253.07 715.72 273.409 766.545 273.409L776.043 273.174C823.41 270.809 868.344 250.81 902.038 216.893C937.977 180.715 958.182 131.663 958.182 80.5ZM427.626 97.6904C404.178 95.1736 380.231 96.9389 357.026 103.248C307.755 116.648 265.772 149.224 240.341 193.768C214.916 238.313 208.133 291.207 221.439 340.805C231.84 379.567 253.885 413.797 284.133 439.143C338.886 476.788 402.7 501.925 471.605 510.825C442.717 488.312 418.086 460.25 399.367 427.84C361.219 361.784 350.656 283.174 370.079 209.31C380.97 167.902 400.766 129.87 427.626 97.6904ZM493.22 169.796C479.303 188.916 468.86 210.631 462.716 233.989C449.795 283.124 456.802 335.436 482.179 379.377C507.558 423.319 549.255 455.336 598.068 468.343C646.87 481.342 698.807 474.288 742.451 448.751C749.651 444.537 757.505 442.404 765.282 442.205C801.955 417.674 834.647 387.646 862.27 353.286C836.216 362.551 808.806 368.087 780.815 369.487L766.545 369.864C690.308 369.864 617.214 339.355 563.306 285.089C530.905 252.473 507.107 212.865 493.22 169.796ZM596.197 -347.941C619.151 -327.615 638.978 -303.6 654.633 -276.495C692.785 -210.437 703.345 -131.831 683.921 -57.965C671.997 -12.624 649.327 28.6046 618.467 62.6031C619.429 62.7487 620.403 62.9433 621.368 63.0741C646.134 66.4305 671.319 64.8463 695.477 58.4115C719.639 51.9734 742.318 40.7906 762.194 25.5379C782.076 10.2771 798.8 -8.79657 811.367 -30.5546C823.932 -52.3112 832.123 -76.3535 835.462 -101.294C838.799 -126.234 837.227 -151.616 830.83 -175.943C824.431 -200.266 813.329 -223.095 798.173 -243.103C783.014 -263.113 764.062 -279.907 742.451 -292.555C738.012 -295.154 734.151 -298.373 730.894 -302.021C689.573 -324.387 644.214 -340.143 596.197 -347.941ZM455.932 -316.951C418.285 -326.981 378.793 -325.072 342.662 -311.959C283.777 -283.882 232.237 -242.775 191.683 -192.333C222.159 -203.174 254.516 -208.864 287.455 -208.864C363.692 -208.864 436.786 -178.355 490.694 -124.089C521.414 -93.1655 544.436 -55.9681 558.581 -15.4836C573.605 -35.3114 584.821 -58.0694 591.284 -82.6438C604.205 -131.781 597.2 -184.09 571.821 -228.032C546.442 -271.973 504.744 -303.944 455.932 -316.951ZM95.8182 80.5C95.8182 135.083 105.9 187.284 124.171 235.402C130.15 204.149 141.242 173.8 157.295 145.682C195.389 78.9648 258.243 30.2068 332.042 10.1371C375.545 -1.68979 420.76 -2.93576 464.119 5.85135C454.588 -17.0075 440.699 -38.0229 422.947 -55.8928C387.009 -92.0703 338.28 -112.409 287.455 -112.409C236.629 -112.409 187.9 -92.0703 151.962 -55.8928C116.023 -19.7153 95.8182 29.3373 95.8182 80.5ZM1054 80.5C1054 373.487 818.054 611 527 611C435.826 611 350.09 587.636 275.29 546.618C271.298 545.559 267.344 544.077 263.594 541.909C250.142 534.126 237.449 525.254 225.556 515.534C89.2404 419.641 0 260.608 0 80.5C0 -111.678 101.495 -280.019 253.488 -373.091C256.37 -376.004 259.662 -378.602 263.36 -380.767C277.15 -388.838 291.531 -395.615 306.263 -401.208C373.422 -432.445 448.16 -450 527 -450C818.054 -450 1054 -212.487 1054 80.5Z" fill="url(#paint0_linear_187_11263)"/>
<defs>
<linearGradient id="paint0_linear_187_11263" x1="550.788" y1="-808.067" x2="1616.62" y2="247.355" gradientUnits="userSpaceOnUse">
<stop stop-color="#FF1420"/>
<stop offset="1" stop-color="#F8C768"/>
</linearGradient>
</defs>
</svg>
