<svg width="1054" height="1061" viewBox="0 0 1054 1061" fill="none" xmlns="http://www.w3.org/2000/svg">
<path d="M958.182 530.5C958.182 474.789 947.656 421.569 928.66 372.631C922.847 406.167 911.204 438.427 894.178 467.908C875.287 500.616 850.19 529.27 820.303 552.212C790.416 575.152 756.326 591.935 719.993 601.616C683.663 611.295 645.793 613.685 608.548 608.634C602.312 607.788 596.125 606.685 589.974 605.431C599.503 628.184 613.371 649.094 631.053 666.893C666.991 703.07 715.72 723.409 766.545 723.409L776.043 723.174C823.41 720.809 868.344 700.81 902.038 666.893C937.977 630.715 958.182 581.663 958.182 530.5ZM427.626 547.69C404.178 545.174 380.231 546.939 357.026 553.248C307.755 566.648 265.772 599.224 240.341 643.768C214.916 688.313 208.133 741.207 221.439 790.805C231.84 829.567 253.885 863.797 284.133 889.143C338.886 926.788 402.7 951.925 471.605 960.825C442.717 938.312 418.086 910.25 399.367 877.84C361.219 811.784 350.656 733.174 370.079 659.31C380.97 617.902 400.766 579.87 427.626 547.69ZM493.22 619.796C479.303 638.916 468.86 660.631 462.716 683.989C449.795 733.124 456.802 785.436 482.179 829.377C507.558 873.319 549.255 905.336 598.068 918.343C646.87 931.342 698.807 924.288 742.451 898.751C749.651 894.537 757.505 892.404 765.282 892.205C801.955 867.674 834.647 837.646 862.27 803.286C836.216 812.551 808.806 818.087 780.815 819.487L766.545 819.864C690.308 819.864 617.214 789.355 563.306 735.089C530.905 702.473 507.107 662.865 493.22 619.796ZM596.197 102.059C619.151 122.385 638.978 146.4 654.633 173.505C692.785 239.563 703.345 318.169 683.921 392.035C671.997 437.376 649.327 478.605 618.467 512.603C619.429 512.749 620.403 512.943 621.368 513.074C646.134 516.431 671.319 514.846 695.477 508.412C719.639 501.973 742.318 490.791 762.194 475.538C782.076 460.277 798.8 441.203 811.367 419.445C823.932 397.689 832.123 373.646 835.462 348.706C838.799 323.766 837.227 298.384 830.83 274.057C824.431 249.734 813.329 226.905 798.173 206.897C783.014 186.887 764.062 170.093 742.451 157.445C738.012 154.846 734.151 151.627 730.894 147.979C689.573 125.613 644.214 109.857 596.197 102.059ZM455.932 133.049C418.285 123.019 378.793 124.928 342.662 138.041C283.777 166.118 232.237 207.225 191.683 257.667C222.159 246.826 254.516 241.136 287.455 241.136C363.692 241.136 436.786 271.645 490.694 325.911C521.414 356.835 544.436 394.032 558.581 434.516C573.605 414.689 584.821 391.931 591.284 367.356C604.205 318.219 597.2 265.91 571.821 221.968C546.442 178.027 504.744 146.056 455.932 133.049ZM95.8182 530.5C95.8182 585.083 105.9 637.284 124.171 685.402C130.15 654.149 141.242 623.8 157.295 595.682C195.389 528.965 258.243 480.207 332.042 460.137C375.545 448.31 420.76 447.064 464.119 455.851C454.588 432.993 440.699 411.977 422.947 394.107C387.009 357.93 338.28 337.591 287.455 337.591C236.629 337.591 187.9 357.93 151.962 394.107C116.023 430.285 95.8182 479.337 95.8182 530.5ZM1054 530.5C1054 823.487 818.054 1061 527 1061C435.826 1061 350.09 1037.64 275.29 996.618C271.298 995.559 267.344 994.077 263.594 991.909C250.142 984.126 237.449 975.254 225.556 965.534C89.2404 869.641 0 710.608 0 530.5C0 338.322 101.495 169.981 253.488 76.9093C256.37 73.9965 259.662 71.3978 263.36 69.2325C277.15 61.1618 291.531 54.3849 306.263 48.7924C373.422 17.5554 448.16 0 527 0C818.054 0 1054 237.513 1054 530.5Z" fill="#FA9500"/>
<path d="M958.182 530.5C958.182 474.789 947.656 421.569 928.66 372.631C922.847 406.167 911.204 438.427 894.178 467.908C875.287 500.616 850.19 529.27 820.303 552.212C790.416 575.152 756.326 591.935 719.993 601.616C683.663 611.295 645.793 613.685 608.548 608.634C602.312 607.788 596.125 606.685 589.974 605.431C599.503 628.184 613.371 649.094 631.053 666.893C666.991 703.07 715.72 723.409 766.545 723.409L776.043 723.174C823.41 720.809 868.344 700.81 902.038 666.893C937.977 630.715 958.182 581.663 958.182 530.5ZM427.626 547.69C404.178 545.174 380.231 546.939 357.026 553.248C307.755 566.648 265.772 599.224 240.341 643.768C214.916 688.313 208.133 741.207 221.439 790.805C231.84 829.567 253.885 863.797 284.133 889.143C338.886 926.788 402.7 951.925 471.605 960.825C442.717 938.312 418.086 910.25 399.367 877.84C361.219 811.784 350.656 733.174 370.079 659.31C380.97 617.902 400.766 579.87 427.626 547.69ZM493.22 619.796C479.303 638.916 468.86 660.631 462.716 683.989C449.795 733.124 456.802 785.436 482.179 829.377C507.558 873.319 549.255 905.336 598.068 918.343C646.87 931.342 698.807 924.288 742.451 898.751C749.651 894.537 757.505 892.404 765.282 892.205C801.955 867.674 834.647 837.646 862.27 803.286C836.216 812.551 808.806 818.087 780.815 819.487L766.545 819.864C690.308 819.864 617.214 789.355 563.306 735.089C530.905 702.473 507.107 662.865 493.22 619.796ZM596.197 102.059C619.151 122.385 638.978 146.4 654.633 173.505C692.785 239.563 703.345 318.169 683.921 392.035C671.997 437.376 649.327 478.605 618.467 512.603C619.429 512.749 620.403 512.943 621.368 513.074C646.134 516.431 671.319 514.846 695.477 508.412C719.639 501.973 742.318 490.791 762.194 475.538C782.076 460.277 798.8 441.203 811.367 419.445C823.932 397.689 832.123 373.646 835.462 348.706C838.799 323.766 837.227 298.384 830.83 274.057C824.431 249.734 813.329 226.905 798.173 206.897C783.014 186.887 764.062 170.093 742.451 157.445C738.012 154.846 734.151 151.627 730.894 147.979C689.573 125.613 644.214 109.857 596.197 102.059ZM455.932 133.049C418.285 123.019 378.793 124.928 342.662 138.041C283.777 166.118 232.237 207.225 191.683 257.667C222.159 246.826 254.516 241.136 287.455 241.136C363.692 241.136 436.786 271.645 490.694 325.911C521.414 356.835 544.436 394.032 558.581 434.516C573.605 414.689 584.821 391.931 591.284 367.356C604.205 318.219 597.2 265.91 571.821 221.968C546.442 178.027 504.744 146.056 455.932 133.049ZM95.8182 530.5C95.8182 585.083 105.9 637.284 124.171 685.402C130.15 654.149 141.242 623.8 157.295 595.682C195.389 528.965 258.243 480.207 332.042 460.137C375.545 448.31 420.76 447.064 464.119 455.851C454.588 432.993 440.699 411.977 422.947 394.107C387.009 357.93 338.28 337.591 287.455 337.591C236.629 337.591 187.9 357.93 151.962 394.107C116.023 430.285 95.8182 479.337 95.8182 530.5ZM1054 530.5C1054 823.487 818.054 1061 527 1061C435.826 1061 350.09 1037.64 275.29 996.618C271.298 995.559 267.344 994.077 263.594 991.909C250.142 984.126 237.449 975.254 225.556 965.534C89.2404 869.641 0 710.608 0 530.5C0 338.322 101.495 169.981 253.488 76.9093C256.37 73.9965 259.662 71.3978 263.36 69.2325C277.15 61.1618 291.531 54.3849 306.263 48.7924C373.422 17.5554 448.16 0 527 0C818.054 0 1054 237.513 1054 530.5Z" fill="url(#paint0_linear_204_6534)"/>
<defs>
<linearGradient id="paint0_linear_204_6534" x1="550.788" y1="-358.067" x2="1616.62" y2="697.355" gradientUnits="userSpaceOnUse">
<stop stop-color="#FF1420"/>
<stop offset="1" stop-color="#F8C768"/>
</linearGradient>
</defs>
</svg>
