<svg xmlns="http://www.w3.org/2000/svg" width="432" height="432" viewBox="0 0 432 432" fill="none"><metadata><rdf:RDF xmlns:rdf="http://www.w3.org/1999/02/22-rdf-syntax-ns#" xmlns:dc="http://purl.org/dc/elements/1.1/"><rdf:Description><dc:creator>RealFaviconGenerator</dc:creator><dc:source>https://realfavicongenerator.net</dc:source></rdf:Description></rdf:RDF></metadata><path d="M431.207 0H0V431.207H431.207V0Z" fill="url(#paint0_linear_25_1394)"></path><path d="M361.293 219.047C375.311 175.157 355.864 141.935 334.409 135.068C312.955 128.201 277.862 143.967 263.843 187.856C249.825 231.746 269.272 264.968 290.727 271.835L282.109 298.817L281.132 298.497C239.998 284.603 220.2 231.487 236.89 179.23C253.712 126.561 301.232 94.7089 343.027 108.086L344.002 108.406C385.137 122.299 404.936 175.416 388.246 227.674L387.435 230.127C369.941 281.327 323.252 311.986 282.109 298.817L290.727 271.835C312.181 278.702 347.274 262.937 361.293 219.047Z" fill="#FFF9F2"></path><path d="M83.0048 181.696C61.9623 140.715 75.682 104.742 95.7149 94.4335C115.748 84.1255 152.954 93.8943 173.997 134.876C195.04 175.858 181.32 211.831 161.287 222.139L174.223 247.333L175.134 246.856C213.423 226.375 224.219 170.721 199.165 121.926C173.913 72.7469 121.805 49.1584 82.7786 69.2395L81.8693 69.7157C43.58 90.1962 32.7829 145.851 57.8374 194.646L59.0403 196.933C84.714 244.552 135.807 267.1 174.223 247.333L161.287 222.139C141.254 232.447 104.048 222.678 83.0048 181.696Z" fill="#FFF9F2"></path><path d="M309.333 311.97C308.503 311.704 306.988 311.603 304.455 312.788C301.878 313.994 298.752 316.327 295.381 319.997C288.653 327.323 282.005 338.83 277.567 352.725L261.395 347.548C266.43 331.786 274.173 317.976 282.882 308.493C287.23 303.759 292.084 299.814 297.264 297.39C302.488 294.945 308.507 293.862 314.504 295.781L309.333 311.97Z" fill="#FFF9F2"></path><path d="M257.477 277.524C263.474 279.443 267.749 283.822 270.587 288.847C273.401 293.83 275.068 299.862 275.866 306.243C277.464 319.025 275.768 334.77 270.733 350.533L254.561 345.357C258.999 331.462 260.253 318.228 259.018 308.354C258.4 303.408 257.207 299.692 255.807 297.213C254.431 294.776 253.137 293.979 252.306 293.713L257.477 277.524Z" fill="#FFF9F2"></path><path d="M149.519 264.787C150.295 264.388 151.772 264.039 154.465 264.791C157.205 265.556 160.672 267.342 164.6 270.406C172.441 276.524 180.891 286.779 187.552 299.753L202.653 291.983C195.095 277.264 185.187 264.919 175.038 257C169.971 253.047 164.534 249.955 159.027 248.418C153.472 246.867 147.356 246.79 141.757 249.671L149.519 264.787Z" fill="#FFF9F2"></path><path d="M195.017 222.268C189.418 225.15 185.921 230.173 183.948 235.597C181.991 240.975 181.339 247.2 181.601 253.626C182.126 266.496 186.388 281.748 193.945 296.466L209.045 288.696C202.384 275.722 198.971 262.875 198.565 252.932C198.362 247.951 198.928 244.09 199.901 241.414C200.858 238.784 202.003 237.784 202.779 237.385L195.017 222.268Z" fill="#FFF9F2"></path><path d="M266.165 84.4946L229.692 121.006L193.219 84.4946L229.692 47.9833L266.165 84.4946Z" fill="#FFF9F2"></path><path d="M287.875 345.856L270.795 399.333L234.857 387.83L251.937 334.353L287.875 345.856Z" fill="#FFF9F2"></path><path d="M176.268 294.681L201.907 344.615L235.464 327.348L209.825 277.415L176.268 294.681Z" fill="#FFF9F2"></path><defs>
<linearGradient id="paint0_linear_25_1394" x1="215.604" y1="0" x2="215.604" y2="431.207" gradientUnits="userSpaceOnUse">
<stop offset="0.100962" stop-color="#F7C667"></stop>
<stop offset="1" stop-color="#FE131F"></stop>
</linearGradient>
</defs></svg>