<svg width="505" height="507" viewBox="0 0 505 507" fill="none" xmlns="http://www.w3.org/2000/svg">
<path fill-rule="evenodd" clip-rule="evenodd" d="M227.029 189.39C202.746 113.389 134.152 67.4264 73.8206 86.7302L72.4126 87.1923C13.0355 107.24 -15.5455 183.889 8.54734 259.297L9.71783 262.836C28.7786 318.601 71.8476 357.477 117.361 365.02L122.446 380.936C123.645 380.552 125.832 380.407 129.487 382.117C133.207 383.857 137.72 387.223 142.585 392.518C150.087 400.683 157.517 412.448 163.464 426.618L153.418 429.832L178.074 507L229.95 490.402L205.295 413.234L197.838 415.619C194.465 400.622 193.696 386.723 195.072 375.716C195.965 368.58 197.687 363.218 199.708 359.641C201.694 356.125 203.562 354.974 204.761 354.59L199.682 338.691C233.076 305.44 245.452 247.053 227.029 189.39ZM174.243 356.932C172.576 361.856 171.44 367.174 170.753 372.671C170.165 377.37 169.888 382.346 169.918 387.529C166.94 383.292 163.829 379.403 160.628 375.919C156.877 371.836 152.865 368.16 148.648 365.116C153.047 364.39 157.423 363.343 161.756 361.957L163.166 361.495C166.988 360.204 170.682 358.677 174.243 356.932ZM86.2607 125.665C117.23 115.757 167.887 138.507 188.122 201.84C208.357 265.173 180.286 313.113 149.316 323.022C118.347 332.931 67.6896 310.181 47.4544 246.848C27.2195 183.515 55.2914 135.575 86.2607 125.665Z" fill="#FA9500"/>
<path fill-rule="evenodd" clip-rule="evenodd" d="M227.029 189.39C202.746 113.389 134.152 67.4264 73.8206 86.7302L72.4126 87.1923C13.0355 107.24 -15.5455 183.889 8.54734 259.297L9.71783 262.836C28.7786 318.601 71.8476 357.477 117.361 365.02L122.446 380.936C123.645 380.552 125.832 380.407 129.487 382.117C133.207 383.857 137.72 387.223 142.585 392.518C150.087 400.683 157.517 412.448 163.464 426.618L153.418 429.832L178.074 507L229.95 490.402L205.295 413.234L197.838 415.619C194.465 400.622 193.696 386.723 195.072 375.716C195.965 368.58 197.687 363.218 199.708 359.641C201.694 356.125 203.562 354.974 204.761 354.59L199.682 338.691C233.076 305.44 245.452 247.053 227.029 189.39ZM174.243 356.932C172.576 361.856 171.44 367.174 170.753 372.671C170.165 377.37 169.888 382.346 169.918 387.529C166.94 383.292 163.829 379.403 160.628 375.919C156.877 371.836 152.865 368.16 148.648 365.116C153.047 364.39 157.423 363.343 161.756 361.957L163.166 361.495C166.988 360.204 170.682 358.677 174.243 356.932ZM86.2607 125.665C117.23 115.757 167.887 138.507 188.122 201.84C208.357 265.173 180.286 313.113 149.316 323.022C118.347 332.931 67.6896 310.181 47.4544 246.848C27.2195 183.515 55.2914 135.575 86.2607 125.665Z" fill="url(#paint0_linear_204_6690)"/>
<path fill-rule="evenodd" clip-rule="evenodd" d="M227.029 189.39C202.746 113.389 134.152 67.4264 73.8206 86.7302L72.4126 87.1923C13.0355 107.24 -15.5455 183.889 8.54734 259.297L9.71783 262.836C28.7786 318.601 71.8476 357.477 117.361 365.02L122.446 380.936C123.645 380.552 125.832 380.407 129.487 382.117C133.207 383.857 137.72 387.223 142.585 392.518C150.087 400.683 157.517 412.448 163.464 426.618L153.418 429.832L178.074 507L229.95 490.402L205.295 413.234L197.838 415.619C194.465 400.622 193.696 386.723 195.072 375.716C195.965 368.58 197.687 363.218 199.708 359.641C201.694 356.125 203.562 354.974 204.761 354.59L199.682 338.691C233.076 305.44 245.452 247.053 227.029 189.39ZM174.243 356.932C172.576 361.856 171.44 367.174 170.753 372.671C170.165 377.37 169.888 382.346 169.918 387.529C166.94 383.292 163.829 379.403 160.628 375.919C156.877 371.836 152.865 368.16 148.648 365.116C153.047 364.39 157.423 363.343 161.756 361.957L163.166 361.495C166.988 360.204 170.682 358.677 174.243 356.932ZM86.2607 125.665C117.23 115.757 167.887 138.507 188.122 201.84C208.357 265.173 180.286 313.113 149.316 323.022C118.347 332.931 67.6896 310.181 47.4544 246.848C27.2195 183.515 55.2914 135.575 86.2607 125.665Z" fill="url(#paint1_linear_204_6690)"/>
<path fill-rule="evenodd" clip-rule="evenodd" d="M449.493 30.6732C393.159 1.69603 317.941 35.7345 281.49 106.7C253.842 160.528 256.44 220.139 283.889 258.438L276.251 273.308C277.371 273.884 279.024 275.327 280.405 279.123C281.81 282.984 282.627 288.556 282.333 295.743C281.881 306.828 278.836 320.413 273.041 334.653L266.074 331.07L229.064 403.125L277.503 428.041L314.514 355.986L305.166 351.177C313.366 338.169 322.635 327.78 331.382 320.958C337.052 316.536 342.057 313.959 346.013 312.855C349.9 311.77 352.033 312.275 353.152 312.851L360.782 297.997C406.914 298.051 455.788 266.8 483.759 214.936L485.495 211.637C521.661 141.225 506.076 60.914 450.805 31.3604L449.493 30.6732ZM305.965 280.625C309.202 282.942 312.606 285.066 316.178 286.975L317.492 287.664C321.536 289.744 325.679 291.497 329.896 292.937C325.24 295.244 320.683 298.207 316.316 301.613C312.569 304.536 308.845 307.877 305.194 311.586C306.082 306.461 306.628 301.49 306.822 296.744C307.048 291.201 306.803 285.762 305.965 280.625ZM317.819 125.387C348.194 66.2503 401.902 52.1541 430.82 67.0287C459.737 81.9035 479.541 133.813 449.166 192.95C418.791 252.087 365.083 266.183 336.166 251.309C307.248 236.434 287.443 184.524 317.819 125.387Z" fill="#FA9500"/>
<path fill-rule="evenodd" clip-rule="evenodd" d="M449.493 30.6732C393.159 1.69603 317.941 35.7345 281.49 106.7C253.842 160.528 256.44 220.139 283.889 258.438L276.251 273.308C277.371 273.884 279.024 275.327 280.405 279.123C281.81 282.984 282.627 288.556 282.333 295.743C281.881 306.828 278.836 320.413 273.041 334.653L266.074 331.07L229.064 403.125L277.503 428.041L314.514 355.986L305.166 351.177C313.366 338.169 322.635 327.78 331.382 320.958C337.052 316.536 342.057 313.959 346.013 312.855C349.9 311.77 352.033 312.275 353.152 312.851L360.782 297.997C406.914 298.051 455.788 266.8 483.759 214.936L485.495 211.637C521.661 141.225 506.076 60.914 450.805 31.3604L449.493 30.6732ZM305.965 280.625C309.202 282.942 312.606 285.066 316.178 286.975L317.492 287.664C321.536 289.744 325.679 291.497 329.896 292.937C325.24 295.244 320.683 298.207 316.316 301.613C312.569 304.536 308.845 307.877 305.194 311.586C306.082 306.461 306.628 301.49 306.822 296.744C307.048 291.201 306.803 285.762 305.965 280.625ZM317.819 125.387C348.194 66.2503 401.902 52.1541 430.82 67.0287C459.737 81.9035 479.541 133.813 449.166 192.95C418.791 252.087 365.083 266.183 336.166 251.309C307.248 236.434 287.443 184.524 317.819 125.387Z" fill="url(#paint2_linear_204_6690)"/>
<path fill-rule="evenodd" clip-rule="evenodd" d="M449.493 30.6732C393.159 1.69603 317.941 35.7345 281.49 106.7C253.842 160.528 256.44 220.139 283.889 258.438L276.251 273.308C277.371 273.884 279.024 275.327 280.405 279.123C281.81 282.984 282.627 288.556 282.333 295.743C281.881 306.828 278.836 320.413 273.041 334.653L266.074 331.07L229.064 403.125L277.503 428.041L314.514 355.986L305.166 351.177C313.366 338.169 322.635 327.78 331.382 320.958C337.052 316.536 342.057 313.959 346.013 312.855C349.9 311.77 352.033 312.275 353.152 312.851L360.782 297.997C406.914 298.051 455.788 266.8 483.759 214.936L485.495 211.637C521.661 141.225 506.076 60.914 450.805 31.3604L449.493 30.6732ZM305.965 280.625C309.202 282.942 312.606 285.066 316.178 286.975L317.492 287.664C321.536 289.744 325.679 291.497 329.896 292.937C325.24 295.244 320.683 298.207 316.316 301.613C312.569 304.536 308.845 307.877 305.194 311.586C306.082 306.461 306.628 301.49 306.822 296.744C307.048 291.201 306.803 285.762 305.965 280.625ZM317.819 125.387C348.194 66.2503 401.902 52.1541 430.82 67.0287C459.737 81.9035 479.541 133.813 449.166 192.95C418.791 252.087 365.083 266.183 336.166 251.309C307.248 236.434 287.443 184.524 317.819 125.387Z" fill="url(#paint3_linear_204_6690)"/>
<path d="M184.745 52.6865L237.394 105.372L290.042 52.6865L237.394 0L184.745 52.6865Z" fill="#FA9500"/>
<path d="M184.745 52.6865L237.394 105.372L290.042 52.6865L237.394 0L184.745 52.6865Z" fill="url(#paint4_linear_204_6690)"/>
<path d="M184.745 52.6865L237.394 105.372L290.042 52.6865L237.394 0L184.745 52.6865Z" fill="url(#paint5_linear_204_6690)"/>
<defs>
<linearGradient id="paint0_linear_204_6690" x1="-6.64324e-06" y1="507" x2="506.996" y2="2.00394" gradientUnits="userSpaceOnUse">
<stop stop-color="#FF1420"/>
<stop offset="1" stop-color="#F8C768"/>
</linearGradient>
<linearGradient id="paint1_linear_204_6690" x1="68.512" y1="672.134" x2="380.725" y2="-147.299" gradientUnits="userSpaceOnUse">
<stop stop-color="#F8C768"/>
<stop offset="1" stop-color="#FF1420"/>
</linearGradient>
<linearGradient id="paint2_linear_204_6690" x1="-6.64324e-06" y1="507" x2="506.996" y2="2.00394" gradientUnits="userSpaceOnUse">
<stop stop-color="#FF1420"/>
<stop offset="1" stop-color="#F8C768"/>
</linearGradient>
<linearGradient id="paint3_linear_204_6690" x1="68.512" y1="672.134" x2="380.725" y2="-147.299" gradientUnits="userSpaceOnUse">
<stop stop-color="#F8C768"/>
<stop offset="1" stop-color="#FF1420"/>
</linearGradient>
<linearGradient id="paint4_linear_204_6690" x1="-6.64324e-06" y1="507" x2="506.996" y2="2.00394" gradientUnits="userSpaceOnUse">
<stop stop-color="#FF1420"/>
<stop offset="1" stop-color="#F8C768"/>
</linearGradient>
<linearGradient id="paint5_linear_204_6690" x1="68.512" y1="672.134" x2="380.725" y2="-147.299" gradientUnits="userSpaceOnUse">
<stop stop-color="#F8C768"/>
<stop offset="1" stop-color="#FF1420"/>
</linearGradient>
</defs>
</svg>
