<svg width="1088" height="651" viewBox="0 0 1088 651" fill="none" xmlns="http://www.w3.org/2000/svg">
<path fill-rule="evenodd" clip-rule="evenodd" d="M489.124 361.291C436.808 197.446 289.025 98.3591 159.043 139.975L156.01 140.971C28.0843 184.19 -33.4922 349.43 18.4149 511.997L20.9366 519.628C62.0023 639.846 154.792 723.655 252.849 739.917L263.804 774.229C266.388 773.402 271.099 773.088 278.975 776.774C286.989 780.526 296.713 787.783 307.194 799.198C323.355 816.8 339.364 842.162 352.176 872.711L330.533 879.641L383.652 1046L495.417 1010.22L442.299 843.857L426.234 848.999C418.967 816.668 417.309 786.706 420.274 762.976C422.197 747.591 425.908 736.032 430.262 728.32C434.542 720.74 438.565 718.258 441.149 717.431L430.206 683.156C502.151 611.472 528.816 485.601 489.124 361.291ZM375.399 722.481C371.807 733.095 369.361 744.56 367.88 756.411C366.614 766.54 366.016 777.268 366.082 788.442C359.664 779.308 352.962 770.924 346.066 763.413C337.985 754.611 329.341 746.686 320.256 740.124C329.733 738.559 339.161 736.302 348.496 733.313L351.534 732.317C359.769 729.535 367.727 726.242 375.399 722.481ZM185.845 223.912C252.567 202.55 361.705 251.595 405.301 388.129C448.896 524.665 388.418 628.014 321.696 649.376C254.973 670.738 145.834 621.695 102.238 485.16C58.6431 348.625 119.123 245.274 185.845 223.912Z" fill="#FA9500"/>
<path fill-rule="evenodd" clip-rule="evenodd" d="M489.124 361.291C436.808 197.446 289.025 98.3591 159.043 139.975L156.01 140.971C28.0843 184.19 -33.4922 349.43 18.4149 511.997L20.9366 519.628C62.0023 639.846 154.792 723.655 252.849 739.917L263.804 774.229C266.388 773.402 271.099 773.088 278.975 776.774C286.989 780.526 296.713 787.783 307.194 799.198C323.355 816.8 339.364 842.162 352.176 872.711L330.533 879.641L383.652 1046L495.417 1010.22L442.299 843.857L426.234 848.999C418.967 816.668 417.309 786.706 420.274 762.976C422.197 747.591 425.908 736.032 430.262 728.32C434.542 720.74 438.565 718.258 441.149 717.431L430.206 683.156C502.151 611.472 528.816 485.601 489.124 361.291ZM375.399 722.481C371.807 733.095 369.361 744.56 367.88 756.411C366.614 766.54 366.016 777.268 366.082 788.442C359.664 779.308 352.962 770.924 346.066 763.413C337.985 754.611 329.341 746.686 320.256 740.124C329.733 738.559 339.161 736.302 348.496 733.313L351.534 732.317C359.769 729.535 367.727 726.242 375.399 722.481ZM185.845 223.912C252.567 202.55 361.705 251.595 405.301 388.129C448.896 524.665 388.418 628.014 321.696 649.376C254.973 670.738 145.834 621.695 102.238 485.16C58.6431 348.625 119.123 245.274 185.845 223.912Z" fill="url(#paint0_linear_187_11044)"/>
<path fill-rule="evenodd" clip-rule="evenodd" d="M489.124 361.291C436.808 197.446 289.025 98.3591 159.043 139.975L156.01 140.971C28.0843 184.19 -33.4922 349.43 18.4149 511.997L20.9366 519.628C62.0023 639.846 154.792 723.655 252.849 739.917L263.804 774.229C266.388 773.402 271.099 773.088 278.975 776.774C286.989 780.526 296.713 787.783 307.194 799.198C323.355 816.8 339.364 842.162 352.176 872.711L330.533 879.641L383.652 1046L495.417 1010.22L442.299 843.857L426.234 848.999C418.967 816.668 417.309 786.706 420.274 762.976C422.197 747.591 425.908 736.032 430.262 728.32C434.542 720.74 438.565 718.258 441.149 717.431L430.206 683.156C502.151 611.472 528.816 485.601 489.124 361.291ZM375.399 722.481C371.807 733.095 369.361 744.56 367.88 756.411C366.614 766.54 366.016 777.268 366.082 788.442C359.664 779.308 352.962 770.924 346.066 763.413C337.985 754.611 329.341 746.686 320.256 740.124C329.733 738.559 339.161 736.302 348.496 733.313L351.534 732.317C359.769 729.535 367.727 726.242 375.399 722.481ZM185.845 223.912C252.567 202.55 361.705 251.595 405.301 388.129C448.896 524.665 388.418 628.014 321.696 649.376C254.973 670.738 145.834 621.695 102.238 485.16C58.6431 348.625 119.123 245.274 185.845 223.912Z" fill="url(#paint1_linear_187_11044)"/>
<path fill-rule="evenodd" clip-rule="evenodd" d="M968.413 19.1259C847.043 -43.3437 684.99 30.0372 606.458 183.026C546.891 299.069 552.488 427.581 611.626 510.146L595.172 542.202C597.584 543.444 601.144 546.556 604.12 554.738C607.147 563.062 608.907 575.075 608.275 590.568C607.299 614.466 600.739 643.753 588.254 674.451L573.245 666.728L493.509 822.064L597.868 875.779L677.606 720.442L657.467 710.074C675.132 682.031 695.104 659.635 713.948 644.927C726.163 635.394 736.946 629.839 745.469 627.459C753.843 625.12 758.439 626.208 760.851 627.449L777.289 595.428C876.678 595.544 981.975 528.172 1042.24 416.363L1045.98 409.251C1123.9 257.455 1090.32 84.3195 971.24 20.6073L968.413 19.1259ZM659.188 557.977C666.162 562.972 673.496 567.55 681.191 571.667L684.023 573.151C692.736 577.636 701.661 581.414 710.747 584.52C700.716 589.493 690.898 595.88 681.488 603.224C673.415 609.524 665.392 616.727 657.527 624.723C659.439 613.674 660.616 602.958 661.034 592.726C661.521 580.777 660.993 569.05 659.188 557.977ZM684.726 223.312C750.168 95.8237 865.88 65.4349 928.181 97.5017C990.482 129.569 1033.15 241.477 967.709 368.965C902.267 496.454 786.555 526.842 724.254 494.776C661.953 462.708 619.284 350.801 684.726 223.312Z" fill="#FA9500"/>
<path fill-rule="evenodd" clip-rule="evenodd" d="M968.413 19.1259C847.043 -43.3437 684.99 30.0372 606.458 183.026C546.891 299.069 552.488 427.581 611.626 510.146L595.172 542.202C597.584 543.444 601.144 546.556 604.12 554.738C607.147 563.062 608.907 575.075 608.275 590.568C607.299 614.466 600.739 643.753 588.254 674.451L573.245 666.728L493.509 822.064L597.868 875.779L677.606 720.442L657.467 710.074C675.132 682.031 695.104 659.635 713.948 644.927C726.163 635.394 736.946 629.839 745.469 627.459C753.843 625.12 758.439 626.208 760.851 627.449L777.289 595.428C876.678 595.544 981.975 528.172 1042.24 416.363L1045.98 409.251C1123.9 257.455 1090.32 84.3195 971.24 20.6073L968.413 19.1259ZM659.188 557.977C666.162 562.972 673.496 567.55 681.191 571.667L684.023 573.151C692.736 577.636 701.661 581.414 710.747 584.52C700.716 589.493 690.898 595.88 681.488 603.224C673.415 609.524 665.392 616.727 657.527 624.723C659.439 613.674 660.616 602.958 661.034 592.726C661.521 580.777 660.993 569.05 659.188 557.977ZM684.726 223.312C750.168 95.8237 865.88 65.4349 928.181 97.5017C990.482 129.569 1033.15 241.477 967.709 368.965C902.267 496.454 786.555 526.842 724.254 494.776C661.953 462.708 619.284 350.801 684.726 223.312Z" fill="url(#paint2_linear_187_11044)"/>
<path fill-rule="evenodd" clip-rule="evenodd" d="M968.413 19.1259C847.043 -43.3437 684.99 30.0372 606.458 183.026C546.891 299.069 552.488 427.581 611.626 510.146L595.172 542.202C597.584 543.444 601.144 546.556 604.12 554.738C607.147 563.062 608.907 575.075 608.275 590.568C607.299 614.466 600.739 643.753 588.254 674.451L573.245 666.728L493.509 822.064L597.868 875.779L677.606 720.442L657.467 710.074C675.132 682.031 695.104 659.635 713.948 644.927C726.163 635.394 736.946 629.839 745.469 627.459C753.843 625.12 758.439 626.208 760.851 627.449L777.289 595.428C876.678 595.544 981.975 528.172 1042.24 416.363L1045.98 409.251C1123.9 257.455 1090.32 84.3195 971.24 20.6073L968.413 19.1259ZM659.188 557.977C666.162 562.972 673.496 567.55 681.191 571.667L684.023 573.151C692.736 577.636 701.661 581.414 710.747 584.52C700.716 589.493 690.898 595.88 681.488 603.224C673.415 609.524 665.392 616.727 657.527 624.723C659.439 613.674 660.616 602.958 661.034 592.726C661.521 580.777 660.993 569.05 659.188 557.977ZM684.726 223.312C750.168 95.8237 865.88 65.4349 928.181 97.5017C990.482 129.569 1033.15 241.477 967.709 368.965C902.267 496.454 786.555 526.842 724.254 494.776C661.953 462.708 619.284 350.801 684.726 223.312Z" fill="url(#paint3_linear_187_11044)"/>
<path d="M398.025 66.5825L511.454 180.163L624.882 66.5825L511.454 -47L398.025 66.5825Z" fill="#FA9500"/>
<path d="M398.025 66.5825L511.454 180.163L624.882 66.5825L511.454 -47L398.025 66.5825Z" fill="url(#paint4_linear_187_11044)"/>
<path d="M398.025 66.5825L511.454 180.163L624.882 66.5825L511.454 -47L398.025 66.5825Z" fill="url(#paint5_linear_187_11044)"/>
<defs>
<linearGradient id="paint0_linear_187_11044" x1="-1.43126e-05" y1="1046" x2="1092.99" y2="-41.9886" gradientUnits="userSpaceOnUse">
<stop stop-color="#FF1420"/>
<stop offset="1" stop-color="#F8C768"/>
</linearGradient>
<linearGradient id="paint1_linear_187_11044" x1="-72.8753" y1="1415.67" x2="987.719" y2="-116.088" gradientUnits="userSpaceOnUse">
<stop stop-color="#F8C768"/>
<stop offset="1" stop-color="#FF1420"/>
</linearGradient>
<linearGradient id="paint2_linear_187_11044" x1="-1.43126e-05" y1="1046" x2="1092.99" y2="-41.9886" gradientUnits="userSpaceOnUse">
<stop stop-color="#FF1420"/>
<stop offset="1" stop-color="#F8C768"/>
</linearGradient>
<linearGradient id="paint3_linear_187_11044" x1="-72.8753" y1="1415.67" x2="987.719" y2="-116.088" gradientUnits="userSpaceOnUse">
<stop stop-color="#F8C768"/>
<stop offset="1" stop-color="#FF1420"/>
</linearGradient>
<linearGradient id="paint4_linear_187_11044" x1="-1.43126e-05" y1="1046" x2="1092.99" y2="-41.9886" gradientUnits="userSpaceOnUse">
<stop stop-color="#FF1420"/>
<stop offset="1" stop-color="#F8C768"/>
</linearGradient>
<linearGradient id="paint5_linear_187_11044" x1="-72.8753" y1="1415.67" x2="987.719" y2="-116.088" gradientUnits="userSpaceOnUse">
<stop stop-color="#F8C768"/>
<stop offset="1" stop-color="#FF1420"/>
</linearGradient>
</defs>
</svg>
