<svg width="528" height="80" viewBox="0 0 528 80" fill="none" xmlns="http://www.w3.org/2000/svg">
<rect width="80" height="80" fill="#FA9500"/>
<path d="M62.619 40C62.619 37.1016 62.0717 34.3328 61.0841 31.7867C60.7819 33.5314 60.1765 35.2098 59.2913 36.7436C58.3091 38.4453 57.0042 39.9361 55.4503 41.1296C53.8964 42.3231 52.124 43.1963 50.235 43.7C48.3461 44.2035 46.3771 44.3279 44.4407 44.0651C44.1165 44.021 43.7948 43.9637 43.475 43.8984C43.9704 45.0822 44.6915 46.1701 45.6107 47.0961C47.4793 48.9782 50.0128 50.0364 52.6553 50.0364L53.1491 50.0242C55.6119 49.9012 57.9481 48.8607 59.7 47.0961C61.5685 45.2139 62.619 42.6618 62.619 40ZM35.0341 40.8944C33.815 40.7635 32.5699 40.8553 31.3634 41.1835C28.8017 41.8807 26.6189 43.5755 25.2967 45.893C23.9748 48.2105 23.6221 50.9624 24.3139 53.5428C24.8547 55.5594 26.0009 57.3403 27.5735 58.659C30.4203 60.6175 33.7381 61.9253 37.3207 62.3883C35.8187 61.2171 34.5381 59.757 33.5649 58.0709C31.5814 54.6342 31.0322 50.5444 32.0421 46.7016C32.6083 44.5473 33.6376 42.5686 35.0341 40.8944ZM38.4445 44.6458C37.7209 45.6406 37.178 46.7703 36.8585 47.9855C36.1867 50.5418 36.551 53.2635 37.8704 55.5495C39.19 57.8357 41.3579 59.5014 43.8958 60.1781C46.4331 60.8544 49.1334 60.4874 51.4026 59.1588C51.777 58.9396 52.1853 58.8286 52.5897 58.8182C54.4964 57.542 56.1961 55.9797 57.6323 54.1921C56.2777 54.6741 54.8526 54.9622 53.3973 55.035L52.6553 55.0546C48.6916 55.0546 44.8913 53.4674 42.0884 50.6441C40.4038 48.9472 39.1665 46.8865 38.4445 44.6458ZM43.7985 17.7098C44.9919 18.7673 46.0228 20.0167 46.8367 21.4269C48.8203 24.8636 49.3694 28.9532 48.3595 32.7962C47.7395 35.1551 46.5609 37.3001 44.9564 39.0689C45.0064 39.0765 45.0571 39.0866 45.1072 39.0934C46.3948 39.2681 47.7043 39.1856 48.9603 38.8509C50.2165 38.5159 51.3957 37.9341 52.4291 37.1406C53.4628 36.3466 54.3323 35.3543 54.9857 34.2223C55.639 33.0903 56.0649 31.8395 56.2385 30.5419C56.412 29.2444 56.3302 27.9239 55.9976 26.6582C55.665 25.3928 55.0877 24.2051 54.2997 23.1641C53.5116 22.1231 52.5262 21.2494 51.4026 20.5913C51.1718 20.4561 50.9711 20.2886 50.8018 20.0988C48.6533 18.9352 46.295 18.1155 43.7985 17.7098ZM36.5058 19.3221C34.5485 18.8003 32.4952 18.8996 30.6166 19.5818C27.555 21.0425 24.8753 23.1812 22.7669 25.8055C24.3514 25.2415 26.0337 24.9455 27.7462 24.9455C31.71 24.9455 35.5103 26.5327 38.3132 29.356C39.9103 30.9648 41.1073 32.9001 41.8428 35.0064C42.6239 33.9748 43.207 32.7908 43.5431 31.5122C44.2149 28.9558 43.8507 26.2344 42.5312 23.9482C41.2116 21.6621 39.0436 19.9988 36.5058 19.3221ZM17.7826 40C17.7826 42.8398 18.3068 45.5556 19.2567 48.059C19.5676 46.433 20.1443 44.8541 20.9789 43.3912C22.9595 39.9202 26.2275 37.3835 30.0644 36.3393C32.3263 35.724 34.6771 35.6592 36.9315 36.1163C36.4359 34.9271 35.7138 33.8337 34.7908 32.904C32.9223 31.0218 30.3888 29.9637 27.7462 29.9637C25.1037 29.9637 22.5702 31.0218 20.7016 32.904C18.8331 34.7862 17.7826 37.3382 17.7826 40ZM67.6008 40C67.6008 55.2431 55.3334 67.6001 40.2008 67.6001C35.4604 67.6001 31.0028 66.3845 27.1138 64.2505C26.9062 64.1954 26.7007 64.1183 26.5057 64.0055C25.8062 63.6006 25.1463 63.139 24.528 62.6333C17.4406 57.6443 12.8008 49.3704 12.8008 40C12.8008 30.0017 18.0777 21.2435 25.9802 16.4013C26.1301 16.2498 26.3013 16.1146 26.4935 16.0019C27.2105 15.5821 27.9582 15.2295 28.7241 14.9385C32.2159 13.3134 36.1017 12.4 40.2008 12.4C55.3334 12.4 67.6008 24.757 67.6008 40Z" fill="#FFF9F2"/>
<rect width="80" height="80" transform="translate(88)" fill="#F7C667"/>
<path fill-rule="evenodd" clip-rule="evenodd" d="M123 21.0723C135.482 21.0723 145.6 31.1908 145.6 43.6724C145.6 56.154 135.482 66.2724 123 66.2724C110.519 66.2724 100.4 56.154 100.4 43.6724C100.4 31.1907 110.519 21.0723 123 21.0723ZM105.664 44.8277C106.237 53.5439 113.236 60.5039 121.968 61.0155C121.52 52.4387 114.386 45.2745 105.664 44.8277ZM117.248 27.2732C111.76 29.1983 107.531 33.8007 106.128 39.514C117.245 40.1895 126.481 49.28 127.159 60.5444C133.948 58.8768 139.167 53.2203 140.191 46.2008C129.028 46.7887 119.048 38.4256 117.248 27.2732ZM123 26.2978C122.797 26.2978 122.594 26.3021 122.393 26.3091C123.739 35.0915 131.641 41.5375 140.164 40.9605C138.861 32.653 131.674 26.2978 123 26.2978Z" fill="#FFF9F2"/>
<path d="M164.142 18.5605L148.637 33.2734L144.974 29.514L160.479 14.8004L164.142 18.5605Z" fill="#FFF9F2"/>
<path d="M150.809 20.0354L143.057 27.3922L139.394 23.6327L147.146 16.2759L150.809 20.0354Z" fill="#FFF9F2"/>
<path d="M141.357 17.8266L137.481 21.505L133.818 17.7449L137.694 14.0665L141.357 17.8266Z" fill="#FFF9F2"/>
<rect width="80" height="80" transform="translate(176)" fill="#FF06D5"/>
<path fill-rule="evenodd" clip-rule="evenodd" d="M219.734 34.8185C222.618 25.7991 230.764 20.3444 237.929 22.6352L238.096 22.6902C245.148 25.0694 248.542 34.1655 245.681 43.1146L245.542 43.5348C243.278 50.153 238.163 54.7658 232.757 55.6607L232.153 57.5505C232.01 57.505 231.751 57.4873 231.317 57.6902C230.875 57.8967 230.339 58.2965 229.761 58.9248C228.87 59.8938 227.988 61.2902 227.282 62.9719L228.474 63.3531L225.546 72.5109L219.385 70.5412L222.313 61.3834L223.198 61.6663C223.599 59.8865 223.691 58.2371 223.528 56.9308C223.422 56.0839 223.217 55.4478 222.977 55.0233C222.741 54.606 222.519 54.4693 222.377 54.4237L222.98 52.5351C219.015 48.5888 217.546 41.6608 219.734 34.8185ZM225.999 54.7001C226.198 55.285 226.334 55.9166 226.415 56.5698C226.485 57.1279 226.517 57.719 226.514 58.3347C226.868 57.8312 227.237 57.3691 227.618 56.9551C228.064 56.4699 228.542 56.0335 229.043 55.672C228.521 55.5858 228 55.4625 227.485 55.2979L227.318 55.2429C226.863 55.0893 226.423 54.9078 225.999 54.7001ZM236.451 27.2558C232.774 26.0799 226.758 28.7799 224.355 36.2958C221.951 43.8118 225.285 49.5011 228.963 50.6773C232.641 51.8532 238.657 49.1534 241.06 41.6373C243.463 34.1212 240.129 28.4318 236.451 27.2558Z" fill="#FFF9F2"/>
<path fill-rule="evenodd" clip-rule="evenodd" d="M193.315 15.9827C200.005 12.5438 208.938 16.5836 213.267 25.0055C216.551 31.3947 216.241 38.4702 212.98 43.0151L213.886 44.7777C213.753 44.8461 213.557 45.0175 213.393 45.4678C213.226 45.926 213.129 46.5871 213.164 47.4398C213.217 48.7553 213.58 50.3671 214.268 52.0569L215.094 51.6325L219.489 60.1837L213.737 63.1406L209.341 54.5895L210.453 54.0177C209.479 52.4746 208.379 51.2416 207.341 50.4323C206.668 49.9075 206.073 49.6021 205.603 49.4711C205.142 49.3424 204.889 49.4022 204.756 49.4705L203.848 47.7062C198.37 47.7118 192.567 44.0043 189.246 37.85L189.039 37.4588C184.744 29.1026 186.595 19.5717 193.159 16.0644L193.315 15.9827ZM210.357 45.6477C209.974 45.9219 209.57 46.1733 209.147 46.3994L208.991 46.481C208.51 46.7282 208.017 46.9356 207.516 47.1066C208.069 47.3805 208.611 47.7319 209.13 48.1365C209.575 48.4828 210.016 48.8791 210.449 49.3184C210.344 48.7108 210.278 48.1215 210.255 47.5588C210.228 46.9016 210.258 46.2568 210.357 45.6477ZM208.953 27.2232C205.345 20.2051 198.967 18.5321 195.532 20.2973C192.098 22.0627 189.746 28.2231 193.354 35.2411C196.961 42.2589 203.339 43.932 206.773 42.167C210.208 40.4018 212.56 34.2413 208.953 27.2232Z" fill="#FFF9F2"/>
<path d="M224.753 18.5951L218.5 24.8475L212.248 18.5951L218.5 12.3428L224.753 18.5951Z" fill="#FFF9F2"/>
<rect width="80" height="80" transform="translate(264)" fill="#A8C7E4"/>
<path fill-rule="evenodd" clip-rule="evenodd" d="M323.352 34.1743L317.901 35.2917L318.358 36.144C319.509 35.7906 320.732 35.6001 322 35.6001C328.848 35.6002 334.4 41.1518 334.4 48.0001C334.4 54.8483 328.848 60.4 322 60.4C315.152 60.4 309.6 54.8483 309.6 48.0001C309.6 44.086 311.413 40.5958 314.246 38.3232L313.144 36.2665L311.023 36.7009C310.331 41.1285 308.07 44.3215 305.465 46.4873C303.061 48.4859 300.347 49.6321 298.211 50.1633C297.187 55.9802 292.11 60.4 286 60.4C279.151 60.4 273.6 54.8483 273.6 48.0001C273.6 41.1518 279.151 35.6001 286 35.6001C289.325 35.6001 292.345 36.9093 294.572 39.0406L290.797 29.0737L286.639 28.6499L287.195 23.193L300.837 24.5839L300.281 30.0408L295.924 29.5963L297.855 34.6951L318.907 30.3793L319.181 24.2098H311.451V19.5999H324L323.352 34.1743ZM286 40.1923C281.688 40.1924 278.192 43.6882 278.192 48.0001C278.192 52.3119 281.688 55.8072 286 55.8072C289.474 55.8072 292.418 53.5376 293.431 50.4H287.6V46.0002H293.548C292.665 42.6572 289.62 40.1923 286 40.1923ZM322 40.1923C321.52 40.1923 321.051 40.2356 320.595 40.3184L323.6 45.9215L319.434 48.0001L316.476 42.4822C315.065 43.8948 314.192 45.8456 314.192 48.0001C314.192 52.3119 317.688 55.8072 322 55.8072C326.312 55.8072 329.807 52.3119 329.807 48.0001C329.807 43.6882 326.312 40.1924 322 40.1923ZM295.393 39.9058C296.74 41.4676 297.704 43.3684 298.14 45.4634C299.559 44.9911 301.231 44.1772 302.725 42.935C304.259 41.6594 305.59 39.9508 306.303 37.6686L295.393 39.9058Z" fill="#FFF9F2"/>
<rect width="80" height="80" transform="translate(352)" fill="#FE131F"/>
<path fill-rule="evenodd" clip-rule="evenodd" d="M377.114 14.8015C377.775 14.7852 378.431 14.9046 379.043 15.1531C379.648 15.3989 380.196 15.7675 380.655 16.232L380.657 16.2297L385.052 20.6277C385.11 20.6732 385.168 20.7215 385.222 20.7733C385.303 20.85 385.375 20.9324 385.442 21.0172L398.101 33.6882C398.137 33.7202 398.174 33.7521 398.209 33.7865C398.243 33.821 398.275 33.8578 398.307 33.8942L415.763 51.3658C416.226 51.8173 416.591 52.3569 416.838 52.9549C417.093 53.5698 417.216 54.2327 417.199 54.898C417.182 55.5628 417.027 56.2169 416.743 56.818C416.458 57.4191 416.051 57.955 415.548 58.3893C415.534 58.401 415.519 58.4118 415.505 58.4231C409.789 63.1217 402.528 65.5254 395.138 65.1649C387.748 64.8041 380.757 61.7058 375.526 56.4735C370.294 51.2407 367.197 44.2467 366.836 36.8553C366.476 29.4641 368.879 22.2041 373.576 16.4871L373.63 16.422C374.068 15.927 374.604 15.5279 375.203 15.249C375.803 14.9701 376.454 14.8179 377.114 14.8015ZM377.229 19.3831C377.197 19.3839 377.165 19.3923 377.137 19.4056C377.112 19.417 377.091 19.4337 377.072 19.4529C373.127 24.2819 371.109 30.403 371.412 36.6333C371.718 42.8873 374.339 48.805 378.766 53.2325C383.193 57.6599 389.109 60.2799 395.362 60.5851C401.6 60.8894 407.726 58.8656 412.558 54.9092C412.574 54.8935 412.59 54.8762 412.6 54.8554C412.611 54.8324 412.617 54.8067 412.618 54.7814C412.618 54.7561 412.615 54.7308 412.605 54.7074C412.595 54.6839 412.581 54.6622 412.562 54.6447C412.549 54.6321 412.535 54.6197 412.522 54.6068L409.405 51.4865C405.755 54.2639 401.265 55.7645 396.637 55.7011C391.26 55.6272 386.124 53.4538 382.324 49.647C378.525 45.84 376.362 40.6987 376.298 35.32C376.243 30.6991 377.744 26.2193 380.518 22.5773L377.397 19.4529C377.375 19.4308 377.349 19.4133 377.32 19.4014C377.291 19.3897 377.26 19.3825 377.229 19.3831ZM398.88 50.9941C401.488 50.673 403.978 49.7181 406.128 48.21L398.88 40.9533V50.9941ZM387.314 47.9212C389.37 49.459 391.765 50.4801 394.296 50.9V40.9402L387.314 47.9212ZM381.098 37.6992C381.517 40.2299 382.537 42.6244 384.074 44.6802L391.056 37.6992H381.098ZM383.792 25.8538C382.281 28.0067 381.326 30.5021 381.004 33.1153H391.047L383.792 25.8538Z" fill="#FFF9F2"/>
<rect width="80" height="80" transform="translate(440)" fill="#5D7B3D"/>
<path fill-rule="evenodd" clip-rule="evenodd" d="M496.217 15.7302C496.217 21.1271 500.806 25.7857 506.4 25.7858V31.7298C503.012 31.7298 499.824 30.6308 497.199 28.7634C498.838 32.1512 502.356 34.586 506.4 34.5861V40.5301C503.012 40.5301 499.824 39.4311 497.199 37.5637C498.838 40.9514 502.356 43.3857 506.4 43.3858V49.3298C502.838 49.3298 499.498 48.1145 496.8 46.0693V56.1297H490V45.7633C487.235 47.9971 483.74 49.3369 480 49.3369V49.3298C476.612 49.3298 473.424 48.231 470.798 46.3634C472.438 49.7513 475.956 52.1855 480 52.1855V58.1301C476.438 58.1301 473.098 56.9147 470.4 54.8696V64.93H463.6V54.5636C460.836 56.7974 457.34 58.1372 453.6 58.1372V52.1926C457.643 52.1926 461.161 49.7582 462.801 46.3705C460.175 48.2378 456.988 49.3369 453.6 49.3369V43.3929C457.643 43.3929 461.161 40.9584 462.801 37.5708C460.175 39.4381 456.988 40.5372 453.6 40.5372V34.5926C459.193 34.5926 463.783 29.9341 463.783 24.537H464C464 24.5346 464 24.5322 464 24.5299H469.817C469.817 29.927 474.406 34.5861 480 34.5861V34.5926C484.043 34.5926 487.561 32.1583 489.201 28.7705C486.576 30.6379 483.388 31.7369 480 31.7369V25.7929C485.594 25.7929 490.183 21.1342 490.183 15.7373H490.4C490.4 15.7349 490.4 15.7325 490.4 15.7302H496.217ZM470.799 37.5637C472.439 40.9514 475.957 43.3858 480 43.3858V43.3929C484.043 43.3929 487.56 40.9583 489.2 37.5708C486.575 39.438 483.388 40.5372 480 40.5372V40.5301C476.612 40.5301 473.424 39.431 470.799 37.5637Z" fill="#FFF9F2"/>
</svg>
