<svg width="1610" height="432" viewBox="0 0 1610 432" fill="none" xmlns="http://www.w3.org/2000/svg">
<path d="M431.207 0H0V431.207H431.207V0Z" fill="url(#paint0_linear_25_1393)"/>
<path d="M361.293 219.047C375.311 175.157 355.864 141.935 334.409 135.068C312.955 128.201 277.862 143.967 263.843 187.856C249.825 231.746 269.272 264.968 290.727 271.835L282.109 298.817L281.132 298.497C239.998 284.603 220.2 231.487 236.89 179.23C253.712 126.561 301.232 94.7089 343.027 108.086L344.002 108.406C385.137 122.299 404.936 175.416 388.246 227.674L387.435 230.127C369.941 281.327 323.252 311.986 282.109 298.817L290.727 271.835C312.181 278.702 347.274 262.937 361.293 219.047Z" fill="#FFF9F2"/>
<path d="M83.0048 181.696C61.9623 140.715 75.682 104.742 95.7149 94.4335C115.748 84.1255 152.954 93.8943 173.997 134.876C195.04 175.858 181.32 211.831 161.287 222.139L174.223 247.333L175.134 246.856C213.423 226.375 224.219 170.721 199.165 121.926C173.913 72.7469 121.805 49.1584 82.7786 69.2395L81.8693 69.7157C43.58 90.1962 32.7829 145.851 57.8374 194.646L59.0403 196.933C84.714 244.552 135.807 267.1 174.223 247.333L161.287 222.139C141.254 232.447 104.048 222.678 83.0048 181.696Z" fill="#FFF9F2"/>
<path d="M309.333 311.97C308.503 311.704 306.988 311.603 304.455 312.788C301.878 313.994 298.752 316.327 295.381 319.997C288.653 327.323 282.005 338.83 277.567 352.725L261.395 347.548C266.43 331.786 274.173 317.976 282.882 308.493C287.23 303.759 292.084 299.814 297.264 297.39C302.488 294.945 308.507 293.862 314.504 295.781L309.333 311.97Z" fill="#FFF9F2"/>
<path d="M257.477 277.524C263.474 279.443 267.749 283.822 270.587 288.847C273.401 293.83 275.068 299.862 275.866 306.243C277.464 319.025 275.768 334.77 270.733 350.533L254.561 345.357C258.999 331.462 260.253 318.228 259.018 308.354C258.4 303.408 257.207 299.692 255.807 297.213C254.431 294.776 253.137 293.979 252.306 293.713L257.477 277.524Z" fill="#FFF9F2"/>
<path d="M149.519 264.787C150.295 264.388 151.772 264.039 154.465 264.791C157.205 265.556 160.672 267.342 164.6 270.406C172.441 276.524 180.891 286.779 187.552 299.753L202.653 291.983C195.095 277.264 185.187 264.919 175.038 257C169.971 253.047 164.534 249.955 159.027 248.418C153.472 246.867 147.356 246.79 141.757 249.671L149.519 264.787Z" fill="#FFF9F2"/>
<path d="M195.017 222.268C189.418 225.15 185.921 230.173 183.948 235.597C181.991 240.975 181.339 247.2 181.601 253.626C182.126 266.496 186.388 281.748 193.945 296.466L209.045 288.696C202.384 275.722 198.971 262.875 198.565 252.932C198.362 247.951 198.928 244.09 199.901 241.414C200.858 238.784 202.003 237.784 202.779 237.385L195.017 222.268Z" fill="#FFF9F2"/>
<path d="M266.165 84.4946L229.692 121.006L193.219 84.4946L229.692 47.9833L266.165 84.4946Z" fill="#FFF9F2"/>
<path d="M287.875 345.856L270.795 399.333L234.857 387.83L251.937 334.353L287.875 345.856Z" fill="#FFF9F2"/>
<path d="M176.268 294.681L201.907 344.615L235.464 327.348L209.825 277.415L176.268 294.681Z" fill="#FFF9F2"/>
<path d="M915.768 362.067L915.196 361.583C909.105 356.443 900.955 354.142 891.281 354.142H829.59V430.127H852.398V410.659H891.004C895.884 410.659 900.366 410.088 904.398 408.894C908.43 407.7 912.012 405.866 915.075 403.322C921.322 398.148 924.333 391.035 924.333 382.487C924.333 373.938 921.547 367.207 915.768 362.067ZM898.688 388.665C896.975 390.032 893.946 391.053 888.876 391.053H852.398V373.8H888.876C893.946 373.8 896.975 374.821 898.688 376.171C900.245 377.382 901.249 379.251 901.249 382.487C901.249 385.723 900.262 387.436 898.688 388.665Z" fill="#FFF9F2"/>
<path d="M594.747 1.03857V77.0238H571.94V20.6968H529.785C529.335 33.7965 528.522 43.7121 527.294 50.2533C525.961 57.2963 523.469 63.2146 519.541 67.7484H519.524V67.783C516.409 71.2613 512.74 73.8224 508.518 75.3971H508.501C504.382 76.9372 499.312 77.6814 493.497 77.7679L489.535 77.8371L487.683 58.0751L491.992 57.7117C494.709 57.4867 496.82 57.0022 498.412 56.3619H498.429C499.831 55.7908 500.938 54.9429 501.856 53.7316V53.697H501.873C503.396 51.6896 504.693 48.4536 505.42 43.5218C506.164 38.5034 506.718 29.8337 507.064 17.3224L507.566 1.03857H594.765H594.747Z" fill="#FFF9F2"/>
<path d="M817.633 375.6C815.071 370.737 811.23 366.532 806.159 363.071C796.209 356.253 782.556 353.104 765.701 353.104C748.846 353.104 736.058 356.063 726.194 362.448L725.242 363.071C715.119 369.993 709.98 379.909 709.98 392.316C709.98 404.724 715.171 414.432 725.312 421.336C735.296 428.103 748.933 431.217 765.701 431.217C782.469 431.217 796.192 428.103 806.142 421.354H806.159C816.3 414.432 821.474 404.568 821.474 392.23C821.474 386.035 820.194 380.48 817.633 375.6ZM790.931 406.178C785.705 409.569 777.485 411.559 765.701 411.559C759.817 411.559 754.816 411.057 750.646 410.158C746.458 409.24 743.101 407.908 740.488 406.229C735.504 402.993 733.081 398.529 733.081 392.316C733.081 386.104 735.521 381.449 740.505 378.178C745.731 374.735 753.934 372.71 765.701 372.71C777.468 372.71 785.688 374.735 790.914 378.178H790.931C795.95 381.449 798.39 385.948 798.39 392.23C798.39 398.512 795.95 402.907 790.931 406.178Z" fill="#FFF9F2"/>
<path d="M701.933 354.142V430.127H679.125V373.8H625.048V430.127H602.24V354.142H701.933Z" fill="#FFF9F2"/>
<path d="M958.251 312.42H918.883L869.98 282.119V312.42H847.276V236.435H869.98V265.334L918.364 236.435H957.438L895.158 272.982L958.251 312.42Z" fill="#FFF9F2"/>
<path d="M952.852 55.4966H929.387V77.041H952.852V55.4966Z" fill="#FFF9F2"/>
<path d="M697.693 57.9712V77.0238H607.466V1.03857H696.949V20.1257H629.893V28.6743H690.65V47.7268H629.893V57.9712H697.693Z" fill="#FFF9F2"/>
<path d="M808.201 1.03857V20.6968H769.214V77.0238H746.406V20.6968H707.488V1.03857H808.201Z" fill="#FFF9F2"/>
<path d="M920.492 22.4962C917.931 17.6162 914.089 13.4285 909.019 9.96754C899.069 3.14947 885.415 0 868.578 0C851.74 0 838.917 2.95911 829.054 9.34457L828.119 9.96754C817.996 16.8894 812.856 26.8051 812.856 39.2126C812.856 51.6201 818.031 61.3281 828.171 68.2327H828.188C838.156 74.9988 851.792 78.1137 868.578 78.1137C885.363 78.1137 899.069 74.9988 909.019 68.25C919.177 61.3281 924.334 51.4643 924.334 39.1261C924.334 32.9483 923.053 27.3761 920.492 22.4962ZM893.791 53.0737C888.565 56.4654 880.345 58.4555 868.578 58.4555C862.694 58.4555 857.693 57.9709 853.523 57.0538C849.335 56.1366 845.978 54.8042 843.347 53.1256C838.364 49.8896 835.941 45.425 835.941 39.2126C835.941 33.0002 838.381 28.3452 843.365 25.0746C848.608 21.6309 856.811 19.6063 868.578 19.6063C880.345 19.6063 888.547 21.6309 893.773 25.0746H893.791C898.809 28.3452 901.249 32.8444 901.249 39.1261C901.249 45.4077 898.826 49.8031 893.791 53.0737Z" fill="#FFF9F2"/>
<path d="M1006.22 173.324H982.754V194.851H1006.22V173.324Z" fill="#FFF9F2"/>
<path d="M977.477 194.731H944.009L942.833 193.779L906.596 164.482V194.731H883.841V164.621L846.324 194.731H812.891L862.781 154.688L813.601 118.746H847.362L883.841 146.139V118.746H906.596V146.087L943.369 118.746H977.356L927.743 154.532L977.477 194.731Z" fill="#FFF9F2"/>
<path d="M744.416 118.746C735.521 118.746 727.942 120.857 722.179 125.598C716.313 130.409 713.475 137.037 713.475 144.98C713.475 148.873 714.219 152.455 715.69 155.639C717.178 158.841 719.411 161.661 722.37 164.032C725.831 166.784 729.932 168.635 734.552 169.708L704.857 194.731H736.49L764.178 171.214H785.324V194.731H808.132V118.746H744.416ZM785.324 152.351H746.718C742.668 152.351 740.228 151.469 738.792 150.309C737.494 149.254 736.664 147.714 736.664 144.98C736.664 142.245 737.477 140.826 738.757 139.805H738.792C740.228 138.629 742.668 137.729 746.718 137.729H785.324V152.351Z" fill="#FFF9F2"/>
<path d="M701.396 118.746V194.731H678.589V138.387H636.434C635.984 151.504 635.171 161.419 633.942 167.96C632.627 174.986 630.118 180.922 626.19 185.438V185.473L626.155 185.49C623.058 188.951 619.372 191.512 615.149 193.087C611.014 194.644 605.961 195.371 600.129 195.475L596.166 195.544L594.314 175.765L598.623 175.419C601.34 175.194 603.451 174.709 605.043 174.069H605.061C606.462 173.498 607.57 172.65 608.487 171.439V171.404L608.504 171.387C610.027 169.397 611.325 166.161 612.052 161.229C612.796 156.21 613.35 147.541 613.696 135.029L614.215 118.746H701.396Z" fill="#FFF9F2"/>
<path d="M587.358 118.746V194.731H564.551V138.387H510.491V194.731H487.683V118.746H587.358Z" fill="#FFF9F2"/>
<path d="M721.903 257.876C719.341 252.996 715.517 248.808 710.447 245.347C700.479 238.529 686.826 235.379 669.988 235.379C653.151 235.379 640.345 238.338 630.482 244.724L629.53 245.347C619.406 252.269 614.267 262.184 614.267 274.592C614.267 286.999 619.458 296.707 629.582 303.612H629.599C639.584 310.378 653.203 313.493 669.988 313.493C686.774 313.493 700.479 310.378 710.429 303.629H710.447C720.587 296.707 725.762 286.844 725.762 274.505C725.762 268.328 724.464 262.756 721.903 257.876ZM695.219 288.453C689.975 291.845 681.773 293.835 669.988 293.835C658.204 293.835 650.001 291.862 644.758 288.505C639.774 285.252 637.369 280.804 637.369 274.592C637.369 268.38 639.809 263.725 644.793 260.454C650.019 257.01 658.221 254.986 669.988 254.986C681.756 254.986 689.958 257.01 695.184 260.454H695.219C700.237 263.725 702.677 268.224 702.677 274.505C702.677 280.787 700.237 285.182 695.219 288.453Z" fill="#FFF9F2"/>
<path d="M607.293 236.435V312.42H584.866V268.777L555.639 302.123H539.441L510.11 269.054V312.42H487.683V236.435H508.622L547.713 279.852L586.424 236.435H607.293Z" fill="#FFF9F2"/>
<path d="M816.387 277.88L839.817 282.466L838.606 286.913C836.149 296.015 830.144 302.781 821.128 307.177H821.111C812.285 311.486 800.778 313.493 786.899 313.493C770.356 313.493 756.91 310.344 747.081 303.56C737.062 296.586 731.974 286.723 731.974 274.402C731.974 262.081 737.114 252.303 747.185 245.347C757.066 238.529 770.46 235.379 786.899 235.379C800.57 235.379 812.009 237.369 820.903 241.626C829.936 245.953 836.045 252.528 838.589 261.371L839.886 265.853L816.473 270.508L815.314 266.857C813.099 259.9 805.19 254.986 786.899 254.986C775.461 254.986 767.466 256.976 762.327 260.385H762.309C757.464 263.603 755.059 268.085 755.059 274.402C755.059 280.718 757.464 285.269 762.275 288.47L762.759 288.782C767.881 291.966 775.738 293.835 786.899 293.835C796.261 293.835 803.097 292.589 807.734 290.426C812.216 288.332 814.535 285.477 815.418 281.86L816.387 277.88Z" fill="#FFF9F2"/>
<path d="M1049.33 257.876C1046.76 252.996 1042.94 248.808 1037.85 245.347C1027.9 238.529 1014.25 235.379 997.412 235.379C980.574 235.379 967.769 238.338 957.888 244.724L956.953 245.347C946.83 252.269 941.69 262.184 941.69 274.592C941.69 286.999 946.864 296.707 957.005 303.612H957.022C966.99 310.378 980.626 313.493 997.412 313.493C1014.2 313.493 1027.9 310.378 1037.85 303.629C1048.01 296.707 1053.18 286.844 1053.18 274.505C1053.18 268.328 1051.89 262.756 1049.33 257.876ZM1022.64 288.453C1017.4 291.845 1009.18 293.835 997.412 293.835C991.528 293.835 986.527 293.35 982.356 292.433C978.169 291.516 974.794 290.184 972.181 288.505C967.198 285.269 964.775 280.804 964.775 274.592C964.775 268.38 967.215 263.725 972.216 260.454C977.442 257.01 985.644 254.986 997.412 254.986C1009.18 254.986 1017.38 257.01 1022.61 260.454C1027.63 263.725 1030.07 268.224 1030.07 274.505C1030.07 280.787 1027.64 285.182 1022.62 288.453H1022.64Z" fill="#FFF9F2"/>
<path d="M1158.09 282.586C1157.24 280.302 1155.96 278.226 1154.23 276.357C1152.84 274.868 1151.23 273.605 1149.43 272.55C1150.35 271.736 1151.2 270.819 1151.93 269.815C1154.56 266.303 1155.87 262.236 1155.87 257.789C1155.87 251.092 1153.14 245.572 1147.72 241.73C1142.53 238.044 1135.73 236.435 1127.8 236.435H1059.95V312.42H1129.72C1138.38 312.42 1145.68 310.759 1151.06 306.848H1151.08C1156.62 302.781 1159.35 296.967 1159.35 289.941C1159.35 287.328 1158.93 284.871 1158.09 282.586ZM1082.48 254.916H1125.03C1128.67 254.916 1130.61 255.608 1131.56 256.335C1132.28 256.872 1132.87 257.737 1132.87 259.71C1132.87 261.544 1132.3 262.478 1131.42 263.153C1130.31 263.984 1128.44 264.641 1125.31 264.641H1082.48V254.916ZM1134.4 292.364C1133.31 293.16 1130.97 293.938 1126.63 293.938H1082.48V283.227H1126.44C1130.54 283.227 1132.91 283.988 1134.19 284.905L1134.26 284.957C1135.3 285.684 1135.94 286.688 1135.94 288.678C1135.94 290.668 1135.3 291.706 1134.4 292.364Z" fill="#FFF9F2"/>
<path d="M1250.75 277.915L1274.17 282.483L1272.97 286.93C1270.52 296.033 1264.51 302.799 1255.48 307.194C1251.06 309.34 1245.98 310.932 1240.27 311.97C1234.54 313.009 1228.21 313.51 1221.25 313.51C1204.71 313.51 1191.28 310.378 1181.45 303.577H1181.43C1171.41 296.604 1166.34 286.74 1166.34 274.436C1166.34 262.133 1171.46 252.321 1181.53 245.382C1191.42 238.546 1204.83 235.397 1221.25 235.397C1234.94 235.397 1246.36 237.387 1255.27 241.644C1264.3 245.97 1270.39 252.546 1272.96 261.388L1274.25 265.87L1250.82 270.543L1249.66 266.874C1247.47 259.918 1239.54 255.02 1221.25 255.02C1209.81 255.02 1201.82 257.01 1196.68 260.402C1191.83 263.621 1189.43 268.103 1189.43 274.436C1189.43 280.77 1191.83 285.286 1196.62 288.488L1197.11 288.799C1202.23 291.983 1210.1 293.852 1221.25 293.852C1230.63 293.852 1237.46 292.606 1242.1 290.443C1246.57 288.367 1248.9 285.494 1249.78 281.877L1250.75 277.915Z" fill="#FFF9F2"/>
<path d="M1393.33 312.42H1353.94L1305.04 282.119V312.42H1282.33V236.435H1305.04V265.334L1353.42 236.435H1392.5L1330.23 272.982L1393.33 312.42Z" fill="#FFF9F2"/>
<path d="M1499.72 236.435V312.42H1477.1V265.334L1420.6 311.451L1419.42 312.42H1399.56V236.435H1422.17V283.59L1479.85 236.435H1499.72Z" fill="#FFF9F2"/>
<path d="M1592.47 215.462V219.753C1592.47 226.9 1589.34 232.68 1583.39 236.694C1580.51 238.633 1577.19 240 1573.47 240.9C1569.73 241.799 1565.61 242.215 1561.15 242.215C1552.22 242.215 1544.66 240.553 1538.93 236.694H1538.91C1532.98 232.68 1529.88 226.883 1529.88 219.753V215.462H1551.29V219.753C1551.29 221.259 1551.8 222.28 1553.14 223.197L1553.45 223.387C1555.04 224.339 1557.5 225.014 1561.15 225.014C1565.04 225.014 1567.55 224.252 1569.09 223.197H1569.13C1570.51 222.262 1571.03 221.241 1571.03 219.753V215.462H1592.47Z" fill="#FFF9F2"/>
<path d="M1610 236.435V312.42H1587.38V265.351L1530.9 311.468L1529.71 312.42H1509.86V236.435H1532.47V283.59L1590.13 236.435H1610Z" fill="#FFF9F2"/>
<path d="M1047.82 408.583H1024.35V430.127H1047.82V408.583Z" fill="#FFF9F2"/>
<path d="M1030.72 354V373.658H991.736V429.985H968.928V373.658H929.992V354H1030.72Z" fill="#FFF9F2"/>
<path d="M570.659 395.604L594.072 400.19L592.878 404.637C590.421 413.74 584.416 420.506 575.383 424.901C570.97 427.047 565.883 428.639 560.172 429.677C554.462 430.716 548.094 431.217 541.154 431.217C524.611 431.217 511.183 428.085 501.353 421.285C491.334 414.311 486.264 404.447 486.264 392.143C486.264 379.84 491.386 370.028 501.457 363.071C511.338 356.253 524.749 353.104 541.172 353.104C554.86 353.104 566.281 355.094 575.193 359.351C584.226 363.677 590.317 370.253 592.878 379.096L594.176 383.577L570.746 388.25L569.586 384.581C567.388 377.625 559.463 372.71 541.172 372.71C529.733 372.71 521.738 374.7 516.599 378.109C511.754 381.328 509.348 385.81 509.348 392.143C509.348 398.477 511.736 402.993 516.547 406.195L517.032 406.506C522.154 409.69 530.027 411.559 541.172 411.559C550.551 411.559 557.386 410.313 562.024 408.15C566.489 406.056 568.825 403.201 569.707 399.584L570.676 395.604H570.659Z" fill="#FFF9F2"/>
<defs>
<linearGradient id="paint0_linear_25_1393" x1="215.604" y1="0" x2="215.604" y2="431.207" gradientUnits="userSpaceOnUse">
<stop offset="0.100962" stop-color="#F7C667"/>
<stop offset="1" stop-color="#FE131F"/>
</linearGradient>
</defs>
</svg>
