<svg width="38" height="38" viewBox="0 0 38 38" fill="none" xmlns="http://www.w3.org/2000/svg">
<path d="M36.0052 9.08751C36.0051 5.17038 32.8299 1.99496 28.9135 1.99477H9.08751C5.1709 1.99477 1.99488 5.17026 1.99477 9.08751V28.9125C1.99477 32.8299 5.17083 36.0052 9.08751 36.0052H28.9135C32.83 36.005 36.0052 32.8298 36.0052 28.9125V9.08751ZM38 28.9125C38 33.9314 33.9317 37.9998 28.9135 38H9.08751C4.0691 38 0 33.9315 0 28.9125V9.08751C0.000112585 4.06862 4.06918 0 9.08751 0H28.9135C33.9316 0.000190221 37.9999 4.06874 38 9.08751V28.9125Z" fill="#FFF9F2"/>
<path d="M23.9243 18.085H12.7275V13.6541H23.9243C24.579 13.6541 25.0338 13.7681 25.2622 13.9672C25.4896 14.1663 25.6317 14.5356 25.6317 15.0749V16.6659C25.6317 17.2342 25.4896 17.6035 25.2622 17.8025C25.0338 18.0016 24.579 18.0867 23.9243 18.0867V18.085ZM24.6927 9.4768H20.5142H16.3356H7.97852V28.4254H12.7275V22.2607H21.4787L25.6317 28.4254H30.9492L26.3708 22.2317C28.0583 21.9816 28.8163 21.4643 29.4417 20.6118C30.067 19.7593 30.3797 18.3964 30.3797 16.5774V15.1566C30.3797 14.0778 30.266 13.2254 30.067 12.572C29.8671 11.9186 29.5269 11.3502 29.0428 10.8397C28.532 10.3565 27.9635 10.0162 27.2804 9.78816C26.5972 9.58908 25.7435 9.4751 24.6927 9.4751V9.4768Z" fill="#FFF9F2"/>
<path d="M26.9023 0.997559C32.4251 0.99759 36.9022 5.47488 36.9023 10.9976V18.8901C35.3161 18.7649 33.7843 18.4456 32.3311 17.9536C32.3718 17.5033 32.3906 17.0423 32.3906 16.5776V15.1567C32.3906 13.9505 32.265 12.8869 31.9902 11.9858C31.6927 11.0141 31.1841 10.1776 30.502 9.45752L30.4639 9.41748L30.4248 9.38037C29.6971 8.69274 28.873 8.20158 27.916 7.88232L27.8799 7.86963L27.8428 7.85889C26.9333 7.59358 25.8814 7.46536 24.6934 7.46533H22.6836V7.46729H20.9922C20.1328 5.46502 19.6089 3.28497 19.4902 0.997559H26.9023Z" fill="#FFF9F2"/>
</svg>
