<svg width="36" height="36" viewBox="0 0 36 36" fill="none" xmlns="http://www.w3.org/2000/svg">
<rect width="36" height="36" rx="18" fill="#F7C667"/>
<path d="M10 21C9.71667 21 9.47934 20.904 9.288 20.712C9.09667 20.52 9.00067 20.2827 9 20C8.99934 19.7173 9.09534 19.48 9.288 19.288C9.48067 19.096 9.718 19 10 19H26C26.2833 19 26.521 19.096 26.713 19.288C26.905 19.48 27.0007 19.7173 27 20C26.9993 20.2827 26.9033 20.5203 26.712 20.713C26.5207 20.9057 26.2833 21.0013 26 21H10ZM10 16C9.71667 16 9.47934 15.904 9.288 15.712C9.09667 15.52 9.00067 15.2827 9 15C8.99934 14.7173 9.09534 14.48 9.288 14.288C9.48067 14.096 9.718 14 10 14H26C26.2833 14 26.521 14.096 26.713 14.288C26.905 14.48 27.0007 14.7173 27 15C26.9993 15.2827 26.9033 15.5203 26.712 15.713C26.5207 15.9057 26.2833 16.0013 26 16H10Z" fill="#FFF9F2"/>
</svg>
