<svg xmlns="http://www.w3.org/2000/svg" xmlns:xlink="http://www.w3.org/1999/xlink"><symbol id="max" viewBox="0 0 38 38">
<path fill-rule="evenodd" clip-rule="evenodd" d="M19.4082 37.8916C15.679 37.8916 13.946 37.3448 10.9336 35.1576C9.02815 37.6182 2.99428 39.541 2.73113 36.2512C2.73113 33.7817 2.18671 31.6948 1.56971 29.4165C0.834771 26.6097 0 23.484 0 18.9549C0 8.13784 8.83763 0 19.3084 0C29.7883 0 37.9999 8.53882 37.9999 19.0551C38.035 29.4088 29.7171 37.8363 19.4082 37.8916ZM19.5625 9.34985C14.4632 9.0856 10.489 12.6305 9.60886 18.1894C8.88297 22.7915 10.1714 28.3959 11.2693 28.6875C11.7956 28.8151 13.1203 27.7398 13.946 26.9105C15.3113 27.8578 16.9012 28.4267 18.5554 28.5599C23.8391 28.8152 28.3538 24.7752 28.7086 19.4744C28.9151 14.1623 24.847 9.66299 19.5625 9.35899V9.34985Z" fill="#FFF9F2"/>
</symbol><symbol id="pin" viewBox="0 0 20 20">
<path d="M10 0.833313C11.9891 0.833313 13.8968 1.62349 15.3033 3.03001C16.7098 4.43653 17.5 6.34419 17.5 8.33331C17.5 11.4383 15.1333 14.6916 10.5 18.1666C10.3558 18.2748 10.1803 18.3333 10 18.3333C9.81969 18.3333 9.64425 18.2748 9.5 18.1666C4.86667 14.6916 2.5 11.4383 2.5 8.33331C2.5 6.34419 3.29018 4.43653 4.6967 3.03001C6.10322 1.62349 8.01088 0.833313 10 0.833313ZM10 5.83331C9.33696 5.83331 8.70107 6.0967 8.23223 6.56555C7.76339 7.03439 7.5 7.67027 7.5 8.33331C7.5 8.99635 7.76339 9.63224 8.23223 10.1011C8.70107 10.5699 9.33696 10.8333 10 10.8333C10.663 10.8333 11.2989 10.5699 11.7678 10.1011C12.2366 9.63224 12.5 8.99635 12.5 8.33331C12.5 7.67027 12.2366 7.03439 11.7678 6.56555C11.2989 6.0967 10.663 5.83331 10 5.83331Z" fill="#FFF9F2"/>
</symbol><symbol id="rutube" viewBox="0 0 38 38">
<path d="M36.0052 9.08751C36.0051 5.17038 32.8299 1.99496 28.9135 1.99477H9.08751C5.1709 1.99477 1.99488 5.17026 1.99477 9.08751V28.9125C1.99477 32.8299 5.17083 36.0052 9.08751 36.0052H28.9135C32.83 36.005 36.0052 32.8298 36.0052 28.9125V9.08751ZM38 28.9125C38 33.9314 33.9317 37.9998 28.9135 38H9.08751C4.0691 38 0 33.9315 0 28.9125V9.08751C0.000112585 4.06862 4.06918 0 9.08751 0H28.9135C33.9316 0.000190221 37.9999 4.06874 38 9.08751V28.9125Z" fill="#FFF9F2"/>
<path d="M23.9243 18.085H12.7275V13.6541H23.9243C24.579 13.6541 25.0338 13.7681 25.2622 13.9672C25.4896 14.1663 25.6317 14.5356 25.6317 15.0749V16.6659C25.6317 17.2342 25.4896 17.6035 25.2622 17.8025C25.0338 18.0016 24.579 18.0867 23.9243 18.0867V18.085ZM24.6927 9.4768H20.5142H16.3356H7.97852V28.4254H12.7275V22.2607H21.4787L25.6317 28.4254H30.9492L26.3708 22.2317C28.0583 21.9816 28.8163 21.4643 29.4417 20.6118C30.067 19.7593 30.3797 18.3964 30.3797 16.5774V15.1566C30.3797 14.0778 30.266 13.2254 30.067 12.572C29.8671 11.9186 29.5269 11.3502 29.0428 10.8397C28.532 10.3565 27.9635 10.0162 27.2804 9.78816C26.5972 9.58908 25.7435 9.4751 24.6927 9.4751V9.4768Z" fill="#FFF9F2"/>
<path d="M26.9023 0.997559C32.4251 0.99759 36.9022 5.47488 36.9023 10.9976V18.8901C35.3161 18.7649 33.7843 18.4456 32.3311 17.9536C32.3718 17.5033 32.3906 17.0423 32.3906 16.5776V15.1567C32.3906 13.9505 32.265 12.8869 31.9902 11.9858C31.6927 11.0141 31.1841 10.1776 30.502 9.45752L30.4639 9.41748L30.4248 9.38037C29.6971 8.69274 28.873 8.20158 27.916 7.88232L27.8799 7.86963L27.8428 7.85889C26.9333 7.59358 25.8814 7.46536 24.6934 7.46533H22.6836V7.46729H20.9922C20.1328 5.46502 19.6089 3.28497 19.4902 0.997559H26.9023Z" fill="#FFF9F2"/>
</symbol><symbol id="tg" viewBox="0 0 38 38">
<path fill-rule="evenodd" clip-rule="evenodd" d="M38 19C38 29.4934 29.4934 38 19 38C8.50659 38 0 29.4934 0 19C0 8.50659 8.50659 0 19 0C29.4934 0 38 8.50659 38 19ZM19.6795 14.0257C17.8315 14.7944 14.138 16.3853 8.59914 18.7985C7.69971 19.1562 7.22856 19.5062 7.18567 19.8483C7.11317 20.4265 7.83727 20.6541 8.82331 20.9642C8.95744 21.0064 9.09641 21.0501 9.23888 21.0965C10.209 21.4118 11.514 21.7806 12.1924 21.7954C12.8077 21.8087 13.4946 21.5549 14.2529 21.0342C19.428 17.5409 22.0994 15.7751 22.2671 15.737C22.3854 15.7102 22.5494 15.6764 22.6605 15.7752C22.7716 15.8739 22.7607 16.061 22.7489 16.1111C22.6772 16.417 19.8349 19.0595 18.3639 20.427C17.9053 20.8533 17.5801 21.1556 17.5136 21.2247C17.3647 21.3795 17.2129 21.5258 17.0669 21.6664C16.1657 22.5352 15.4898 23.1867 17.1044 24.2507C17.8802 24.762 18.5011 25.1848 19.1205 25.6066C19.797 26.0672 20.4715 26.5267 21.3445 27.0989C21.5669 27.2447 21.7793 27.3961 21.9862 27.5436C22.7734 28.1048 23.4807 28.6091 24.3544 28.5286C24.8622 28.4819 25.3866 28.0045 25.6528 26.5807C26.2823 23.2157 27.5196 15.925 27.8055 12.9207C27.8305 12.6574 27.799 12.3205 27.7737 12.1727C27.7485 12.0248 27.6955 11.8141 27.5034 11.6581C27.2756 11.4734 26.9242 11.4345 26.7671 11.4372C26.0524 11.4499 24.956 11.8311 19.6795 14.0257Z" fill="#FFF9F2"/>
</symbol><symbol id="vk" viewBox="0 0 38 38">
<mask id="mask0_187_11355" style="mask-type:luminance" maskUnits="userSpaceOnUse" x="0" y="0" width="38" height="38">
<path d="M38 0H0V38H38V0Z" fill="white"/>
</mask>
<g mask="url(#mask0_187_11355)">
<mask id="mask1_187_11355" style="mask-type:luminance" maskUnits="userSpaceOnUse" x="0" y="0" width="38" height="38">
<path d="M38 0H0V38H38V0Z" fill="#BBCE00"/>
</mask>
<g mask="url(#mask1_187_11355)">
<path fill-rule="evenodd" clip-rule="evenodd" d="M2.67121 2.67119C-1.81198e-06 5.34238 0 9.64155 0 18.24V19.76C0 28.3584 -1.81198e-06 32.6576 2.67121 35.3288C5.34242 38 9.64155 38 18.24 38H19.76C28.3585 38 32.6572 38 35.3286 35.3288C38 32.6576 38 28.3584 38 19.76V18.24C38 9.64155 38 5.34238 35.3286 2.67119C32.6572 0 28.3585 0 19.76 0H18.24C9.64155 0 5.34242 0 2.67121 2.67119ZM6.4125 11.5577C6.61836 21.4377 11.5583 27.3752 20.2191 27.3752H20.7101V21.7227C23.8925 22.0393 26.2988 24.3668 27.265 27.3752H31.7613C30.5263 22.8786 27.2812 20.3927 25.2538 19.4427C27.2812 18.2711 30.1311 15.4211 30.8113 11.5577H26.7264C25.84 14.6927 23.2114 17.5427 20.7101 17.8118V11.5577H16.6249V22.5143C14.0916 21.8811 10.8934 18.8093 10.7509 11.5577H6.4125Z" fill="#FFF9F2"/>
</g>
</g>
</symbol></svg>