<svg width="588" height="436" viewBox="0 0 588 436" fill="none" xmlns="http://www.w3.org/2000/svg">
<rect width="132" height="132" fill="#FF06D5"/>
<path d="M62.7002 97.6797H51.4805V34.9805H62.7002V97.6797Z" fill="#FFF9F2"/>
<path d="M97.6797 95.7002H86.46V36.96H97.6797V95.7002Z" fill="#FFF9F2"/>
<path d="M45.54 89.0996H34.3203V43.5605H45.54V89.0996Z" fill="#FFF9F2"/>
<path d="M29.7002 81.8398H17.8203V49.5H29.7002V81.8398Z" fill="#FFF9F2"/>
<path d="M114.84 81.8398H103.62V49.5H114.84V81.8398Z" fill="#FFF9F2"/>
<path d="M80.5195 75.9004H68.6396V55.4404H80.5195V75.9004Z" fill="#FFF9F2"/>
<rect width="132" height="132" transform="translate(152)" fill="#F7C667"/>
<path d="M228.073 94.6865L217.757 105.003L207.44 94.6865L217.757 84.3701L228.073 94.6865Z" fill="#FFF9F2"/>
<path d="M223.28 27.0596V64.6797L249.68 36.96L258.26 45.21L231.53 73.2598H270.14V84.4805H227.9L218 74.5801L208.1 84.4805H165.86V73.2598H204.47L177.74 45.21L186.32 36.96L212.72 64.6797V27.0596H223.28Z" fill="#FFF9F2"/>
<rect width="132" height="132" transform="translate(304)" fill="#FE131F"/>
<path d="M350.555 101.183L342.519 108.205L324.261 87.3105L332.297 80.2881L350.555 101.183Z" fill="#FFF9F2"/>
<path d="M336.55 101.375L330.12 106.992L323.8 99.7598L330.229 94.1416L336.55 101.375Z" fill="#FFF9F2"/>
<path d="M406.803 63.374L397.963 71.0986L387.429 59.042L360.507 82.5664L371.04 94.6211L362.2 102.346L332.707 68.5918L341.547 60.8672L353.484 74.5293L380.406 51.0059L368.47 37.3447L377.31 29.6201L406.803 63.374Z" fill="#FFF9F2"/>
<path d="M402.96 30.5898L409.39 24.9736L415.709 32.2061L409.28 37.8242L415.249 44.6553L407.213 51.6777L388.955 30.7822L396.991 23.7598L402.96 30.5898Z" fill="#FFF9F2"/>
<rect width="132" height="132" transform="translate(456)" fill="#A8C7E4"/>
<path d="M505.925 74.5264C505.925 83.4495 513.512 91.1521 522.761 91.1523C531.778 91.1523 539.176 83.4496 539.176 74.5264H554.203C554.203 83.4496 561.791 91.1522 571.039 91.1523V100.98C560.209 100.98 550.616 94.1891 546.594 84.5508C542.672 94.1889 533.32 100.98 522.761 100.98C511.598 100.98 501.749 93.7671 497.96 83.6572C494.171 93.767 484.323 100.98 473.16 100.98V91.1523C482.409 91.1523 489.996 83.4496 489.996 74.5264H505.925Z" fill="#FFF9F2"/>
<path d="M505.925 48.0723C505.925 56.9955 513.512 64.698 522.761 64.6982C531.778 64.6982 539.176 56.9956 539.176 48.0723H554.203C554.203 56.9956 561.791 64.6981 571.039 64.6982V74.5264C560.208 74.5263 550.615 67.7351 546.594 58.0967C542.672 67.7349 533.32 74.5264 522.761 74.5264C511.598 74.5262 501.749 67.3131 497.96 57.2031C494.171 67.313 484.323 74.5264 473.16 74.5264V64.6982C482.409 64.6982 489.996 56.9956 489.996 48.0723H505.925Z" fill="#FFF9F2"/>
<path d="M532.59 41.3584L522.252 51.6963L511.914 41.3584L522.252 31.0205L532.59 41.3584Z" fill="#FFF9F2"/>
<rect width="132" height="132" transform="translate(0 152)" fill="#A8C7E4"/>
<path d="M110.894 256.096L104.862 263.421L94.0332 254.828L80.1885 265.815L66.3438 254.828L52.498 265.815L38.6533 254.828L27.8252 263.421L21.793 256.096L38.6543 242.715L52.498 253.703L66.3438 242.715L80.1875 253.703L94.0332 242.715L110.894 256.096Z" fill="#FFF9F2"/>
<path fill-rule="evenodd" clip-rule="evenodd" d="M65.9668 170.934C73.7663 170.893 81.3834 173.296 87.7471 177.806C94.1106 182.316 98.9015 188.706 101.447 196.079C103.993 203.451 104.165 211.436 101.94 218.912C101.181 221.463 100.154 223.91 98.8877 226.218L110.894 236.018L104.862 243.553L94.0332 234.713L80.1885 246.015L66.3438 234.713L52.498 246.015L38.6533 234.713L27.8252 243.553L21.793 236.018L33.5498 226.421C32.2946 224.167 31.2682 221.777 30.498 219.286C28.195 211.834 28.2838 203.848 30.752 196.45C33.2203 189.051 37.9448 182.611 44.2607 178.035C50.5767 173.458 58.1674 170.975 65.9668 170.934ZM90.6875 193.362C69.1897 193.577 51.2449 210.861 50.3174 231.776L52.498 233.556L66.3438 222.255L80.1875 233.556L86.9922 228.001C90.0798 224.743 92.3758 220.791 93.668 216.45C94.415 213.94 94.81 211.355 94.8555 208.767C86.8904 207.059 78.4087 210.888 74.876 218.241L67.0957 214.502C71.9798 204.338 82.8541 198.837 93.6006 199.858C93.502 199.536 93.3982 199.215 93.2881 198.896C92.6172 196.953 91.7432 195.099 90.6875 193.362ZM38.8701 199.396C37.0418 205.023 36.9968 211.08 38.7451 216.737C39.5974 219.494 40.8557 222.09 42.4639 224.445C43.4678 219.29 45.313 214.412 47.8447 209.952C47.1412 205.157 43.5924 201.043 38.8701 199.396ZM47.3457 186.596C45.6422 188.076 44.1248 189.747 42.8203 191.571C47.5714 193.493 51.5548 196.968 54.0332 201.348C55.5454 199.658 57.1704 198.068 58.8984 196.594C57.7132 191.474 53.0731 187.323 47.3457 186.596ZM66.0127 179.566C62.9359 179.582 59.9011 180.093 57.0195 181.061C61.1817 183.425 64.5059 187.023 66.3633 191.318C71.5236 188.329 77.2522 186.233 83.3154 185.257C83.1305 185.119 82.9444 184.983 82.7559 184.849C77.8638 181.382 72.0086 179.535 66.0127 179.566Z" fill="#FFF9F2"/>
<rect width="132" height="132" transform="translate(152 152)" fill="#5D7B3D"/>
<path d="M194.22 252.33V252.333L194.219 252.338V252.329L194.22 252.33Z" fill="#FFF9F2"/>
<path d="M194.221 183.051C194.223 183.085 194.228 183.147 194.236 183.234C194.253 183.411 194.282 183.692 194.328 184.062C194.422 184.805 194.586 185.897 194.865 187.22C195.429 189.889 196.434 193.376 198.182 196.803C201.59 203.486 207.622 209.761 219.299 209.761C229.798 209.761 235.388 203.719 238.645 196.92C240.296 193.472 241.254 189.962 241.794 187.271C242.062 185.938 242.221 184.837 242.312 184.086C242.358 183.712 242.386 183.427 242.402 183.246C242.41 183.156 242.415 183.091 242.418 183.056L242.42 183.031L252.959 183.691V183.697C252.959 183.701 252.958 183.705 252.958 183.71C252.957 183.719 252.957 183.731 252.956 183.744C252.954 183.771 252.951 183.807 252.948 183.849C252.942 183.933 252.933 184.047 252.92 184.188C252.895 184.472 252.856 184.867 252.796 185.358C252.677 186.34 252.476 187.714 252.147 189.351C251.495 192.6 250.311 197.01 248.169 201.482C245.145 207.795 240.036 214.474 231.806 217.932C239.72 221.457 244.774 227.699 247.865 233.763C250.156 238.256 251.416 242.689 252.106 245.96C252.454 247.607 252.665 248.99 252.789 249.98C252.851 250.476 252.893 250.876 252.919 251.163C252.932 251.307 252.942 251.423 252.948 251.509C252.951 251.551 252.953 251.587 252.955 251.614C252.956 251.628 252.957 251.64 252.958 251.65C252.958 251.655 252.959 251.66 252.959 251.664V251.67C252.951 251.673 252.743 251.689 247.689 252.001C242.42 252.327 242.42 252.329 242.42 252.331V252.337C242.42 252.332 242.42 252.324 242.419 252.312C242.416 252.278 242.41 252.215 242.402 252.127C242.386 251.95 242.358 251.668 242.312 251.298C242.218 250.556 242.054 249.464 241.774 248.142C241.211 245.473 240.205 241.985 238.458 238.559C235.05 231.875 229.017 225.601 217.341 225.601C206.842 225.601 201.251 231.643 197.994 238.441C196.343 241.889 195.386 245.401 194.846 248.091C194.578 249.424 194.418 250.525 194.327 251.275C194.282 251.65 194.253 251.936 194.236 252.116C194.228 252.206 194.224 252.271 194.222 252.307L194.219 252.329C194.204 252.326 193.937 252.309 188.95 252.001C183.68 251.675 183.68 251.672 183.68 251.67L183.681 251.665C183.681 251.661 183.681 251.657 183.682 251.652C183.682 251.643 183.683 251.631 183.684 251.617C183.685 251.59 183.688 251.556 183.691 251.514C183.698 251.43 183.707 251.315 183.72 251.173C183.745 250.889 183.784 250.494 183.844 250.003C183.963 249.021 184.163 247.647 184.492 246.011C185.145 242.761 186.329 238.352 188.471 233.88C191.494 227.567 196.602 220.887 204.833 217.429C196.919 213.903 191.865 207.663 188.773 201.6C186.483 197.107 185.224 192.673 184.533 189.402C184.185 187.755 183.975 186.372 183.851 185.382C183.788 184.886 183.747 184.486 183.721 184.199C183.708 184.056 183.698 183.939 183.691 183.854C183.688 183.811 183.686 183.775 183.684 183.747C183.683 183.733 183.682 183.721 183.682 183.711C183.681 183.706 183.681 183.701 183.681 183.697L183.68 183.691C183.681 183.689 183.775 183.681 188.949 183.361L194.22 183.031L194.221 183.051Z" fill="#FFF9F2"/>
<path d="M229.19 194.337L218.406 205.121L207.623 194.337L218.406 183.554L229.19 194.337Z" fill="#FFF9F2"/>
<path d="M194.22 183.028V183.031L194.219 183.022C194.219 183.022 194.22 183.026 194.22 183.028Z" fill="#FFF9F2"/>
<rect width="132" height="132" transform="translate(304 152)" fill="#FA9500"/>
<path d="M407.32 218C407.32 213.218 406.417 208.649 404.787 204.448C404.289 207.327 403.29 210.096 401.829 212.627C400.209 215.435 398.056 217.894 395.492 219.864C392.928 221.833 390.003 223.274 386.887 224.105C383.77 224.936 380.521 225.141 377.326 224.707C376.791 224.635 376.26 224.54 375.733 224.432C376.55 226.386 377.74 228.181 379.257 229.708C382.34 232.814 386.52 234.56 390.88 234.56L391.695 234.54C395.758 234.337 399.613 232.62 402.504 229.708C405.587 226.603 407.32 222.392 407.32 218ZM361.805 219.476C359.794 219.26 357.739 219.411 355.748 219.953C351.522 221.103 347.92 223.9 345.738 227.723C343.557 231.547 342.975 236.088 344.117 240.346C345.009 243.673 346.9 246.611 349.495 248.787C354.192 252.019 359.667 254.177 365.578 254.941C363.1 253.008 360.987 250.599 359.381 247.817C356.108 242.146 355.202 235.398 356.868 229.058C357.803 225.503 359.501 222.238 361.805 219.476ZM367.432 225.665C366.238 227.307 365.342 229.171 364.815 231.176C363.707 235.394 364.308 239.885 366.485 243.657C368.662 247.429 372.239 250.177 376.427 251.294C380.613 252.41 385.069 251.804 388.813 249.612C389.431 249.25 390.105 249.067 390.772 249.05C393.918 246.944 396.722 244.367 399.092 241.417C396.857 242.212 394.506 242.688 392.104 242.808L390.88 242.84C384.34 242.84 378.069 240.221 373.445 235.563C370.665 232.763 368.624 229.363 367.432 225.665ZM376.266 181.221C378.236 182.966 379.936 185.028 381.279 187.354C384.552 193.025 385.458 199.773 383.792 206.114C382.769 210.006 380.824 213.545 378.177 216.464C378.259 216.476 378.343 216.493 378.426 216.504C380.55 216.792 382.711 216.656 384.783 216.104C386.856 215.551 388.802 214.591 390.507 213.282C392.212 211.972 393.647 210.334 394.725 208.467C395.803 206.599 396.506 204.535 396.792 202.394C397.079 200.253 396.944 198.074 396.395 195.986C395.846 193.898 394.894 191.938 393.593 190.221C392.293 188.503 390.667 187.061 388.813 185.976C388.432 185.753 388.101 185.476 387.822 185.163C384.277 183.243 380.386 181.891 376.266 181.221ZM364.233 183.881C361.004 183.02 357.616 183.184 354.516 184.31C349.465 186.72 345.043 190.249 341.564 194.579C344.179 193.648 346.954 193.16 349.78 193.16C356.32 193.16 362.591 195.779 367.216 200.437C369.851 203.092 371.826 206.285 373.039 209.76C374.328 208.058 375.29 206.105 375.845 203.995C376.953 199.777 376.352 195.287 374.175 191.515C371.998 187.742 368.421 184.998 364.233 183.881ZM333.34 218C333.34 222.686 334.205 227.167 335.772 231.297C336.285 228.614 337.237 226.009 338.614 223.595C341.882 217.868 347.274 213.683 353.605 211.96C357.337 210.945 361.216 210.838 364.936 211.592C364.118 209.63 362.927 207.826 361.404 206.292C358.321 203.186 354.14 201.44 349.78 201.44C345.42 201.44 341.24 203.186 338.157 206.292C335.073 209.397 333.34 213.608 333.34 218ZM415.54 218C415.54 243.151 395.299 263.54 370.33 263.54C362.509 263.54 355.153 261.534 348.737 258.013C348.394 257.922 348.055 257.795 347.733 257.609C346.579 256.941 345.49 256.179 344.47 255.345C332.776 247.113 325.12 233.461 325.12 218C325.12 201.503 333.827 187.052 346.866 179.062C347.113 178.812 347.396 178.589 347.713 178.403C348.896 177.71 350.13 177.129 351.394 176.649C357.155 173.967 363.567 172.46 370.33 172.46C395.299 172.46 415.54 192.849 415.54 218Z" fill="#FFF9F2"/>
<rect width="132" height="132" transform="translate(456 152)" fill="#FF06D5"/>
<path fill-rule="evenodd" clip-rule="evenodd" d="M528.16 207.873C532.918 192.991 546.359 183.991 558.181 187.771L558.458 187.861C570.093 191.787 575.693 206.796 570.972 221.562L570.743 222.255C567.008 233.175 558.567 240.786 549.648 242.263L548.651 245.381C548.416 245.306 547.987 245.277 547.271 245.611C546.542 245.952 545.658 246.612 544.705 247.648C543.235 249.247 541.779 251.551 540.614 254.326L542.581 254.955L537.75 270.065L527.585 266.815L532.416 251.705L533.876 252.172C534.537 249.235 534.689 246.514 534.42 244.358C534.245 242.961 533.907 241.911 533.511 241.211C533.121 240.522 532.755 240.297 532.52 240.222L533.516 237.105C526.975 230.594 524.55 219.163 528.16 207.873ZM538.498 240.678C538.825 241.643 539.049 242.685 539.184 243.763C539.3 244.684 539.353 245.659 539.346 246.675C539.931 245.844 540.541 245.081 541.169 244.398C541.905 243.598 542.693 242.878 543.52 242.281C542.658 242.139 541.799 241.936 540.95 241.664L540.674 241.573C539.923 241.32 539.197 241.02 538.498 240.678ZM555.744 195.395C549.675 193.454 539.749 197.909 535.784 210.311C531.819 222.712 537.319 232.099 543.387 234.04C549.456 235.98 559.383 231.526 563.348 219.124C567.313 206.723 561.813 197.335 555.744 195.395Z" fill="#FFF9F2"/>
<path fill-rule="evenodd" clip-rule="evenodd" d="M484.568 176.794C495.607 171.12 510.347 177.785 517.49 191.682C522.909 202.224 522.397 213.898 517.015 221.397L518.511 224.306C518.291 224.419 517.968 224.701 517.697 225.444C517.422 226.2 517.262 227.291 517.319 228.698C517.408 230.869 518.006 233.528 519.141 236.316L520.505 235.616L527.757 249.726L518.265 254.604L511.012 240.495L512.846 239.552C511.24 237.006 509.425 234.971 507.712 233.636C506.601 232.77 505.62 232.266 504.845 232.05C504.083 231.838 503.666 231.936 503.446 232.049L501.949 229.138C492.91 229.147 483.335 223.03 477.854 212.875L477.513 212.229C470.426 198.442 473.481 182.716 484.311 176.929L484.568 176.794ZM512.688 225.741C512.055 226.194 511.39 226.608 510.692 226.981L510.434 227.116C509.641 227.524 508.827 227.866 508 228.148C508.913 228.6 509.807 229.18 510.664 229.848C511.397 230.419 512.125 231.073 512.84 231.798C512.666 230.795 512.558 229.823 512.52 228.895C512.476 227.81 512.525 226.746 512.688 225.741ZM510.371 195.341C504.419 183.761 493.894 181 488.227 183.913C482.561 186.826 478.681 196.991 484.633 208.57C490.585 220.15 501.109 222.91 506.775 219.998C512.442 217.085 516.323 206.921 510.371 195.341Z" fill="#FFF9F2"/>
<path d="M536.441 181.104L526.125 191.421L515.808 181.104L526.125 170.788L536.441 181.104Z" fill="#FFF9F2"/>
<rect width="132" height="132" transform="translate(0 304)" fill="#FF06D5"/>
<path fill-rule="evenodd" clip-rule="evenodd" d="M41.4382 328.422C42.5277 328.395 43.611 328.592 44.6208 329.002C45.6192 329.408 46.5229 330.016 47.28 330.783L47.2839 330.779L54.5359 338.036C54.6315 338.111 54.7264 338.19 54.8162 338.276C54.9489 338.402 55.0682 338.538 55.1785 338.678L76.0662 359.585C76.1261 359.638 76.1871 359.691 76.2439 359.748C76.3007 359.804 76.3532 359.865 76.406 359.925L105.208 388.753C105.972 389.498 106.575 390.389 106.983 391.375C107.403 392.39 107.605 393.484 107.578 394.582C107.55 395.678 107.294 396.758 106.825 397.749C106.355 398.741 105.684 399.626 104.853 400.342C104.831 400.361 104.806 400.379 104.783 400.398C95.3512 408.151 83.3713 412.117 71.1775 411.522C58.9846 410.927 47.4492 405.814 38.8171 397.181C30.1846 388.547 25.0741 377.007 24.4792 364.811C23.8848 352.616 27.8494 340.637 35.6003 331.204L35.6892 331.096C36.4122 330.279 37.296 329.621 38.2849 329.161C39.2738 328.7 40.3479 328.449 41.4382 328.422ZM41.6267 335.982C41.5748 335.983 41.5224 335.997 41.4753 336.019C41.4348 336.038 41.3994 336.065 41.3679 336.097C34.8586 344.065 31.5288 354.165 32.03 364.445C32.5337 374.764 36.8597 384.528 44.1638 391.833C51.468 399.139 61.2295 403.462 71.5466 403.965C81.839 404.467 91.9481 401.128 99.9197 394.6C99.9474 394.574 99.9737 394.546 99.99 394.511C100.008 394.473 100.018 394.431 100.019 394.389C100.02 394.347 100.014 394.306 99.9978 394.267C99.9818 394.228 99.9577 394.193 99.9275 394.164C99.9057 394.143 99.8824 394.122 99.8611 394.101L94.7175 388.953C88.6954 393.535 81.2875 396.011 73.6511 395.907C64.7784 395.785 56.3041 392.199 50.0349 385.917C43.766 379.636 40.1964 371.153 40.0906 362.278C40 354.653 42.4773 347.262 47.0544 341.252L41.9041 336.097C41.8683 336.061 41.8253 336.032 41.7781 336.012C41.7305 335.993 41.678 335.981 41.6267 335.982ZM77.3513 388.14C81.6554 387.61 85.7629 386.035 89.3113 383.546L77.3513 371.573V388.14ZM58.2683 383.07C61.6603 385.607 65.6118 387.292 69.7888 387.985V371.551L58.2683 383.07ZM48.0105 366.204C48.7028 370.379 50.3863 374.33 52.9216 377.722L64.4421 366.204H48.0105ZM52.4568 346.659C49.9628 350.211 48.3868 354.328 47.8562 358.64H64.4275L52.4568 346.659Z" fill="#FFF9F2"/>
<rect width="132" height="132" transform="translate(152 304)" fill="#F7C667"/>
<path fill-rule="evenodd" clip-rule="evenodd" d="M209.75 338.659C230.345 338.659 247.04 355.355 247.04 375.949C247.04 396.544 230.345 413.239 209.75 413.239C189.155 413.239 172.46 396.544 172.46 375.949C172.46 355.355 189.155 338.659 209.75 338.659ZM181.146 377.855C182.09 392.237 193.638 403.721 208.047 404.565C207.307 390.414 195.535 378.593 181.146 377.855ZM200.259 348.891C191.203 352.067 184.226 359.661 181.91 369.088C200.253 370.202 215.492 385.202 216.611 403.788C227.813 401.037 236.426 391.703 238.114 380.121C219.696 381.091 203.229 367.292 200.259 348.891ZM209.75 347.281C209.414 347.281 209.08 347.288 208.747 347.3C210.969 361.791 224.008 372.427 238.069 371.475C235.921 357.767 224.061 347.281 209.75 347.281Z" fill="#FFF9F2"/>
<path d="M277.633 334.515L252.051 358.791L246.007 352.588L271.589 328.311L277.633 334.515Z" fill="#FFF9F2"/>
<path d="M255.634 336.948L242.843 349.087L236.799 342.884L249.59 330.745L255.634 336.948Z" fill="#FFF9F2"/>
<path d="M240.038 333.304L233.643 339.373L227.599 333.169L233.994 327.1L240.038 333.304Z" fill="#FFF9F2"/>
<rect width="132" height="132" transform="translate(304 304)" fill="#A8C7E4"/>
<path fill-rule="evenodd" clip-rule="evenodd" d="M401.932 360.388L392.937 362.231L393.69 363.638C395.591 363.055 397.609 362.74 399.7 362.74C411 362.74 420.16 371.901 420.16 383.2C420.16 394.5 411 403.66 399.7 403.66C388.401 403.66 379.24 394.5 379.24 383.2C379.24 376.742 382.233 370.983 386.906 367.233L385.088 363.84L381.588 364.557C380.447 371.862 376.716 377.131 372.418 380.704C368.451 384.002 363.972 385.893 360.448 386.77C358.759 396.367 350.382 403.66 340.3 403.66C329 403.66 319.84 394.5 319.84 383.2C319.84 371.901 329 362.74 340.3 362.74C345.787 362.74 350.77 364.9 354.444 368.417L348.216 351.972L341.354 351.272L342.272 342.269L364.782 344.563L363.864 353.567L356.675 352.834L359.861 361.247L394.597 354.126L395.049 343.946H382.295V336.34H403L401.932 360.388ZM340.3 370.317C333.185 370.317 327.418 376.086 327.418 383.2C327.418 390.315 333.185 396.082 340.3 396.082C346.033 396.082 350.891 392.337 352.562 387.16H342.94V379.9H352.755C351.297 374.384 346.274 370.317 340.3 370.317ZM399.7 370.317C398.909 370.317 398.134 370.389 397.383 370.525L402.34 379.771L395.467 383.2L390.586 374.096C388.258 376.427 386.817 379.645 386.817 383.2C386.817 390.315 392.586 396.082 399.7 396.082C406.815 396.082 412.582 390.315 412.582 383.2C412.582 376.086 406.815 370.317 399.7 370.317ZM355.799 369.845C358.021 372.422 359.612 375.558 360.331 379.015C362.673 378.235 365.431 376.893 367.896 374.843C370.428 372.738 372.624 369.919 373.801 366.153L355.799 369.845Z" fill="#FFF9F2"/>
<rect width="132" height="132" transform="translate(456 304)" fill="#5D7B3D"/>
<path fill-rule="evenodd" clip-rule="evenodd" d="M548.758 329.74C548.758 338.645 556.33 346.332 565.56 346.332V356.14C559.969 356.14 554.709 354.326 550.378 351.245C553.083 356.835 558.888 360.852 565.56 360.853V370.66C559.969 370.66 554.709 368.847 550.378 365.766C553.084 371.355 558.888 375.372 565.56 375.372V385.18C559.683 385.18 554.172 383.174 549.72 379.8V396.399H538.5V379.295C533.939 382.981 528.171 385.191 522 385.191V385.18C516.409 385.18 511.149 383.367 506.817 380.285C509.523 385.875 515.328 389.892 522 389.892V399.7C516.123 399.7 510.612 397.695 506.16 394.32V410.92H494.94V393.815C490.379 397.501 484.611 399.712 478.439 399.712V389.903C485.111 389.903 490.915 385.887 493.621 380.297C489.29 383.378 484.03 385.191 478.439 385.191V375.384C485.111 375.384 490.915 371.367 493.621 365.777C489.29 368.858 484.03 370.672 478.439 370.672V360.863C487.669 360.863 495.242 353.177 495.242 344.271H495.6C495.6 344.268 495.6 344.264 495.6 344.26H505.198C505.198 353.165 512.77 360.853 522 360.853V360.863C528.672 360.863 534.476 356.847 537.182 351.257C532.85 354.338 527.59 356.151 522 356.151V346.344C531.23 346.344 538.802 338.657 538.802 329.752H539.16C539.16 329.748 539.16 329.744 539.16 329.74H548.758ZM506.818 365.766C509.524 371.355 515.328 375.372 522 375.372V375.384C528.671 375.384 534.475 371.367 537.181 365.777C532.849 368.858 527.59 370.672 522 370.672V370.66C516.41 370.66 511.15 368.847 506.818 365.766Z" fill="#FFF9F2"/>
</svg>
