<svg width="528" height="80" viewBox="0 0 528 80" fill="none" xmlns="http://www.w3.org/2000/svg">
<rect width="80" height="80" fill="#FF06D5"/>
<path d="M38.0007 59.3299H31.2009V21.3303H38.0007V59.3299Z" fill="#FFF9F2"/>
<path d="M59.2004 58.1302H52.4006V22.53H59.2004V58.1302Z" fill="#FFF9F2"/>
<path d="M27.6006 54.1298H20.8008V26.5304H27.6006V54.1298Z" fill="#FFF9F2"/>
<path d="M18.0007 49.73H10.8008V30.13H18.0007V49.73Z" fill="#FFF9F2"/>
<path d="M69.6005 49.73H62.8007V30.13H69.6005V49.73Z" fill="#FFF9F2"/>
<path d="M48.8003 46.1303H41.6004V33.7303H48.8003V46.1303Z" fill="#FFF9F2"/>
<rect width="80" height="80" transform="translate(88)" fill="#FE131F"/>
<path d="M116.215 61.3159L111.345 65.5719L100.279 52.9086L105.15 48.6525L116.215 61.3159Z" fill="#FFF9F2"/>
<path d="M107.727 61.4325L103.83 64.8368L100 60.4536L103.897 57.0486L107.727 61.4325Z" fill="#FFF9F2"/>
<path d="M150.305 38.4016L144.947 43.0832L138.563 35.7761L122.247 50.0333L128.63 57.3392L123.273 62.0208L105.398 41.5639L110.756 36.8823L117.991 45.1624L134.307 30.9057L127.073 22.6263L132.43 17.9447L150.305 38.4016Z" fill="#FFF9F2"/>
<path d="M147.976 18.5324L151.873 15.1286L155.703 19.5119L151.806 22.9169L155.424 27.0569L150.553 31.3129L139.488 18.649L144.358 14.3929L147.976 18.5324Z" fill="#FFF9F2"/>
<rect width="80" height="80" transform="translate(176)" fill="#A8C7E4"/>
<path d="M206.258 45.1677C206.258 50.5757 210.856 55.2439 216.461 55.2441C221.926 55.2441 226.41 50.5758 226.41 45.1677H235.517C235.517 50.5757 240.116 55.244 245.721 55.2441V61.2005C239.157 61.2004 233.343 57.0845 230.906 51.2431C228.529 57.0844 222.861 61.2005 216.461 61.2005C209.696 61.2004 203.727 56.8288 201.431 50.7016C199.134 56.8287 193.166 61.2005 186.4 61.2005V55.2441C192.006 55.2441 196.604 50.5758 196.604 45.1677H206.258Z" fill="#FFF9F2"/>
<path d="M206.258 29.1349C206.258 34.543 210.856 39.2112 216.461 39.2113C221.926 39.2113 226.41 34.543 226.41 29.1349H235.517C235.517 34.543 240.116 39.2112 245.721 39.2113V45.1677C239.157 45.1677 233.343 41.0518 230.906 35.2103C228.529 41.0517 222.861 45.1677 216.461 45.1677C209.696 45.1676 203.727 40.7961 201.431 34.6688C199.134 40.796 193.166 45.1677 186.4 45.1677V39.2113C192.006 39.2113 196.604 34.543 196.604 29.1349H206.258Z" fill="#FFF9F2"/>
<path d="M222.418 25.0659L216.153 31.3313L209.888 25.0659L216.153 18.8005L222.418 25.0659Z" fill="#FFF9F2"/>
<rect width="80" height="80" transform="translate(264)" fill="#F7C667"/>
<path d="M310.105 57.398L303.853 63.6504L297.6 57.398L303.853 51.1457L310.105 57.398Z" fill="#FFF9F2"/>
<path d="M307.2 16.412V39.2121L323.2 22.4122L328.4 27.4122L312.2 44.4121H335.6V51.2125H310L304 45.2123L298 51.2125H272.4V44.4121H295.8L279.6 27.4122L284.8 22.4122L300.8 39.2121V16.412H307.2Z" fill="#FFF9F2"/>
<rect width="80" height="80" transform="translate(352)" fill="#5D7B3D"/>
<path d="M377.587 60.6802V60.6819L377.587 60.6849V60.6796L377.587 60.6802Z" fill="#FFF9F2"/>
<path d="M377.588 18.6927C377.589 18.7133 377.592 18.7508 377.597 18.804C377.607 18.9111 377.625 19.0816 377.653 19.3059C377.709 19.7557 377.809 20.4177 377.978 21.2193C378.32 22.8369 378.929 24.9504 379.988 27.0272C382.054 31.078 385.71 34.8806 392.787 34.8806C399.15 34.8805 402.538 31.2187 404.511 27.0982C405.512 25.0088 406.092 22.8812 406.42 21.2507C406.582 20.4428 406.679 19.7751 406.734 19.3201C406.762 19.0933 406.779 18.9205 406.789 18.8111C406.794 18.7564 406.797 18.7173 406.798 18.6957L406.799 18.6809L413.187 19.081V19.0845C413.187 19.0868 413.186 19.0894 413.186 19.0922C413.186 19.098 413.185 19.1049 413.185 19.1129C413.184 19.1293 413.182 19.1508 413.18 19.1762C413.176 19.2272 413.171 19.2965 413.163 19.3822C413.148 19.5539 413.124 19.7936 413.088 20.0913C413.016 20.6862 412.894 21.5188 412.695 22.5108C412.299 24.4802 411.582 27.1529 410.284 29.8634C408.451 33.6891 405.355 37.7369 400.366 39.8326C405.163 41.9694 408.226 45.7525 410.1 49.4272C411.488 52.1502 412.251 54.8371 412.67 56.8195C412.881 57.8176 413.008 58.6561 413.084 59.2561C413.121 59.5565 413.146 59.7988 413.162 59.9729C413.17 60.0599 413.176 60.1304 413.18 60.1824C413.182 60.2081 413.183 60.2296 413.184 60.2463C413.185 60.2546 413.186 60.2622 413.186 60.2682C413.186 60.2712 413.187 60.2741 413.187 60.2765V60.2801C413.182 60.2819 413.056 60.2914 409.993 60.4807C406.799 60.6781 406.799 60.6795 406.799 60.6807V60.6843C406.799 60.6814 406.799 60.6763 406.799 60.6689C406.797 60.6484 406.794 60.6105 406.789 60.557C406.779 60.4499 406.762 60.279 406.734 60.0546C406.677 59.6047 406.577 58.9431 406.408 58.1417C406.067 56.5241 405.457 54.4106 404.398 52.3338C402.333 48.2831 398.676 44.4805 391.6 44.4805C385.237 44.4805 381.848 48.1424 379.875 52.2628C378.874 54.3523 378.294 56.4804 377.967 58.1109C377.804 58.9187 377.707 59.586 377.652 60.041C377.625 60.268 377.607 60.4411 377.597 60.5505C377.592 60.6052 377.59 60.6443 377.588 60.666L377.587 60.6796C377.578 60.6779 377.415 60.6675 374.393 60.4807C371.2 60.2833 371.199 60.2815 371.199 60.2801L371.2 60.2771C371.2 60.2749 371.2 60.2722 371.2 60.2694C371.201 60.2636 371.201 60.2562 371.202 60.2481C371.203 60.2318 371.204 60.2108 371.206 60.1854C371.21 60.1344 371.216 60.0647 371.223 59.9788C371.239 59.8071 371.263 59.5674 371.299 59.2698C371.371 58.6748 371.492 57.8421 371.692 56.8503C372.087 54.8808 372.805 52.2085 374.103 49.4982C375.935 45.6725 379.031 41.6235 384.019 39.5278C379.223 37.391 376.16 33.6089 374.286 29.9344C372.898 27.2114 372.135 24.5245 371.717 22.5421C371.506 21.544 371.378 20.7055 371.303 20.1055C371.265 19.8051 371.24 19.5628 371.224 19.3887C371.216 19.3017 371.21 19.2313 371.206 19.1792C371.204 19.1532 371.203 19.1316 371.202 19.1147C371.201 19.1063 371.201 19.0989 371.2 19.0928C371.2 19.0898 371.2 19.0869 371.2 19.0845L371.199 19.081C371.2 19.0794 371.257 19.0747 374.393 18.8809L377.587 18.6809L377.588 18.6927Z" fill="#FFF9F2"/>
<path d="M398.781 25.5328L392.246 32.0686L385.71 25.5328L392.246 18.9975L398.781 25.5328Z" fill="#FFF9F2"/>
<path d="M377.587 18.6791V18.6809L377.587 18.6755C377.587 18.6755 377.587 18.6778 377.587 18.6791Z" fill="#FFF9F2"/>
<rect width="80" height="80" transform="translate(440)" fill="#A8C7E4"/>
<path d="M507.207 63.236L503.552 67.6755L496.989 62.4672L488.598 69.1262L480.208 62.4672L471.816 69.1262L463.425 62.4672L456.863 67.6755L453.207 63.236L463.426 55.1264L471.816 61.7854L480.208 55.1264L488.598 61.7854L496.989 55.1264L507.207 63.236Z" fill="#FFF9F2"/>
<path fill-rule="evenodd" clip-rule="evenodd" d="M479.979 11.6226C484.706 11.5979 489.322 13.0543 493.179 15.7875C497.036 18.5207 499.939 22.3936 501.482 26.8617C503.025 31.3299 503.13 36.1693 501.781 40.6999C501.321 42.246 500.699 43.7292 499.931 45.1282L507.207 51.0675L503.552 55.6342L496.989 50.2768L488.598 57.1263L480.208 50.2768L471.816 57.1263L463.425 50.2768L456.863 55.6342L453.207 51.0675L460.332 45.2513C459.572 43.8851 458.95 42.4368 458.483 40.9266C457.087 36.4105 457.141 31.5706 458.637 27.0866C460.133 22.6026 462.996 18.6995 466.824 15.926C470.652 13.1525 475.252 11.6474 479.979 11.6226ZM494.961 25.2152C481.932 25.3456 471.057 35.8207 470.495 48.4964L471.816 49.5754L480.208 42.7264L488.598 49.5754L492.722 46.2089C494.593 44.2342 495.985 41.8389 496.768 39.2079C497.22 37.6866 497.46 36.1199 497.487 34.5517C492.66 33.5166 487.52 35.8374 485.379 40.2933L480.663 38.0277C483.623 31.8673 490.214 28.5333 496.727 29.1522C496.667 28.9572 496.604 28.7626 496.537 28.5692C496.131 27.3918 495.601 26.2683 494.961 25.2152ZM463.557 28.8723C462.449 32.2828 462.421 35.9536 463.481 39.3819C463.998 41.0531 464.76 42.626 465.735 44.0534C466.343 40.9292 467.462 37.9727 468.996 35.2696C468.57 32.3637 466.419 29.8705 463.557 28.8723ZM468.694 21.1148C467.661 22.0115 466.741 23.0241 465.951 24.1297C468.83 25.2949 471.245 27.4009 472.747 30.0554C473.663 29.0311 474.648 28.0674 475.695 27.1742C474.977 24.0712 472.165 21.5556 468.694 21.1148ZM480.007 16.854C478.142 16.8638 476.303 17.1732 474.556 17.7602C477.079 19.1926 479.094 21.3738 480.219 23.9764C483.347 22.1649 486.819 20.8948 490.493 20.3034C490.381 20.2198 490.269 20.137 490.154 20.056C487.189 17.9548 483.641 16.8351 480.007 16.854Z" fill="#FFF9F2"/>
</svg>
