<svg width="355" height="290" viewBox="0 0 355 290" fill="none" xmlns="http://www.w3.org/2000/svg">
<path fill-rule="evenodd" clip-rule="evenodd" d="M240.509 78.0722C230.507 46.7422 202.255 27.7951 177.405 35.7527L176.825 35.9432C152.369 44.2074 140.597 75.8042 150.52 106.89L151.003 108.349C158.853 131.337 176.593 147.362 195.339 150.472L197.433 157.033C197.927 156.875 198.828 156.815 200.333 157.52C201.866 158.237 203.724 159.624 205.728 161.807C208.818 165.173 211.878 170.023 214.328 175.864L210.19 177.189L220.345 209L241.712 202.158L231.557 170.347L228.486 171.33C227.097 165.148 226.78 159.419 227.347 154.881C227.714 151.939 228.424 149.729 229.256 148.254C230.074 146.805 230.843 146.33 231.337 146.172L229.245 139.618C242.999 125.911 248.097 101.842 240.509 78.0722ZM218.767 147.138C218.081 149.167 217.613 151.36 217.33 153.626C217.088 155.563 216.974 157.614 216.986 159.751C215.759 158.004 214.478 156.401 213.16 154.965C211.615 153.282 209.962 151.766 208.225 150.511C210.037 150.212 211.84 149.781 213.624 149.209L214.205 149.019C215.779 148.487 217.301 147.857 218.767 147.138ZM182.529 51.8029C195.285 47.7182 216.149 57.0964 224.484 83.2041C232.818 109.312 221.256 129.074 208.501 133.159C195.745 137.244 174.88 127.866 166.546 101.758C158.211 75.6502 169.773 55.8877 182.529 51.8029Z" fill="#FFF9F2"/>
<path fill-rule="evenodd" clip-rule="evenodd" d="M332.138 12.6444C308.935 0.699153 277.954 14.7308 262.94 43.9849C251.553 66.1742 252.623 90.7478 263.929 106.536L260.783 112.665C261.244 112.903 261.925 113.498 262.493 115.062C263.072 116.654 263.409 118.951 263.288 121.914C263.101 126.483 261.847 132.084 259.46 137.954L256.591 136.477L241.347 166.18L261.298 176.451L276.542 146.748L272.692 144.765C276.069 139.403 279.887 135.12 283.49 132.308C285.825 130.485 287.887 129.423 289.516 128.968C291.117 128.521 291.996 128.729 292.457 128.966L295.599 122.843C314.6 122.865 334.73 109.983 346.251 88.6029L346.966 87.2428C361.862 58.217 355.443 25.1105 332.678 12.9277L332.138 12.6444ZM273.021 115.682C274.354 116.637 275.757 117.512 277.228 118.3L277.769 118.583C279.435 119.441 281.141 120.163 282.878 120.757C280.96 121.708 279.083 122.93 277.285 124.334C275.741 125.539 274.207 126.916 272.704 128.445C273.069 126.332 273.294 124.283 273.374 122.326C273.467 120.041 273.366 117.799 273.021 115.682ZM277.904 51.6882C290.414 27.3103 312.536 21.4994 324.446 27.6312C336.357 33.763 344.514 55.1616 332.003 79.5396C319.492 103.918 297.371 109.728 285.46 103.597C273.55 97.4648 265.393 76.0662 277.904 51.6882Z" fill="#FFF9F2"/>
<path d="M223.093 21.7189L244.778 43.4375L266.463 21.7189L244.778 0L223.093 21.7189Z" fill="#FFF9F2"/>
<path d="M161.688 288.14V284.269H166.131V288.14H161.688Z" fill="#FFF9F2"/>
<path d="M166.132 284.27H161.689V288.141H166.132V284.27ZM167.408 289.417H160.413V282.993H167.408V289.417Z" fill="#FFF9F2"/>
<path d="M145.169 288.14V271.338H133.563V268.029H161.037V271.338H149.416V288.14H145.169Z" fill="#FFF9F2"/>
<path d="M161.037 271.339V268.029H133.563V271.339H145.169V288.141H149.416V271.339H161.037ZM162.313 272.616H150.692V289.417H143.893V272.616H132.287V266.753H162.313V272.616Z" fill="#FFF9F2"/>
<path d="M103.629 288.14V268.029H120.744C123.435 268.029 125.538 268.669 127.052 269.95C128.566 271.222 129.323 272.975 129.323 275.209C129.323 277.425 128.556 279.169 127.024 280.44C125.501 281.703 123.379 282.334 120.66 282.334H107.876V288.14H103.629ZM120.029 271.338H107.876V279.038H120.029C121.674 279.038 122.912 278.711 123.744 278.056C124.576 277.402 124.991 276.453 124.991 275.209C124.991 273.938 124.576 272.975 123.744 272.32C122.912 271.666 121.674 271.338 120.029 271.338Z" fill="#FFF9F2"/>
<path d="M129.323 275.21C129.323 273.045 128.612 271.332 127.191 270.071L127.052 269.951C125.632 268.75 123.695 268.112 121.241 268.037L120.744 268.029V266.753C123.627 266.753 126.057 267.44 127.872 268.973L128.042 269.12C129.769 270.654 130.598 272.733 130.598 275.21C130.598 277.758 129.698 279.881 127.838 281.424L127.837 281.425C126.012 282.937 123.565 283.611 120.66 283.611H109.152V289.417H102.353V266.753H120.744V268.029H103.629V288.141H107.876V282.335H120.66L121.163 282.327C123.559 282.256 125.464 281.666 126.879 280.558L127.024 280.442C128.46 279.25 129.223 277.642 129.313 275.62L129.323 275.21ZM123.715 275.21C123.715 274.242 123.416 273.688 122.954 273.325C122.442 272.921 121.537 272.616 120.029 272.616H109.152V277.763H120.029V279.039H107.876V271.339H120.029C121.674 271.339 122.912 271.667 123.744 272.321C124.575 272.976 124.991 273.939 124.991 275.21C124.991 276.454 124.575 277.403 123.744 278.057L123.583 278.176C122.756 278.751 121.571 279.039 120.029 279.039V277.763C121.537 277.763 122.442 277.457 122.954 277.054C123.423 276.685 123.715 276.139 123.715 275.21Z" fill="#FFF9F2"/>
<path d="M83.3117 288.46C78.443 288.46 74.6677 287.553 71.9857 285.739C69.3131 283.916 67.9768 281.382 67.9768 278.138C67.9768 274.846 69.3084 272.289 71.9717 270.466C74.6443 268.634 78.4243 267.717 83.3117 267.717C88.199 267.717 91.979 268.634 94.6516 270.466C97.3242 272.289 98.6605 274.837 98.6605 278.11C98.6605 281.373 97.3242 283.916 94.6516 285.739C91.979 287.553 88.199 288.46 83.3117 288.46ZM75.0976 283.355C76.9572 284.552 79.6952 285.15 83.3117 285.15C86.9281 285.15 89.6661 284.547 91.5257 283.341C93.3947 282.125 94.3292 280.382 94.3292 278.11C94.3292 275.819 93.3947 274.066 91.5257 272.85C89.6661 271.625 86.9281 271.013 83.3117 271.013C79.6952 271.013 76.9572 271.625 75.0976 272.85C73.2379 274.075 72.3081 275.838 72.3081 278.138C72.3081 280.41 73.2379 282.149 75.0976 283.355Z" fill="#FFF9F2"/>
<path d="M98.6607 278.113C98.6607 274.841 97.3244 272.293 94.6518 270.469C92.0627 268.694 88.4344 267.779 83.7669 267.723L83.3121 267.721C78.4248 267.721 74.6445 268.637 71.9719 270.469C69.3086 272.293 67.9773 274.85 67.9773 278.141L67.981 278.443C68.0619 281.543 69.3971 283.976 71.9862 285.743C74.5843 287.5 78.2085 288.405 82.8586 288.46L83.3121 288.463C88.0467 288.463 91.7421 287.612 94.3982 285.91L94.6518 285.743C97.2408 283.976 98.576 281.534 98.6569 278.417L98.6607 278.113ZM93.0538 278.113C93.0538 276.24 92.3255 274.896 90.8304 273.924L90.8241 273.92C89.2658 272.894 86.8203 272.293 83.3121 272.293C79.8038 272.293 77.3579 272.894 75.7995 273.92C74.3122 274.9 73.5842 276.254 73.5842 278.141C73.5843 279.993 74.306 281.323 75.7921 282.287H75.7914C77.3526 283.29 79.8027 283.877 83.3121 283.877V285.154L82.6443 285.146C79.4662 285.078 77.0094 284.52 75.2744 283.469L75.098 283.358C73.2966 282.19 72.3671 280.521 72.3108 278.353L72.3083 278.141C72.3083 275.913 73.1809 274.189 74.9261 272.97L75.098 272.854C76.9577 271.629 79.6958 271.017 83.3121 271.017L83.9794 271.024C87.267 271.095 89.7828 271.705 91.5262 272.854C93.395 274.069 94.3297 275.823 94.3297 278.113L94.3266 278.324C94.2699 280.493 93.3366 282.167 91.5262 283.344L91.3493 283.456C89.4947 284.588 86.8155 285.154 83.3121 285.154V283.877C86.8228 283.877 89.2715 283.284 90.8316 282.273C92.3294 281.298 93.0537 279.962 93.0538 278.113ZM99.9366 278.113C99.9365 281.794 98.3952 284.734 95.3707 286.797L95.3682 286.799C92.4015 288.812 88.3319 289.74 83.3121 289.74C78.3093 289.74 74.2462 288.811 71.2717 286.8L71.2673 286.797C68.2452 284.736 66.7015 281.806 66.7014 278.141C66.7014 274.439 68.2323 271.483 71.2505 269.417L71.5321 269.229C74.4737 267.324 78.4471 266.444 83.3121 266.444C88.3323 266.444 92.4026 267.381 95.3701 269.415H95.3707C98.3964 271.479 99.9366 274.424 99.9366 278.113Z" fill="#FFF9F2"/>
<path d="M35.856 288.14V268.029H63.0213V288.14H58.7741V271.338H40.1032V288.14H35.856Z" fill="#FFF9F2"/>
<path d="M63.0216 268.029H35.8562V288.141H40.1037V271.339H58.7747V288.141H63.0216V268.029ZM64.2975 289.417H57.4988V272.616H41.3796V289.417H34.5803V266.753H64.2975V289.417Z" fill="#FFF9F2"/>
<path d="M1.27466 278.081C1.27466 274.837 2.60162 272.299 5.25555 270.466C7.90948 268.633 11.6147 267.717 16.3712 267.717C20.3428 267.717 23.5387 268.297 25.959 269.456C28.3793 270.616 29.9118 272.313 30.5566 274.547L26.0571 275.445C25.1226 272.49 21.894 271.013 16.3712 271.013C12.8482 271.013 10.1709 271.621 8.33934 272.836C6.5171 274.042 5.60598 275.791 5.60598 278.081C5.60598 280.382 6.51243 282.135 8.32532 283.341C10.1476 284.547 12.8295 285.15 16.3712 285.15C22.1276 285.15 25.3749 283.635 26.1132 280.606L30.5566 281.475C29.9305 283.794 28.4167 285.538 26.0151 286.707C23.6228 287.875 20.4082 288.46 16.3712 288.46C11.5773 288.46 7.86275 287.548 5.22751 285.725C2.59228 283.892 1.27466 281.345 1.27466 278.081Z" fill="#FFF9F2"/>
<path d="M5.60689 278.085C5.60689 275.866 6.46202 274.155 8.17235 272.954L8.34056 272.84C10.1721 271.624 12.8492 271.017 16.3721 271.017L16.883 271.02C21.9262 271.107 24.9531 272.492 25.9636 275.175L26.0583 275.448L30.5575 274.551C29.9128 272.316 28.3802 270.619 25.9599 269.46C23.5396 268.3 20.3437 267.72 16.3721 267.72C11.6157 267.72 7.91068 268.637 5.25677 270.469L5.01131 270.643C2.52077 272.461 1.27588 274.942 1.27588 278.085L1.27962 278.389C1.35941 281.506 2.67586 283.953 5.22874 285.728C7.78165 287.494 11.3474 288.405 15.9261 288.46L16.3721 288.463C20.4091 288.463 23.6237 287.879 26.016 286.71C28.4175 285.541 29.9314 283.798 30.5575 281.479L26.1144 280.61C25.3761 283.639 22.1284 285.154 16.3721 285.154V283.877C19.1642 283.877 21.2029 283.505 22.5858 282.86C23.9176 282.239 24.6117 281.386 24.8747 280.307L25.1631 279.122L32.1462 280.489L31.7892 281.812C31.0553 284.529 29.2656 286.548 26.5742 287.858L26.5735 287.858C23.9405 289.143 20.5109 289.74 16.3721 289.74C11.4403 289.74 7.4332 288.805 4.50296 286.778L4.50046 286.777C1.51559 284.701 8.57339e-05 281.758 0 278.085C0 274.424 1.53025 271.491 4.53161 269.418C7.47775 267.384 11.4733 266.444 16.3721 266.444C20.4503 266.444 23.8559 267.037 26.5106 268.308C29.2033 269.598 31.0218 271.556 31.7836 274.196L32.1686 275.531L25.1868 276.924L24.8416 275.833C24.1855 273.759 21.8232 272.293 16.3721 272.293C12.9621 272.293 10.5771 272.887 9.04578 273.903L9.04391 273.904C7.59902 274.861 6.88277 276.198 6.88277 278.085C6.88285 279.985 7.59783 281.325 9.03021 282.279L9.17536 282.372C10.7012 283.322 13.0468 283.877 16.3721 283.877V285.154L15.718 285.146C12.4985 285.075 10.0346 284.475 8.32623 283.344C6.57001 282.176 5.66428 280.494 5.60938 278.299L5.60689 278.085Z" fill="#FFF9F2"/>
<path d="M324.655 226.851H328.496C328.496 228.552 327.781 229.883 326.351 230.845C324.931 231.798 322.959 232.274 320.436 232.274C317.913 232.274 315.941 231.798 314.52 230.845C313.1 229.883 312.39 228.552 312.39 226.851H316.216C316.216 227.739 316.59 228.435 317.338 228.939C318.095 229.444 319.127 229.696 320.436 229.696C321.744 229.696 322.772 229.444 323.519 228.939C324.276 228.435 324.655 227.739 324.655 226.851ZM306.418 253.194V233.101H310.61V248.57L329.533 233.101H333.724V253.194H329.533V237.753L310.61 253.194H306.418Z" fill="#FFF9F2"/>
<path d="M329.533 233.104L310.61 248.573V233.104H306.418V253.197H310.61L329.533 237.756V253.197H333.724V233.104H329.533ZM323.379 226.854V225.579H329.772V226.854C329.772 228.985 328.84 230.71 327.064 231.905L327.062 231.907C325.353 233.053 323.098 233.553 320.436 233.553C317.773 233.553 315.518 233.053 313.81 231.907L313.805 231.904C312.038 230.707 311.114 228.982 311.114 226.854V225.579H317.493V226.854C317.493 227.307 317.647 227.61 318.046 227.881L318.138 227.939C318.616 228.224 319.347 228.424 320.436 228.424V229.699L320.193 229.696C319.079 229.668 318.175 229.448 317.483 229.034L317.338 228.942C316.591 228.438 316.217 227.742 316.217 226.854H312.39C312.39 228.554 313.1 229.886 314.52 230.848C315.852 231.741 317.668 232.216 319.969 232.272L320.436 232.277C322.801 232.277 324.682 231.858 326.078 231.021L326.351 230.848C327.781 229.886 328.496 228.554 328.496 226.854H324.655L324.65 227.019C324.606 227.828 324.229 228.469 323.519 228.942L323.376 229.034C322.642 229.477 321.662 229.699 320.436 229.699V228.424C321.599 228.424 322.344 228.196 322.806 227.885L322.812 227.881C323.224 227.606 323.379 227.303 323.379 226.854ZM335 254.473H328.257V240.443L311.417 254.186L311.064 254.473H305.143V231.828H311.886V245.882L329.078 231.828H335V254.473Z" fill="#FFF9F2"/>
<path d="M54.7767 253.518C49.9081 253.518 46.1328 252.611 43.4508 250.798C40.7782 248.974 39.4419 246.44 39.4419 243.196C39.4419 239.905 40.7735 237.348 43.4368 235.525C46.1094 233.692 49.8894 232.776 54.7767 232.776C59.6641 232.776 63.4441 233.692 66.1167 235.525C68.7893 237.348 70.1256 239.896 70.1256 243.168C70.1256 246.431 68.7893 248.974 66.1167 250.798C63.4441 252.611 59.6641 253.518 54.7767 253.518ZM46.5626 248.413C48.4223 249.61 51.1603 250.208 54.7767 250.208C58.3932 250.208 61.1312 249.605 62.9908 248.399C64.8598 247.184 65.7943 245.44 65.7943 243.168C65.7943 240.877 64.8598 239.124 62.9908 237.909C61.1312 236.684 58.3932 236.072 54.7767 236.072C51.1603 236.072 48.4223 236.684 46.5626 237.909C44.703 239.134 43.7732 240.896 43.7732 243.196C43.7732 245.468 44.703 247.207 46.5626 248.413Z" fill="#FFF9F2"/>
<path d="M70.1258 243.169C70.1258 239.897 68.7895 237.349 66.1168 235.525C63.5278 233.75 59.8995 232.835 55.232 232.779L54.7772 232.777C49.8899 232.777 46.1096 233.693 43.437 235.525C40.7737 237.349 39.4424 239.906 39.4424 243.197L39.4461 243.499C39.527 246.599 40.8622 249.032 43.4513 250.799C46.0494 252.556 49.6736 253.461 54.3237 253.516L54.7772 253.519C59.5118 253.519 63.2072 252.668 65.8633 250.966L66.1168 250.799C68.7059 249.032 70.0411 246.59 70.122 243.473L70.1258 243.169ZM64.5189 243.169C64.5189 241.296 63.7906 239.952 62.2954 238.98L62.2892 238.976C60.7309 237.95 58.2854 237.349 54.7772 237.349C51.2689 237.349 48.823 237.95 47.2646 238.976C45.7773 239.956 45.0493 241.31 45.0493 243.197C45.0494 245.049 45.7711 246.379 47.2571 247.343H47.2565C48.8177 248.346 51.2678 248.933 54.7772 248.933V250.21L54.1094 250.202C50.9313 250.134 48.4745 249.576 46.7394 248.525L46.5631 248.414C44.7617 247.246 43.8322 245.577 43.7759 243.409L43.7734 243.197C43.7734 240.969 44.646 239.245 46.3912 238.026L46.5631 237.91C48.4227 236.685 51.1609 236.073 54.7772 236.073L55.4444 236.08C58.732 236.151 61.2479 236.761 62.9913 237.91C64.8601 239.125 65.7948 240.879 65.7948 243.169L65.7916 243.38C65.735 245.549 64.8017 247.223 62.9913 248.4L62.8144 248.512C60.9598 249.644 58.2806 250.21 54.7772 250.21V248.933C58.2879 248.933 60.7366 248.34 62.2967 247.329C63.7945 246.354 64.5188 245.018 64.5189 243.169ZM71.4017 243.169C71.4016 246.85 69.8603 249.79 66.8358 251.853L66.8333 251.855C63.8666 253.868 59.797 254.796 54.7772 254.796C49.7744 254.796 45.7113 253.867 42.7367 251.856L42.7324 251.853C39.7102 249.792 38.1666 246.862 38.1665 243.197C38.1665 239.495 39.6974 236.539 42.7156 234.473L42.9972 234.285C45.9388 232.38 49.9122 231.5 54.7772 231.5C59.7974 231.5 63.8677 232.437 66.8352 234.471H66.8358C69.8615 236.535 71.4017 239.48 71.4017 243.169Z" fill="#FFF9F2"/>
<path d="M273.542 253.199V233.087H277.733V248.571L296.656 233.087H300.847V253.199H296.656V237.744L277.733 253.199H273.542Z" fill="#FFF9F2"/>
<path d="M296.656 233.088L277.732 248.571V233.088H273.541V253.2H277.732L296.656 237.744V253.2H300.847V233.088H296.656ZM302.122 254.476H295.38V240.434L278.539 254.189L278.187 254.476H272.265V231.812H279.008V245.878L296.2 231.812H302.122V254.476Z" fill="#FFF9F2"/>
<path d="M238.595 253.199V233.087H242.815V242.68L258.864 233.087H265.466L249.136 242.68L265.957 253.199H259.033L242.815 243.143V253.199H238.595Z" fill="#FFF9F2"/>
<path d="M238.596 233.088V253.2H242.815V243.144L259.033 253.2H265.957L249.137 242.681L265.467 233.088H258.865L242.815 242.681V233.088H238.596ZM244.091 240.431L258.513 231.812H270.16L251.598 242.715L270.406 254.476H258.67L244.091 245.436V254.476H237.32V231.812H244.091V240.431Z" fill="#FFF9F2"/>
<path d="M204.016 243.142C204.016 239.898 205.343 237.36 207.997 235.527C210.651 233.694 214.356 232.778 219.112 232.778C223.084 232.778 226.28 233.358 228.7 234.517C231.121 235.677 232.653 237.374 233.298 239.608L228.798 240.506C227.864 237.551 224.635 236.074 219.112 236.074C215.589 236.074 212.912 236.682 211.081 237.897C209.258 239.103 208.347 240.852 208.347 243.142C208.347 245.443 209.254 247.196 211.067 248.402C212.889 249.608 215.571 250.211 219.112 250.211C224.869 250.211 228.116 248.696 228.854 245.667L233.298 246.536C232.672 248.855 231.158 250.599 228.756 251.768C226.364 252.936 223.149 253.521 219.112 253.521C214.319 253.521 210.604 252.609 207.969 250.786C205.333 248.953 204.016 246.406 204.016 243.142Z" fill="#FFF9F2"/>
<path d="M208.347 243.141C208.347 240.922 209.202 239.211 210.912 238.01L211.081 237.896C212.912 236.68 215.589 236.073 219.112 236.073L219.623 236.076C224.666 236.163 227.693 237.548 228.704 240.231L228.798 240.504L233.298 239.607C232.653 237.372 231.12 235.675 228.7 234.516C226.28 233.356 223.084 232.777 219.112 232.777C214.356 232.777 210.651 233.693 207.997 235.525L207.751 235.699C205.261 237.517 204.016 239.998 204.016 243.141L204.02 243.445C204.099 246.562 205.416 249.009 207.969 250.784C210.522 252.55 214.087 253.461 218.666 253.516L219.112 253.519C223.149 253.519 226.364 252.935 228.756 251.766C231.157 250.597 232.671 248.854 233.298 246.535L228.854 245.666C228.116 248.695 224.868 250.21 219.112 250.21V248.933C221.904 248.933 223.943 248.561 225.326 247.916C226.658 247.295 227.352 246.442 227.615 245.363L227.903 244.178L234.886 245.545L234.529 246.868C233.795 249.586 232.006 251.604 229.314 252.914L229.314 252.914C226.68 254.199 223.251 254.796 219.112 254.796C214.18 254.796 210.173 253.861 207.243 251.834L207.24 251.833C204.256 249.757 202.74 246.814 202.74 243.141C202.74 239.48 204.27 236.547 207.272 234.474C210.218 232.44 214.213 231.5 219.112 231.5C223.19 231.5 226.596 232.093 229.251 233.364C231.943 234.654 233.762 236.612 234.524 239.252L234.909 240.587L227.927 241.98L227.582 240.889C226.925 238.815 224.563 237.349 219.112 237.349C215.702 237.349 213.317 237.943 211.786 238.959L211.784 238.961C210.339 239.917 209.623 241.254 209.623 243.141C209.623 245.041 210.338 246.381 211.77 247.335L211.915 247.428C213.441 248.378 215.787 248.933 219.112 248.933V250.21L218.458 250.202C215.238 250.131 212.775 249.531 211.066 248.4C209.31 247.232 208.404 245.55 208.349 243.355L208.347 243.141Z" fill="#FFF9F2"/>
<path d="M172.302 253.199V233.087H191.253C193.459 233.087 195.192 233.536 196.454 234.434C197.715 235.331 198.346 236.58 198.346 238.178C198.346 239.244 198.038 240.189 197.421 241.011C196.813 241.834 195.898 242.433 194.673 242.807C196.225 243.134 197.398 243.727 198.192 244.588C198.986 245.438 199.383 246.5 199.383 247.771C199.383 249.492 198.734 250.829 197.435 251.782C196.136 252.727 194.267 253.199 191.828 253.199H172.302ZM190.426 236.047H176.465V241.502H190.51C191.613 241.502 192.477 241.268 193.104 240.801C193.73 240.324 194.043 239.642 194.043 238.753C194.043 236.949 192.837 236.047 190.426 236.047ZM190.847 244.489H176.465V250.24H190.903C192.295 250.24 193.318 250.001 193.973 249.524C194.627 249.048 194.954 248.337 194.954 247.393C194.954 246.439 194.603 245.719 193.903 245.233C193.211 244.737 192.192 244.489 190.847 244.489Z" fill="#FFF9F2"/>
<path d="M199.383 247.772C199.383 246.58 199.034 245.573 198.336 244.75L198.192 244.588C197.398 243.728 196.225 243.135 194.673 242.808C195.898 242.434 196.813 241.835 197.421 241.012C197.999 240.241 198.306 239.363 198.342 238.378L198.346 238.179C198.346 236.68 197.791 235.49 196.683 234.607L196.454 234.434C195.192 233.537 193.459 233.088 191.253 233.088V231.812C193.615 231.812 195.641 232.29 197.193 233.394C198.804 234.54 199.622 236.183 199.622 238.179C199.622 239.507 199.231 240.719 198.446 241.77L198.447 241.77C198.226 242.069 197.977 242.34 197.704 242.586C198.24 242.901 198.718 243.277 199.129 243.722H199.128C200.162 244.831 200.659 246.212 200.659 247.772C200.659 249.867 199.841 251.6 198.19 252.812L198.185 252.816C196.581 253.981 194.405 254.476 191.828 254.476H171.026V231.812H191.253V233.088H172.302V253.2H191.828L192.279 253.194C194.35 253.142 195.986 252.729 197.185 251.955L197.435 251.783C198.653 250.889 199.3 249.658 199.376 248.09L199.383 247.772ZM193.678 247.393C193.678 246.801 193.488 246.499 193.176 246.283L193.16 246.271C192.778 245.998 192.07 245.767 190.847 245.767H177.741V248.964H190.903V250.241H176.465V244.491H190.847C192.193 244.491 193.211 244.738 193.903 245.234C194.604 245.72 194.954 246.44 194.954 247.393C194.954 248.338 194.627 249.048 193.973 249.525C193.319 250.002 192.295 250.241 190.903 250.241V248.964C192.199 248.964 192.893 248.733 193.221 248.493C193.488 248.299 193.678 248.007 193.678 247.393ZM192.767 238.754C192.767 238.165 192.589 237.907 192.374 237.746C192.089 237.533 191.509 237.324 190.427 237.324H177.741V240.226H190.511V241.503H176.465V236.048H190.427C192.837 236.048 194.043 236.95 194.043 238.754L194.039 238.918C194.003 239.727 193.691 240.355 193.104 240.802C192.478 241.269 191.613 241.503 190.511 241.503V240.226C191.443 240.226 192.002 240.028 192.334 239.783C192.597 239.581 192.767 239.3 192.767 238.754Z" fill="#FFF9F2"/>
<path d="M152.381 253.518C147.513 253.518 143.738 252.611 141.056 250.798C138.383 248.974 137.047 246.44 137.047 243.196C137.047 239.905 138.378 237.348 141.042 235.525C143.714 233.692 147.494 232.776 152.381 232.776C157.269 232.776 161.049 233.692 163.721 235.525C166.394 237.348 167.73 239.896 167.73 243.168C167.73 246.431 166.394 248.974 163.721 250.798C161.049 252.611 157.269 253.518 152.381 253.518ZM144.167 248.413C146.027 249.61 148.765 250.208 152.381 250.208C155.998 250.208 158.736 249.605 160.596 248.399C162.465 247.184 163.399 245.44 163.399 243.168C163.399 240.877 162.465 239.124 160.596 237.909C158.736 236.684 155.998 236.072 152.381 236.072C148.765 236.072 146.027 236.684 144.167 237.909C142.308 239.134 141.378 240.896 141.378 243.196C141.378 245.468 142.308 247.207 144.167 248.413Z" fill="#FFF9F2"/>
<path d="M167.731 243.169C167.731 239.897 166.395 237.349 163.722 235.525C161.133 233.75 157.505 232.835 152.837 232.779L152.383 232.777C147.495 232.777 143.715 233.693 141.042 235.525C138.379 237.349 137.048 239.906 137.048 243.197L137.052 243.499C137.132 246.599 138.468 249.032 141.057 250.799C143.655 252.556 147.279 253.461 151.929 253.516L152.383 253.519C157.117 253.519 160.813 252.668 163.469 250.966L163.722 250.799C166.311 249.032 167.647 246.59 167.728 243.473L167.731 243.169ZM162.124 243.169C162.124 241.296 161.396 239.952 159.901 238.98L159.895 238.976C158.336 237.95 155.891 237.349 152.383 237.349C148.874 237.349 146.428 237.95 144.87 238.976C143.383 239.956 142.655 241.31 142.655 243.197C142.655 245.049 143.377 246.379 144.863 247.343H144.862C146.423 248.346 148.873 248.933 152.383 248.933V250.21L151.715 250.202C148.537 250.134 146.08 249.576 144.345 248.525L144.169 248.414C142.367 247.246 141.438 245.577 141.381 243.409L141.379 243.197C141.379 240.969 142.252 239.245 143.997 238.026L144.169 237.91C146.028 236.685 148.766 236.073 152.383 236.073L153.05 236.08C156.338 236.151 158.853 236.761 160.597 237.91C162.466 239.125 163.4 240.879 163.4 243.169L163.397 243.38C163.34 245.549 162.407 247.223 160.597 248.4L160.42 248.512C158.565 249.644 155.886 250.21 152.383 250.21V248.933C155.893 248.933 158.342 248.34 159.902 247.329C161.4 246.354 162.124 245.018 162.124 243.169ZM169.007 243.169C169.007 246.85 167.466 249.79 164.441 251.853L164.439 251.855C161.472 253.868 157.402 254.796 152.383 254.796C147.38 254.796 143.317 253.867 140.342 251.856L140.338 251.853C137.316 249.792 135.772 246.862 135.772 243.197C135.772 239.495 137.303 236.539 140.321 234.473L140.603 234.285C143.544 232.38 147.518 231.5 152.383 231.5C157.403 231.5 161.473 232.437 164.441 234.471H164.441C167.467 236.535 169.007 239.48 169.007 243.169Z" fill="#FFF9F2"/>
<path d="M108.902 253.199V233.087H113.121V242.68L129.171 233.087H135.773L119.443 242.68L136.263 253.199H129.339L113.121 243.143V253.199H108.902Z" fill="#FFF9F2"/>
<path d="M108.901 233.088V253.2H113.121V243.144L129.338 253.2H136.263L119.442 242.681L135.772 233.088H129.17L113.121 242.681V233.088H108.901ZM114.396 240.431L128.818 231.812H140.465L121.903 242.715L140.711 254.476H128.975L114.396 245.436V254.476H107.625V231.812H114.396V240.431Z" fill="#FFF9F2"/>
<path d="M74.5293 243.14C74.5293 239.896 75.8563 237.357 78.5102 235.525C81.1641 233.692 84.8693 232.776 89.6258 232.776C93.5974 232.776 96.7933 233.355 99.2136 234.515C101.634 235.674 103.166 237.371 103.811 239.606L99.3117 240.503C98.3773 237.549 95.1486 236.072 89.6258 236.072C86.1028 236.072 83.4256 236.679 81.594 237.895C79.7717 239.101 78.8606 240.849 78.8606 243.14C78.8606 245.44 79.7671 247.193 81.58 248.399C83.4022 249.605 86.0842 250.208 89.6258 250.208C95.3822 250.208 98.6296 248.694 99.3678 245.664L103.811 246.534C103.185 248.853 101.671 250.596 99.2697 251.765C96.8774 252.934 93.6628 253.518 89.6258 253.518C84.832 253.518 81.1174 252.607 78.4822 250.783C75.8469 248.951 74.5293 246.403 74.5293 243.14Z" fill="#FFF9F2"/>
<path d="M78.8603 243.141C78.8603 240.922 79.7154 239.211 81.4258 238.01L81.594 237.896C83.4256 236.68 86.1026 236.073 89.6255 236.073L90.1364 236.076C95.1797 236.163 98.2065 237.548 99.2171 240.231L99.3117 240.504L103.811 239.607C103.166 237.372 101.634 235.675 99.2133 234.516C96.793 233.356 93.5971 232.777 89.6255 232.777C84.8692 232.777 81.1641 233.693 78.5102 235.525L78.2647 235.699C75.7742 237.517 74.5293 239.998 74.5293 243.141L74.533 243.445C74.6128 246.562 75.9293 249.009 78.4822 250.784C81.0351 252.55 84.6008 253.461 89.1795 253.516L89.6255 253.519C93.6625 253.519 96.8771 252.935 99.2694 251.766C101.671 250.597 103.185 248.854 103.811 246.535L99.3678 245.666C98.6295 248.695 95.3818 250.21 89.6255 250.21V248.933C92.4176 248.933 94.4563 248.561 95.8392 247.916C97.171 247.295 97.8651 246.442 98.1281 245.363L98.4165 244.178L105.4 245.545L105.043 246.868C104.309 249.586 102.519 251.604 99.8276 252.914L99.827 252.914C97.1939 254.199 93.7643 254.796 89.6255 254.796C84.6937 254.796 80.6866 253.861 77.7564 251.834L77.7539 251.833C74.769 249.757 73.2535 246.814 73.2534 243.141C73.2534 239.48 74.7837 236.547 77.785 234.474C80.7312 232.44 84.7267 231.5 89.6255 231.5C93.7037 231.5 97.1094 232.093 99.764 233.364C102.457 234.654 104.275 236.612 105.037 239.252L105.422 240.587L98.4402 241.98L98.0951 240.889C97.4389 238.815 95.0767 237.349 89.6255 237.349C86.2155 237.349 83.8305 237.943 82.2992 238.959L82.2973 238.961C80.8524 239.917 80.1362 241.254 80.1362 243.141C80.1363 245.041 80.8512 246.381 82.2836 247.335L82.4288 247.428C83.9546 248.378 86.3002 248.933 89.6255 248.933V250.21L88.9714 250.202C85.7519 250.131 83.288 249.531 81.5796 248.4C79.8234 247.232 78.9177 245.55 78.8628 243.355L78.8603 243.141Z" fill="#FFF9F2"/>
<path d="M1.70459 253.199V233.087H6.106L18.329 246.677L30.4399 233.087H34.8133V253.199H30.6782V238.066L20.1092 250.127H16.4367L5.83967 238.178V253.199H1.70459Z" fill="#FFF9F2"/>
<path d="M34.8127 233.088H30.4393L18.3284 246.678L6.10539 233.088H1.70398V253.2H5.83937V238.179L16.4364 250.128H20.1089L30.6779 238.067V253.2H34.8127V233.088ZM36.0885 254.476H29.402V241.459L20.687 251.405H15.8626L7.11525 241.541V254.476H0.428101V231.812H6.67355L18.3234 244.765L29.8674 231.812H36.0885V254.476Z" fill="#FFF9F2"/>
<path fill-rule="evenodd" clip-rule="evenodd" d="M155.007 219.647H148.012V213.223H155.007V219.647Z" fill="#FFF9F2"/>
<path fill-rule="evenodd" clip-rule="evenodd" d="M118.526 205.117V196.944H125.31V205.103L136.269 196.944H146.402L131.616 207.618L146.439 219.607H136.465L136.114 219.324L125.31 210.585V219.607H118.526V210.628L107.34 219.607H97.376L112.25 207.664L97.5858 196.944H107.654L118.526 205.117Z" fill="#FFF9F2"/>
<path fill-rule="evenodd" clip-rule="evenodd" d="M95.958 219.607H89.159V212.596H82.8568L74.6013 219.607H65.1714L74.0226 212.146C72.6455 211.826 71.4263 211.274 70.395 210.453L70.3921 210.451C68.6214 209.034 67.7407 207.095 67.7407 204.77C67.7407 202.404 68.5888 200.426 70.3364 198.988C72.0519 197.576 74.311 196.944 76.9644 196.944H95.958V219.607ZM77.6509 202.611C76.4428 202.611 75.715 202.875 75.2861 203.223L75.2787 203.229C74.8969 203.534 74.6521 203.982 74.6521 204.77C74.6521 205.584 74.9024 206.047 75.2861 206.358C75.715 206.706 76.4428 206.972 77.6509 206.972H89.159V202.611H77.6509Z" fill="#FFF9F2"/>
<path d="M64.138 219.607H57.3386V202.807H44.7731C44.6375 206.717 44.395 209.672 44.0292 211.624C43.636 213.722 42.8903 215.491 41.7205 216.839L41.7143 216.847L41.7073 216.854C40.7831 217.888 39.6872 218.652 38.4259 219.121L38.4255 219.12C37.1943 219.581 35.6865 219.803 33.9516 219.832L32.7706 219.852L32.2175 213.954L33.5022 213.848C34.3115 213.78 34.9404 213.636 35.4159 213.444L35.4221 213.442C35.8364 213.278 36.1691 213.023 36.4399 212.66L36.4444 212.653L36.4486 212.648C36.9015 212.055 37.2867 211.086 37.504 209.617C37.7254 208.12 37.8928 205.532 37.9955 201.804V201.8L38.1463 196.944H64.138V219.607Z" fill="#FFF9F2"/>
<path d="M30.1449 219.607H23.347V202.806H7.22791V219.607H0.428101V196.944H30.1449V219.607Z" fill="#FFF9F2"/>
<path d="M133.383 183.699V179.829H137.826V183.699H133.383Z" fill="#FFF9F2"/>
<path fill-rule="evenodd" clip-rule="evenodd" d="M139.101 184.977H132.106V178.553H139.101V184.977Z" fill="#FFF9F2"/>
<path fill-rule="evenodd" clip-rule="evenodd" d="M113.977 162C118.997 162 123.067 162.937 126.035 164.971C129.061 167.035 130.601 169.98 130.601 173.669C130.601 177.35 129.06 180.29 126.035 182.353L126.033 182.355C123.066 184.368 118.996 185.296 113.977 185.296C108.974 185.296 104.911 184.368 101.936 182.356L101.932 182.353C98.9099 180.292 97.3661 177.362 97.366 173.697C97.366 169.995 98.8969 167.039 101.915 164.972L102.197 164.785C105.138 162.88 109.112 162 113.977 162ZM113.977 167.849C110.468 167.849 108.023 168.45 106.464 169.476C104.977 170.456 104.249 171.81 104.249 173.697C104.249 175.549 104.971 176.879 106.457 177.843H106.456C108.017 178.846 110.467 179.433 113.977 179.433C117.487 179.433 119.936 178.84 121.496 177.829C122.994 176.854 123.718 175.518 123.718 173.669C123.718 171.796 122.99 170.452 121.495 169.48L121.489 169.476C119.93 168.45 117.485 167.849 113.977 167.849Z" fill="#FFF9F2"/>
<path fill-rule="evenodd" clip-rule="evenodd" d="M95.9777 168.172H84.3569V184.974H77.5582V168.172H65.9519V162.309H95.9777V168.172Z" fill="#FFF9F2"/>
<path fill-rule="evenodd" clip-rule="evenodd" d="M62.813 168.004H42.8243V170.556H60.9344V176.237H42.8243V179.293H63.0369V184.974H36.1372V162.309H62.813V168.004Z" fill="#FFF9F2"/>
<path fill-rule="evenodd" clip-rule="evenodd" d="M32.3462 184.974H25.5471V168.172H12.9812C12.8457 172.083 12.6036 175.038 12.2377 176.99C11.8445 179.088 11.0985 180.857 9.92866 182.205L9.92246 182.213L9.91544 182.22C8.99123 183.254 7.89565 184.018 6.63446 184.487L6.63363 184.486C5.40251 184.948 3.89492 185.169 2.16012 185.198L0.978755 185.218L0.425659 179.32L1.71029 179.214C2.51968 179.146 3.14847 179.002 3.62403 178.81L3.63023 178.808C4.04463 178.644 4.37765 178.389 4.64843 178.026L4.65257 178.019L4.65711 178.014C5.11002 177.421 5.49528 176.452 5.71249 174.983C5.93389 173.485 6.10131 170.897 6.20404 167.169V167.165L6.35481 162.309H32.3462V184.974Z" fill="#FFF9F2"/>
</svg>
