<svg width="113" height="32" viewBox="0 0 113 32" fill="none" xmlns="http://www.w3.org/2000/svg">
<path d="M32 0H0V32H32V0Z" fill="url(#paint0_linear_204_6650)"/>
<path fill-rule="evenodd" clip-rule="evenodd" d="M17.5797 13.3011C18.8281 9.39266 22.3543 7.0282 25.4559 8.02071L25.5282 8.04513C28.5808 9.07612 30.0501 13.0179 28.8114 16.8959L28.7519 17.0776C27.7718 19.9457 25.5567 21.944 23.2166 22.3316L22.9558 23.1509C22.8942 23.1312 22.7815 23.1245 22.5935 23.2125C22.4024 23.302 22.1705 23.4747 21.9207 23.7467C21.5351 24.1664 21.154 24.7721 20.8484 25.5006L21.363 25.6657L20.0954 29.6345L17.4284 28.781L18.696 24.8121L19.0778 24.9342C19.2511 24.1633 19.2921 23.4493 19.2214 22.8834C19.1755 22.5163 19.087 22.2402 18.9831 22.0562C18.881 21.8755 18.785 21.8161 18.7233 21.7964L18.985 20.9761C17.2696 19.2659 16.6331 16.2655 17.5797 13.3011ZM20.2907 21.9146C20.3769 22.1685 20.4369 22.4425 20.4724 22.7261C20.5026 22.9678 20.516 23.2241 20.5144 23.4908C20.6676 23.2727 20.8282 23.0725 20.9929 22.8931C21.1867 22.6822 21.3941 22.4925 21.6121 22.3355C21.3851 22.2981 21.1588 22.2469 20.9353 22.1753L20.863 22.1519C20.6654 22.0852 20.4748 22.0049 20.2907 21.9146ZM24.8162 10.0237C23.2241 9.51427 20.6201 10.6839 19.5798 13.9408C18.5395 17.1979 19.9828 19.6637 21.575 20.1733C23.1671 20.6828 25.7712 19.5122 26.8114 16.2553C27.8515 12.9983 26.4083 10.5333 24.8162 10.0237Z" fill="#FFF9F2"/>
<path fill-rule="evenodd" clip-rule="evenodd" d="M6.14295 5.13783C9.03904 3.64779 12.9059 5.39866 14.7799 9.04808C16.2012 11.8162 16.0659 14.8804 14.6549 16.85L15.0484 17.6166C14.9909 17.6463 14.9056 17.7203 14.8346 17.9155C14.7624 18.114 14.7209 18.4005 14.7359 18.77C14.7592 19.3398 14.9158 20.0381 15.2135 20.77L15.5709 20.5874L17.4743 24.2926L14.984 25.5739L13.0806 21.8687L13.5611 21.6206C13.1398 20.9522 12.6647 20.4176 12.2154 20.0669C11.9239 19.8395 11.6658 19.7067 11.4624 19.6499C11.2633 19.5944 11.1538 19.6204 11.0962 19.6499L10.7026 18.8852C8.33127 18.8876 5.81901 17.2814 4.38119 14.6146L4.29232 14.4447C2.43304 10.8236 3.23417 6.69386 6.07557 5.17396L6.14295 5.13783ZM13.5211 17.9916C13.3547 18.1108 13.1802 18.2206 12.9966 18.3188L12.9292 18.3549C12.7201 18.4625 12.5048 18.5502 12.2866 18.6245C12.5275 18.7434 12.7639 18.8955 12.9898 19.0717C13.1821 19.2218 13.3727 19.3941 13.5601 19.5845C13.5145 19.3211 13.4861 19.0657 13.4761 18.8217C13.4645 18.5363 13.4778 18.2561 13.5211 17.9916ZM12.9126 10.009C11.351 6.96779 8.58958 6.24303 7.10294 7.00799C5.61634 7.77298 4.59808 10.4425 6.15955 13.4837C7.72114 16.525 10.4826 17.2497 11.9693 16.4848C13.4558 15.7197 14.4742 13.0502 12.9126 10.009Z" fill="#FFF9F2"/>
<path d="M19.7517 6.27067L17.0455 8.97972L14.3385 6.27067L17.0455 3.56065L19.7517 6.27067Z" fill="#FFF9F2"/>
<path d="M72.5142 31.1143C72.5142 30.8874 72.5901 30.6966 72.742 30.542C72.8965 30.3847 73.1192 30.306 73.4102 30.306C73.7011 30.306 73.9226 30.3847 74.0745 30.542C74.229 30.6966 74.3062 30.89 74.3062 31.1221C74.3062 31.3489 74.229 31.541 74.0745 31.6983C73.9226 31.853 73.7011 31.9303 73.4102 31.9303C73.1192 31.9303 72.8965 31.8517 72.742 31.6944C72.5901 31.5346 72.5142 31.3412 72.5142 31.1143Z" fill="#FFF9F2"/>
<path d="M65.8442 27.5525V26.2531H72.0778V27.5525H69.7991V31.884H68.1191V27.5525H65.8442Z" fill="#FFF9F2"/>
<path d="M59.6064 31.884V26.2531H63.4841C64.205 26.2531 64.7418 26.4375 65.0946 26.8061C65.4473 27.1723 65.6237 27.6905 65.6237 28.3608C65.6237 28.9873 65.4512 29.4927 65.1062 29.8768C64.7612 30.261 64.2089 30.4531 63.4493 30.4531H61.2595V31.884H59.6064ZM61.2595 29.3625H63.009C63.3643 29.3625 63.6141 29.2761 63.7583 29.1033C63.9025 28.9306 63.9746 28.6947 63.9746 28.3956C63.9746 28.0811 63.9012 27.8439 63.7544 27.684C63.6102 27.5216 63.3618 27.4404 63.009 27.4404H61.2595V29.3625Z" fill="#FFF9F2"/>
<path d="M51.1328 29.0531V29.0067C51.1328 28.063 51.4984 27.3489 52.2297 26.8642C52.9635 26.3795 53.8672 26.1371 54.9409 26.1371C56.0146 26.1371 56.9196 26.3795 57.656 26.8642C58.3924 27.3489 58.7606 28.063 58.7606 29.0067V29.0531C58.7606 30.0354 58.3924 30.7728 57.656 31.2652C56.9196 31.7551 56.0146 32 54.9409 32C53.8672 32 52.9635 31.7551 52.2297 31.2652C51.4984 30.7728 51.1328 30.0354 51.1328 29.0531ZM52.8631 29.0724C52.8631 29.6731 53.0549 30.1256 53.4385 30.4299C53.8222 30.7315 54.3255 30.8862 54.9486 30.8939C55.5692 30.9017 56.0712 30.7508 56.4549 30.4415C56.8385 30.1295 57.0303 29.677 57.0303 29.084V29.0105C57.0303 28.4433 56.8385 28.0166 56.4549 27.7304C56.0738 27.4417 55.5717 27.2921 54.9486 27.2818C54.3204 27.2741 53.8157 27.4185 53.4347 27.715C53.0536 28.0115 52.8631 28.442 52.8631 29.0067V29.0724Z" fill="#FFF9F2"/>
<path d="M44.3047 31.884V26.2531H50.2911V31.884H48.638V27.568H45.9577V31.884H44.3047Z" fill="#FFF9F2"/>
<path d="M36.1787 29.0995V29.0221C36.1787 28.0682 36.5263 27.3489 37.2215 26.8642C37.9193 26.3795 38.8294 26.1371 39.9521 26.1371C41.0798 26.1371 41.9269 26.3202 42.4934 26.6863C43.0598 27.0524 43.3958 27.6093 43.5014 28.357L43.5246 28.531H41.8716L41.8484 28.3956C41.7763 28.0347 41.5986 27.7562 41.3154 27.5603C41.0322 27.3643 40.5945 27.2664 40.0023 27.2664C39.3534 27.2664 38.8488 27.4159 38.4883 27.715C38.1304 28.0141 37.9514 28.4485 37.9514 29.0183V29.0956C37.9514 29.6783 38.1343 30.1243 38.4999 30.4337C38.8655 30.7431 39.365 30.8978 39.9984 30.8978C40.5957 30.8978 41.0386 30.8063 41.327 30.6232C41.6154 30.4402 41.7917 30.1604 41.8561 29.784L41.8793 29.6332H43.5246L43.5053 29.8111C43.4203 30.5485 43.0997 31.0976 42.5436 31.4586C41.9874 31.8195 41.1287 32 39.9675 32C38.7986 32 37.8742 31.7525 37.1945 31.2575C36.5173 30.7599 36.1787 30.0405 36.1787 29.0995Z" fill="#FFF9F2"/>
<path d="M112.082 23.1716H110.425L110.429 19.865C110.429 19.7799 110.43 19.7219 110.433 19.6909C110.435 19.6574 110.435 19.6213 110.433 19.5827H110.421C110.403 19.6188 110.381 19.6574 110.355 19.6987C110.33 19.7373 110.287 19.7876 110.228 19.8495L107.83 23.1716H105.945V17.5407H107.598V20.7506C107.598 20.8176 107.598 20.8692 107.598 20.9053C107.598 20.9388 107.598 20.9878 107.598 21.0522H107.613C107.631 21.0058 107.652 20.971 107.675 20.9478C107.701 20.9246 107.742 20.8782 107.799 20.8086L110.197 17.5407H112.082V23.1716ZM109.004 16.2722C109.184 16.2722 109.342 16.2206 109.479 16.1175C109.618 16.0144 109.721 15.8636 109.788 15.665L110.765 16.0054C110.605 16.4411 110.375 16.7556 110.073 16.949C109.772 17.1398 109.416 17.2352 109.004 17.2352C108.592 17.2352 108.235 17.1398 107.934 16.949C107.633 16.7556 107.402 16.4411 107.243 16.0054L108.22 15.665C108.287 15.861 108.388 16.0118 108.525 16.1175C108.664 16.2206 108.823 16.2722 109.004 16.2722Z" fill="#FFF9F2"/>
<path d="M104.62 23.1716H102.964L102.967 19.865C102.967 19.7799 102.969 19.7219 102.971 19.691C102.974 19.6574 102.974 19.6214 102.971 19.5827H102.96C102.942 19.6188 102.92 19.6574 102.894 19.6987C102.868 19.7374 102.826 19.7876 102.767 19.8495L100.368 23.1716H98.4834V17.5407H100.136V20.7506C100.136 20.8177 100.136 20.8692 100.136 20.9053C100.136 20.9388 100.136 20.9878 100.136 21.0523H100.152C100.17 21.0059 100.19 20.9711 100.214 20.9479C100.239 20.9246 100.281 20.8782 100.337 20.8086L102.736 17.5407H104.62V23.1716Z" fill="#FFF9F2"/>
<path d="M95.9303 23.1716L93.219 20.5263L94.5051 19.6136L98.1124 23.1716H95.9303ZM92.1878 19.6214H93.6246L95.8067 17.5407H97.9038L94.1691 20.9556H92.1878V19.6214ZM91.3613 23.1716V17.5407H93.0143V23.1716H91.3613Z" fill="#FFF9F2"/>
<path d="M83.2354 20.3871V20.3097C83.2354 19.3558 83.5829 18.6365 84.2781 18.1518C84.9759 17.6671 85.8861 17.4247 87.0087 17.4247C88.1364 17.4247 88.9836 17.6078 89.55 17.9739C90.1165 18.34 90.4525 18.8969 90.558 19.6446L90.5812 19.8186H88.9282L88.905 19.6832C88.8329 19.3223 88.6553 19.0438 88.372 18.8479C88.0888 18.6519 87.6511 18.554 87.0589 18.554C86.4101 18.554 85.9054 18.7035 85.5449 19.0026C85.187 19.3017 85.0081 19.7361 85.0081 20.3059V20.3832C85.0081 20.9659 85.1909 21.4119 85.5565 21.7213C85.9221 22.0307 86.4216 22.1854 87.055 22.1854C87.6524 22.1854 88.0953 22.0939 88.3836 21.9108C88.672 21.7278 88.8484 21.448 88.9127 21.0716L88.9359 20.9208H90.5812L90.5619 21.0987C90.4769 21.8361 90.1564 22.3852 89.6002 22.7462C89.0441 23.1071 88.1854 23.2876 87.0241 23.2876C85.8552 23.2876 84.9308 23.0401 84.2511 22.5451C83.5739 22.0475 83.2354 21.3281 83.2354 20.3871Z" fill="#FFF9F2"/>
<path d="M77.1255 23.1716V17.5407H80.7521C81.3597 17.5407 81.8129 17.6683 82.1116 17.9236C82.4128 18.1788 82.5634 18.5256 82.5634 18.9639C82.5634 19.2862 82.481 19.553 82.3162 19.7644C82.154 19.9759 81.9468 20.1228 81.6944 20.2053V20.2208C82.0472 20.2672 82.3304 20.4026 82.5441 20.6269C82.7604 20.8486 82.8685 21.1567 82.8685 21.5512C82.8685 22.0745 82.6754 22.4755 82.2892 22.7539C81.9056 23.0324 81.4176 23.1716 80.8254 23.1716H77.1255ZM78.7244 22.1042H80.3581C80.5847 22.1042 80.7791 22.0475 80.9413 21.934C81.1061 21.8206 81.1885 21.6362 81.1885 21.381C81.1885 21.167 81.1061 21.0084 80.9413 20.9053C80.7791 20.7996 80.5847 20.7467 80.3581 20.7467H78.7244V22.1042ZM78.7244 19.9307H80.3041C80.5178 19.9307 80.6864 19.8753 80.81 19.7644C80.9362 19.651 80.9992 19.4924 80.9992 19.2888C80.9992 19.0825 80.9362 18.9278 80.81 18.8247C80.6864 18.7215 80.5178 18.67 80.3041 18.67H78.7244V19.9307Z" fill="#FFF9F2"/>
<path d="M68.6514 20.3407V20.2943C68.6514 19.3506 69.017 18.6365 69.7482 18.1518C70.482 17.6671 71.3858 17.4247 72.4595 17.4247C73.5332 17.4247 74.4382 17.6671 75.1746 18.1518C75.911 18.6365 76.2792 19.3506 76.2792 20.2943V20.3407C76.2792 21.323 75.911 22.0604 75.1746 22.5528C74.4382 23.0427 73.5332 23.2876 72.4595 23.2876C71.3858 23.2876 70.482 23.0427 69.7482 22.5528C69.017 22.0604 68.6514 21.323 68.6514 20.3407ZM70.3816 20.36C70.3816 20.9607 70.5734 21.4132 70.9571 21.7175C71.3407 22.0191 71.8441 22.1738 72.4672 22.1815C73.0877 22.1893 73.5898 22.0384 73.9734 21.7291C74.3571 21.4171 74.5489 20.9646 74.5489 20.3716V20.2981C74.5489 19.7309 74.3571 19.3042 73.9734 19.018C73.5924 18.7293 73.0903 18.5797 72.4672 18.5694C71.8389 18.5617 71.3343 18.7061 70.9532 19.0026C70.5722 19.2991 70.3816 19.7296 70.3816 20.2943V20.36Z" fill="#FFF9F2"/>
<path d="M66.5856 23.1716L63.8743 20.5263L65.1604 19.6136L68.7677 23.1716H66.5856ZM62.8431 19.6214H64.2798L66.462 17.5407H68.5591L64.8244 20.9556H62.8431V19.6214ZM62.0166 23.1716V17.5407H63.6696V23.1716H62.0166Z" fill="#FFF9F2"/>
<path d="M53.8906 20.3871V20.3097C53.8906 19.3558 54.2382 18.6365 54.9334 18.1518C55.6312 17.6671 56.5414 17.4247 57.664 17.4247C58.7917 17.4247 59.6388 17.6078 60.2053 17.9739C60.7717 18.34 61.1077 18.8969 61.2133 19.6446L61.2365 19.8186H59.5835L59.5603 19.6832C59.4882 19.3223 59.3105 19.0438 59.0273 18.8479C58.7441 18.6519 58.3064 18.554 57.7142 18.554C57.0653 18.554 56.5607 18.7035 56.2002 19.0026C55.8423 19.3017 55.6634 19.7361 55.6634 20.3059V20.3832C55.6634 20.9659 55.8462 21.4119 56.2118 21.7213C56.5774 22.0307 57.0769 22.1854 57.7103 22.1854C58.3077 22.1854 58.7505 22.0939 59.0389 21.9108C59.3273 21.7278 59.5036 21.448 59.568 21.0716L59.5912 20.9208H61.2365L61.2172 21.0987C61.1322 21.8361 60.8116 22.3852 60.2555 22.7462C59.6993 23.1071 58.8406 23.2876 57.6794 23.2876C56.5105 23.2876 55.5861 23.0401 54.9064 22.5451C54.2292 22.0475 53.8906 21.3281 53.8906 20.3871Z" fill="#FFF9F2"/>
<path d="M45.9033 20.3407V20.2943C45.9033 19.3506 46.2689 18.6365 47.0002 18.1518C47.734 17.6671 48.6377 17.4247 49.7114 17.4247C50.7851 17.4247 51.6901 17.6671 52.4265 18.1518C53.1629 18.6365 53.5311 19.3506 53.5311 20.2943V20.3407C53.5311 21.323 53.1629 22.0604 52.4265 22.5528C51.6901 23.0427 50.7851 23.2876 49.7114 23.2876C48.6377 23.2876 47.734 23.0427 47.0002 22.5528C46.2689 22.0604 45.9033 21.323 45.9033 20.3407ZM47.6336 20.36C47.6336 20.9607 47.8254 21.4132 48.209 21.7175C48.5927 22.0191 49.096 22.1738 49.7191 22.1815C50.3397 22.1893 50.8418 22.0384 51.2254 21.7291C51.609 21.4171 51.8009 20.9646 51.8009 20.3716V20.2981C51.8009 19.7309 51.609 19.3042 51.2254 19.018C50.8443 18.7293 50.3422 18.5797 49.7191 18.5694C49.0909 18.5617 48.5862 18.7061 48.2052 19.0026C47.8241 19.2991 47.6336 19.7296 47.6336 20.2943V20.36Z" fill="#FFF9F2"/>
<path d="M36.665 23.1716V17.5407H38.5884L40.7551 21.0136C40.7886 21.0677 40.8104 21.1038 40.8207 21.1219C40.831 21.1374 40.8426 21.1554 40.8555 21.176H40.8632C40.8735 21.1554 40.8838 21.1374 40.8941 21.1219C40.9044 21.1038 40.9263 21.0677 40.9598 21.0136L43.1071 17.5407H45.0614V23.1716H43.447L43.4547 19.9617C43.4547 19.9153 43.4547 19.8818 43.4547 19.8611C43.4547 19.8379 43.4547 19.8031 43.4547 19.7567H43.4393C43.4135 19.8057 43.3942 19.8405 43.3814 19.8611C43.3685 19.8792 43.3479 19.9101 43.3196 19.9539L41.3383 23.1716H40.3689L38.376 19.9733C38.3425 19.9217 38.3206 19.8895 38.3103 19.8766C38.3026 19.8637 38.2846 19.8289 38.2563 19.7722H38.2408C38.2408 19.8341 38.2408 19.8727 38.2408 19.8882C38.2408 19.9037 38.2408 19.9346 38.2408 19.981L38.2485 23.1716H36.665Z" fill="#FFF9F2"/>
<path d="M68.165 13.6896C68.165 13.4627 68.241 13.2719 68.3929 13.1172C68.5474 12.96 68.7701 12.8813 69.0611 12.8813C69.352 12.8813 69.5734 12.96 69.7254 13.1172C69.8798 13.2719 69.9571 13.4653 69.9571 13.6974C69.9571 13.9242 69.8798 14.1163 69.7254 14.2736C69.5734 14.4283 69.352 14.5056 69.0611 14.5056C68.7701 14.5056 68.5474 14.427 68.3929 14.2697C68.241 14.1099 68.165 13.9165 68.165 13.6896Z" fill="#FFF9F2"/>
<path d="M61.835 14.4593V8.82841H63.4919V14.4593H61.835ZM66.0023 14.4593L63.658 11.8682L64.9943 10.9555L68.0956 14.4593H66.0023ZM62.6654 10.909H64.0751L65.9019 8.82841H67.887L64.9557 12.2433H62.6654V10.909ZM57.2622 14.4593L60.3713 10.9555L61.6767 11.8682L59.3285 14.4593H57.2622ZM62.6654 10.909V12.2433H60.3674L57.436 8.82841H59.425L61.2518 10.909H62.6654Z" fill="#FFF9F2"/>
<path d="M56.888 14.4593H55.235V12.572H53.0104L52.8829 12.514C52.2701 12.4908 51.7925 12.3116 51.4501 11.9764C51.1076 11.6413 50.9364 11.2004 50.9364 10.6538C50.9364 10.0969 51.1218 9.65345 51.4926 9.32344C51.8659 8.99342 52.3487 8.82841 52.9409 8.82841H56.888V14.4593ZM55.235 11.5278V9.97702H53.4314C53.1533 9.97702 52.9473 10.0466 52.8134 10.1859C52.6821 10.3225 52.6164 10.5133 52.6164 10.7582C52.6164 11.0006 52.6821 11.1901 52.8134 11.3267C52.9447 11.4608 53.1507 11.5278 53.4314 11.5278H55.235ZM52.5044 14.4593H50.7549L52.404 12.0035H54.1304L52.5044 14.4593Z" fill="#FFF9F2"/>
<path d="M44.629 8.82841H49.8314V14.4593H48.1783V10.1433H46.0387L45.9151 12.1659C45.8713 12.875 45.7284 13.4499 45.4864 13.8908C45.247 14.3317 44.7912 14.5521 44.1192 14.5521C43.9338 14.5521 43.7845 14.5431 43.6712 14.525C43.5605 14.5095 43.4691 14.4902 43.397 14.467V12.9471C43.4562 12.9652 43.5128 12.9768 43.5669 12.9819C43.621 12.9871 43.6815 12.9897 43.7484 12.9897C43.993 12.9897 44.163 12.9123 44.2582 12.7576C44.3561 12.6004 44.4166 12.3425 44.4398 11.9842L44.629 8.82841Z" fill="#FFF9F2"/>
<path d="M36.665 14.4593V8.82841H42.6514V14.4593H40.9984V10.1433H38.318V14.4593H36.665Z" fill="#FFF9F2"/>
<path d="M64.2876 4.97732C64.2876 4.75044 64.3636 4.55965 64.5155 4.40495C64.67 4.24768 64.8927 4.16904 65.1836 4.16904C65.4746 4.16904 65.696 4.24768 65.8479 4.40495C66.0024 4.55965 66.0796 4.75301 66.0796 4.98506C66.0796 5.21194 66.0024 5.40402 65.8479 5.56129C65.696 5.71598 65.4746 5.79333 65.1836 5.79333C64.8927 5.79333 64.67 5.71469 64.5155 5.55742C64.3636 5.39757 64.2876 5.2042 64.2876 4.97732Z" fill="#FFF9F2"/>
<path d="M56.1147 2.91598V2.86957C56.1147 1.92594 56.4804 1.21177 57.2116 0.727062C57.9454 0.242354 58.8492 0 59.9228 0C60.9965 0 61.9016 0.242354 62.638 0.727062C63.3743 1.21177 63.7425 1.92594 63.7425 2.86957V2.91598C63.7425 3.89829 63.3743 4.63566 62.638 5.1281C61.9016 5.61797 60.9965 5.8629 59.9228 5.8629C58.8492 5.8629 57.9454 5.61797 57.2116 5.1281C56.4804 4.63566 56.1147 3.89829 56.1147 2.91598ZM57.845 2.93532C57.845 3.53605 58.0368 3.98853 58.4205 4.29276C58.8041 4.59441 59.3075 4.7491 59.9306 4.75684C60.5511 4.76457 61.0532 4.61375 61.4368 4.30436C61.8205 3.99239 62.0123 3.53991 62.0123 2.94692V2.87344C62.0123 2.30623 61.8205 1.87953 61.4368 1.59335C61.0558 1.30459 60.5537 1.15505 59.9306 1.14474C59.3023 1.137 58.7977 1.28138 58.4166 1.57788C58.0355 1.87437 57.845 2.30494 57.845 2.86957V2.93532Z" fill="#FFF9F2"/>
<path d="M49.6309 1.41544V0.116013H55.8644V1.41544H53.5857V5.74687H51.9057V1.41544H49.6309Z" fill="#FFF9F2"/>
<path d="M43.8486 5.74687V0.116013H49.0935V1.38064H45.3935V2.37454H48.7652V3.4574H45.3935V4.53252H49.1591V5.74687H43.8486Z" fill="#FFF9F2"/>
<path d="M37.3141 0.116013H42.5164V5.74687H40.8634V1.43091H38.7238L38.6002 3.45353C38.5564 4.16255 38.4135 4.73749 38.1715 5.17837C37.932 5.61925 37.4763 5.83969 36.8043 5.83969C36.6189 5.83969 36.4695 5.83066 36.3562 5.81262C36.2455 5.79715 36.1541 5.77781 36.082 5.75461V4.23474C36.1413 4.25279 36.1979 4.26439 36.252 4.26954C36.306 4.2747 36.3665 4.27728 36.4335 4.27728C36.6781 4.27728 36.848 4.19993 36.9433 4.04524C37.0411 3.88797 37.1016 3.63014 37.1248 3.27177L37.3141 0.116013Z" fill="#FFF9F2"/>
<defs>
<linearGradient id="paint0_linear_204_6650" x1="16" y1="0" x2="16" y2="32" gradientUnits="userSpaceOnUse">
<stop offset="0.100962" stop-color="#F7C667"/>
<stop offset="1" stop-color="#FE131F"/>
</linearGradient>
</defs>
</svg>
