<svg width="81" height="40" viewBox="0 0 81 40" fill="none" xmlns="http://www.w3.org/2000/svg">
<path d="M41.3596 5.39257H44.5812V11.1876H45.738V4.3479H40.2051V11.1876H41.3619V5.39257H41.3596Z" fill="white"/>
<path d="M55.6397 11.3031C57.5678 11.3031 58.8479 9.83475 58.8479 7.77231C58.8479 5.70988 57.5678 4.24152 55.6397 4.24152C53.7117 4.24152 52.4316 5.70988 52.4316 7.77231C52.4316 9.83475 53.7117 11.3031 55.6397 11.3031ZM55.6397 5.29739C56.9086 5.29739 57.6664 6.32861 57.6664 7.77231C57.6664 9.21602 56.8952 10.2472 55.6397 10.2472C54.3843 10.2472 53.6243 9.21602 53.6243 7.77231C53.6109 6.33085 54.3709 5.29739 55.6397 5.29739Z" fill="white"/>
<path d="M43.8215 29.0484L41.6334 23.7511H40.2031V30.5908H41.3106V25.6409L43.3507 30.5661H44.2833L46.31 25.6409V30.5908H47.404V23.7511H45.9983L43.8215 29.0484Z" fill="white"/>
<path d="M66.4478 8.04125L69.1963 11.1865H70.6513L67.6046 7.61755L70.5885 4.3468H69.1829L66.4478 7.30595V4.3468H65.291V11.1865H66.4478V8.04125Z" fill="white"/>
<path d="M64.2687 10.1429H60.9732V8.1903H64.0827V7.18375H60.9732V5.39257H64.2687V4.3479H59.8164V11.1876H64.2687V10.1429Z" fill="white"/>
<path d="M56.4629 18.5241H57.8193C59.2608 18.5241 60.1441 17.5175 60.1441 16.2868C60.1441 15.0561 59.2989 14.0495 57.7811 14.0495H55.2949V20.8892H56.4517V18.5263H56.4652L56.4629 18.5241ZM56.4629 15.0673H57.6825C58.5277 15.0673 58.9873 15.5649 58.9873 16.2868C58.9873 17.0086 58.5142 17.5175 57.6825 17.5175H56.4629V15.0673Z" fill="white"/>
<path d="M76.2421 4.3479H70.7832V5.39257H72.9354V11.1876H74.0922V5.39257H76.2444V4.3479H76.2421Z" fill="white"/>
<path d="M72.1666 27.016C72.6015 26.8299 73.0611 26.3434 73.0611 25.5364C73.0611 24.541 72.3392 23.7587 70.947 23.7587H68.3105V30.5983H71.0344C72.4401 30.5983 73.3234 29.789 73.3234 28.6592C73.3234 27.6526 72.6643 27.155 72.1666 27.0182V27.016ZM69.4673 24.7406H70.7856C71.4828 24.7406 71.893 25.088 71.893 25.6731C71.893 26.1955 71.5568 26.6057 70.8371 26.6057H69.4696V24.7406H69.4673ZM70.9089 29.5895H69.4673V27.5495H70.9604C71.6935 27.5495 72.1553 27.9351 72.1553 28.5695C72.1419 29.2286 71.6464 29.5895 70.9111 29.5895H70.9089Z" fill="white"/>
<path d="M67.643 23.7511H66.2374L63.4888 26.7102V23.7511H62.332V30.5908H63.4888V27.4455L66.2374 30.5908H67.7058L64.6456 27.0218L67.643 23.7511Z" fill="white"/>
<path d="M80.899 23.7511H79.7422V30.5908H80.899V23.7511Z" fill="white"/>
<path d="M43.8215 19.3468L41.6334 14.0495H40.2031V20.8892H41.3106V15.9393L43.3507 20.8645H44.2833L46.31 15.9393V20.8892H47.404V14.0495H45.9983L43.8215 19.3468Z" fill="white"/>
<path d="M65.046 20.887H66.2656L63.7166 14.0473H62.5104L59.9727 20.887H61.1922L61.7639 19.2706H64.4631L65.0482 20.887H65.046ZM62.1114 18.2641L63.1068 15.4282L64.1022 18.2641H62.1136H62.1114Z" fill="white"/>
<path d="M76.6938 26.1767H75.3756V23.7511H74.2188V30.5908H76.7184C78.1487 30.5908 79.0432 29.6089 79.0432 28.3781C79.0432 27.1474 78.1846 26.1767 76.6938 26.1767ZM76.5817 29.5707H75.3756V27.1967H76.5817C77.4022 27.1967 77.8752 27.6563 77.8752 28.3781C77.8752 29.1 77.391 29.573 76.5817 29.573V29.5707Z" fill="white"/>
<path d="M51.8648 6.58519C51.8648 5.34101 51.0196 4.3479 49.5019 4.3479H47.0156V11.1876H48.1724V8.82473H49.5288C50.9837 8.82473 51.867 7.81817 51.867 6.58743L51.8648 6.58519ZM48.1724 7.81593V5.36567H49.392C50.2372 5.36567 50.6968 5.86334 50.6968 6.58519C50.6968 7.30704 50.2237 7.81593 49.392 7.81593H48.1724Z" fill="white"/>
<path d="M58.5462 29.6461C57.3513 29.6461 56.5936 28.6149 56.5936 27.1712C56.5936 25.7275 57.3648 24.6963 58.5462 24.6963C59.5416 24.6963 60.0752 25.2926 60.2613 25.9898H61.4181C61.2185 24.7097 60.25 23.6404 58.5462 23.6404C56.6922 23.6404 55.4121 25.0953 55.4121 27.1712C55.4121 29.2471 56.7303 30.702 58.5462 30.702C60.3621 30.702 61.3194 29.3973 61.4427 28.3391H60.2747C60.1761 28.9242 59.6156 29.6439 58.5462 29.6439V29.6461Z" fill="white"/>
<path d="M51.219 19.9536C50.1362 19.9536 49.6273 19.2452 49.4771 18.7475H48.3203C48.4705 19.7047 49.3157 20.9982 51.2056 20.9982C52.9968 20.9982 54.3509 19.6801 54.3509 17.4674C54.3509 15.2548 53.0462 13.9366 51.2168 13.9366C49.5376 13.9366 48.5557 15.0194 48.345 16.1874H49.4883C49.6879 15.5664 50.2214 14.9813 51.2168 14.9813C52.2122 14.9813 52.9834 15.6651 53.1448 16.9092H50.4344V17.9046H53.1583C53.0462 19.1846 52.2996 19.9558 51.219 19.9558V19.9536Z" fill="white"/>
<path d="M51.5675 23.6404C49.6395 23.6404 48.3594 25.1087 48.3594 27.1712C48.3594 29.2336 49.6395 30.702 51.5675 30.702C53.4955 30.702 54.7756 29.2336 54.7756 27.1712C54.7756 25.1087 53.4955 23.6404 51.5675 23.6404ZM51.5675 29.6461C50.2986 29.6461 49.552 28.6149 49.552 27.1712C49.552 25.7275 50.3098 24.6963 51.5675 24.6963C52.8252 24.6963 53.5941 25.7275 53.5941 27.1712C53.5941 28.6149 52.8364 29.6461 51.5675 29.6461Z" fill="white"/>
<path d="M2.54921 26.4033L3.41905 26.1163C3.24419 25.6075 3.49303 25.1703 3.82931 25.0224C3.95262 24.9596 4.08937 24.9103 4.23957 24.8609C5.02198 24.574 6.08015 24.1884 6.6025 22.1506C6.87601 21.0566 7.31093 20.5455 7.77051 20.3236C7.51045 21.2808 7.62031 22.1887 7.72119 22.9599C7.78396 23.4688 7.84449 23.9553 7.78396 24.3274C7.68532 24.8991 7.26161 25.3967 6.51507 25.8563L6.35365 25.9549L6.30433 26.141C6.30433 26.141 5.57124 28.7639 5.18564 30.1201L5.14753 30.2569L5.18564 30.3936C5.22375 30.5551 5.27307 30.7053 5.30894 30.8532C5.50847 31.5751 5.66988 32.1467 5.66988 33.1286H6.66527C6.66527 32.01 6.4792 31.3509 6.26846 30.5909C6.2438 30.4923 6.20569 30.3802 6.18103 30.2793C6.35589 29.683 6.57784 28.8737 6.77737 28.1541C7.07553 28.0801 7.34904 28.0039 7.59789 27.9434C8.9161 27.6206 9.57521 27.4457 10.88 26.7373C11.9112 26.1657 12.6824 25.1838 13.0053 24.7107C13.8639 24.7847 16.3008 24.9461 18.0046 24.6233C19.5963 24.3252 20.5424 23.9396 20.9885 23.7154L22.6542 25.9908L22.5309 26.0782L21.9458 26.5266L22.2686 26.9256C22.2821 26.9391 23.0398 27.8716 23.4254 28.3805C23.4994 28.4926 23.8738 29.0531 23.338 29.6113C22.8538 30.1201 21.8449 30.221 21.2733 29.8108C21.0491 29.6494 20.9123 29.4387 20.8742 29.1764C20.8361 28.9275 20.8989 28.654 21.0356 28.468C21.5445 27.7954 21.6566 27.0265 21.3472 26.3921C21.0872 25.8697 20.576 25.5581 19.9663 25.5581C19.6053 25.5581 19.1704 25.5581 18.6615 25.5716C17.3814 25.585 15.7762 25.6097 14.1733 25.5581L13.2788 25.5335L13.7271 26.3046C13.7271 26.3181 14.0388 26.827 14.3369 27.4233C13.5411 27.2238 12.3843 27.1117 10.9786 27.4614C9.46087 27.847 7.8826 29.1024 7.74585 31.0303C7.68308 31.8396 7.92072 32.5727 8.3803 33.1062C8.79056 33.5792 9.35103 33.8393 9.99668 33.8886H10.1469C10.8688 33.8886 11.5279 33.577 11.9381 33.03C12.3372 32.5076 12.447 31.862 12.2498 31.2522C12.1758 31.0415 12.0883 30.8667 11.9762 30.7053C12.6466 30.6066 13.0591 30.8667 13.1958 31.1289C13.5074 31.7141 12.9089 32.3104 12.8842 32.335L12.5972 32.6085L13.8908 34.7718H17.7199V33.7765H16.4151C16.3165 33.6778 16.1663 33.5164 16.0542 33.2788C15.9668 33.104 15.7179 32.5211 16.1035 32.2341C16.3636 32.0346 16.6124 32.0346 17.1863 32.2588C17.5473 32.3956 17.8589 32.557 18.1929 32.7318C19.0381 33.1667 19.908 33.6263 21.5131 33.6644L21.9615 34.7718H25.9543V33.7765H24.2751L24.163 33.3416C24.9723 33.0546 25.6808 32.6085 26.2031 32.0234C27.0483 31.0774 27.4339 29.8108 27.3218 28.3671C27.4586 28.2169 27.694 27.9815 27.8935 27.782L28.3912 27.2978L27.2232 26.7127C26.2278 26.2284 25.7435 25.7801 25.3198 24.3117L25.0463 23.2805L24.1002 23.6168C23.5398 23.8163 23.1542 24.3139 23.069 24.8722L21.975 23.3791C22.8201 23.3657 23.6541 23.0429 24.0397 22.8187C25.6696 21.8614 26.5147 21.3772 26.9362 21.1284C27.5953 21.9242 28.7275 23.4038 28.9516 24.0875C29.0503 24.3991 29.0749 25.5559 29.0503 26.289L30.0457 26.3136C30.0591 25.9908 30.0838 24.3745 29.8955 23.7759C29.5233 22.6573 27.6446 20.4177 27.4205 20.1689L27.1963 19.8954L27.1716 19.8326C26.4632 20.1936 25.7032 20.2922 25.145 20.2922C25.4319 19.9066 25.6673 19.4089 25.7906 18.7745L28.2029 17.4698C28.7745 18.1154 29.7318 19.2722 29.956 19.8707C30.0793 20.207 30.1555 21.4377 30.1802 22.2089L31.1756 22.1843C31.1621 21.848 31.1128 20.1442 30.9021 19.5367C30.5299 18.5167 28.8754 16.7143 28.6893 16.5036L28.4293 16.2167L25.8556 17.6088C25.6808 16.3399 24.8356 15.2953 24.1899 14.4882C24.0397 14.3022 23.903 14.1273 23.7909 13.9794C23.5801 13.6812 23.3313 13.2575 23.1071 12.8607C23.4053 12.8988 23.7416 12.8854 24.1272 12.7867C24.376 12.8361 25.0844 13.0849 25.6449 13.3203L25.9431 13.4436L26.4654 12.9459C27.1111 12.3249 27.1245 11.2803 26.5035 10.6324L24.589 8.6798V7.94674L24.3155 7.80999C24.1922 7.74722 23.134 7.23834 22.513 7.13746C21.6432 6.9626 20.1501 6.93794 18.944 8.20678L17.7132 7.85931C17.7872 7.4244 17.8253 7.20023 17.8499 6.94018L17.8746 6.72945C18.0853 5.2992 17.2401 4.30385 16.6057 3.81963C16.7918 3.36006 16.8658 2.68753 16.3322 2.15399C15.8838 1.70563 15.3368 1.60699 14.5297 1.83117C14.0567 1.95447 13.6464 2.27953 13.2115 2.60234C13.0366 2.73909 12.8506 2.87584 12.6645 2.99914C11.6691 3.68288 10.8374 3.03725 10.4271 2.60234L9.70524 3.29954C10.3262 3.97207 11.0616 4.31954 11.7812 4.31954C12.2789 4.31954 12.7631 4.15814 13.2362 3.84653C13.4469 3.69633 13.6464 3.54837 13.8213 3.41162C14.1935 3.12468 14.5051 2.88929 14.792 2.81531C15.3884 2.6539 15.5386 2.79065 15.6372 2.88929C15.9107 3.16279 15.6372 3.59769 15.5991 3.6358C15.0655 3.84653 13.6845 4.43163 13.4985 6.07261C13.4492 6.44475 13.4245 6.8819 13.3998 7.20471C12.7654 7.19126 11.6714 7.29214 10.676 7.95122L6.95896 2.86463L6.14964 3.44974L7.90278 5.85068C7.7167 6.11072 7.1809 6.96932 7.50597 7.65307C7.71671 8.10142 8.3646 9.44424 8.64932 10.0406C8.07765 10.7377 6.49713 12.789 5.6654 15.1384L5.40534 15.8714L6.17654 15.7974C7.33335 15.6853 7.86691 15.9476 8.43858 16.2211C8.67398 16.3332 8.91162 16.4453 9.19634 16.5327C10.241 16.869 10.9876 16.7435 11.6332 16.6314C11.7207 16.7928 11.8193 16.9542 11.9202 17.1044C11.7095 17.1044 11.4853 17.1291 11.2611 17.1784L11.1871 17.1918C10.6894 17.2905 10.2052 17.4026 9.70748 17.6895C9.33533 17.3039 8.62466 16.795 7.50597 16.795C5.76404 16.795 4.5086 17.889 4.03557 19.8169C3.61185 21.5588 3.19038 22.0542 2.84289 22.4533C2.68148 22.6393 2.50661 22.8389 2.38331 23.1258C1.86096 24.2579 1.99771 25.1658 2.44608 26.4212L2.55818 26.4078L2.54921 26.4033ZM23.2282 33.7518H22.6184L22.5691 33.6263C22.7798 33.6128 22.9793 33.5882 23.1788 33.5523L23.2282 33.7518ZM23.7752 26.3786L23.8245 26.2419C23.8492 26.1791 24.0733 25.5962 24.0352 25.1098C24.0218 24.8856 24.1473 24.6614 24.3469 24.5628C24.8692 26.3293 25.553 26.9637 26.6963 27.5354C26.573 27.6721 26.4609 27.7954 26.3982 27.8716L26.2861 28.0331L26.3107 28.2191C26.4475 29.4745 26.1493 30.5438 25.4521 31.315C25.0418 31.7634 24.506 32.1243 23.8738 32.3462L22.9905 32.5704C22.7305 32.6085 22.457 32.6332 22.1812 32.6444V32.6309H21.7082C20.2151 32.6309 19.4573 32.2341 18.6503 31.8104C18.314 31.6356 17.9531 31.4495 17.5562 31.2881C17.1213 31.1133 16.312 30.8039 15.5296 31.3868C14.857 31.871 14.7203 32.7677 15.1821 33.6756C15.1956 33.6891 15.1956 33.7137 15.2068 33.7249H14.4737L13.8639 32.6937C14.236 32.196 14.5365 31.4002 14.0993 30.6044C13.7137 29.896 12.8304 29.5216 11.8619 29.6718C10.6311 29.8579 10.1581 30.5057 9.98323 31.0774C9.95857 31.1267 9.94512 31.1895 9.93391 31.2522V31.3262C9.93391 31.649 10.194 31.9225 10.5302 31.9225C10.8665 31.9225 11.1266 31.6625 11.1266 31.3262C11.1266 31.2635 11.1131 31.2029 11.1019 31.1402C11.1894 31.1895 11.288 31.3016 11.362 31.5123C11.4606 31.7992 11.4001 32.1086 11.2006 32.3709C10.9517 32.6937 10.5415 32.8686 10.1065 32.8305C9.73438 32.8058 9.40932 32.6556 9.17392 32.3821C8.88696 32.0593 8.75021 31.5728 8.78832 31.0258C8.90041 29.3848 10.4047 28.5644 11.2633 28.3514C13.5523 27.7797 15.0072 28.6249 15.0678 28.6495L16.2739 29.3826L15.7897 28.0532C15.6148 27.569 15.3054 26.9705 15.0566 26.4862C16.3994 26.5109 17.7042 26.4862 18.713 26.4728C19.222 26.4593 19.6591 26.4593 20.0066 26.4593C20.2308 26.4593 20.4034 26.558 20.4908 26.7463C20.6029 26.9705 20.6029 27.356 20.2801 27.7775C19.9819 28.1765 19.8564 28.7235 19.9326 29.2324C20.0066 29.7547 20.2936 30.2031 20.7285 30.5125C21.7104 31.2209 23.2528 31.0729 24.0868 30.1896C24.8692 29.3557 24.7325 28.3379 24.2482 27.6789C24.0128 27.3672 23.6519 26.9211 23.3896 26.5961L23.7752 26.3719V26.3786ZM13.7765 8.22472L14.3369 8.32336L14.3616 7.7517C14.3616 7.73825 14.3997 6.85723 14.4849 6.1847C14.6082 5.14003 15.4668 4.75445 15.9264 4.56838C16.2739 4.82843 17.0451 5.51441 16.8971 6.59495L16.8725 6.80567C16.8232 7.12849 16.785 7.40199 16.6617 8.12384L16.5743 8.57219L18.3162 9.06987C17.4576 10.5876 17.4711 12.4774 17.5585 13.8067C17.6459 15.1115 18.0427 16.3063 18.0674 16.3556L19.0135 16.044C19.0135 16.0306 18.6413 14.9119 18.5539 13.744C18.4664 12.4505 18.4552 10.5741 19.3632 9.26714C20.2465 8.02296 21.4526 7.93777 22.2978 8.08573C22.6094 8.13505 23.1811 8.37268 23.5532 8.54529V9.05418L25.7413 11.3049C25.8534 11.4282 25.9274 11.5919 25.9162 11.7533C25.9162 11.9281 25.8422 12.0895 25.7301 12.2016L25.6808 12.2509C25.1719 12.0514 24.4119 11.7667 24.0644 11.7533H23.9904L23.9164 11.7779C22.9591 12.038 22.4502 11.5672 22.4368 11.5425L21.9525 11.0337L21.6409 11.6681C21.5288 11.8923 21.5176 12.0044 22.0646 13.0602C22.2148 13.3472 22.5982 14.0668 22.9479 14.5533C23.0712 14.7281 23.2214 14.9142 23.3829 15.1002C24.1294 16.0194 25.0486 17.1649 24.8244 18.4696C24.6876 19.2901 24.3155 19.7744 23.8178 20.2474L23.2708 20.7562L23.9545 21.0679C24.1159 21.1418 24.3895 21.2046 24.7257 21.2427C24.3895 21.4422 23.9926 21.6664 23.5331 21.9399C23.1968 22.126 21.7171 22.7357 21.0087 22.052L11.2723 8.74705C12.4157 8.01399 13.772 8.22472 13.7832 8.22472H13.7765ZM11.4135 18.1849L11.4875 18.1715C12.308 17.9966 13.1174 18.2948 13.1174 18.2948C13.5276 18.5817 14.0006 18.8037 14.4849 18.9292L14.7449 17.972C13.689 17.685 12.7923 16.8892 12.4067 15.9073L12.2565 15.5464L11.8709 15.6091C11.7588 15.6226 11.6355 15.6472 11.5234 15.6719C10.9136 15.7705 10.3419 15.8714 9.50795 15.6091C9.28377 15.5352 9.08424 15.4477 8.87351 15.3491C8.3646 15.1137 7.80414 14.8402 6.87152 14.8155C7.89157 12.4527 9.59539 10.5001 9.6066 10.4755L9.81733 10.2266L9.68058 9.92847C9.68058 9.92847 8.68519 7.82792 8.40047 7.24282C8.36236 7.18005 8.42513 6.96932 8.53723 6.73394L20.3631 22.8747C19.9393 23.0608 19.1188 23.3724 17.8006 23.6212C15.9107 23.9822 12.8147 23.6706 12.79 23.6706L12.4784 23.6324L12.317 23.9059C12.3036 23.9194 11.5212 25.2241 10.389 25.8339C9.19634 26.4795 8.62242 26.6297 7.34231 26.9525C7.25488 26.9772 7.16745 27.0018 7.06881 27.0153C7.11813 26.8404 7.15624 26.6925 7.19211 26.5804C8.0754 25.9841 8.59776 25.2869 8.74572 24.491C8.84436 23.9687 8.77038 23.4083 8.6964 22.8254C8.55965 21.718 8.40944 20.5747 9.30619 19.4067C10.0393 18.4741 10.5863 18.362 11.4068 18.1872L11.4135 18.1849ZM3.61634 23.1213C4.00194 22.673 4.5355 22.052 5.00853 20.0747C5.25738 19.0435 5.90304 17.8128 7.50821 17.8128C8.23009 17.8128 8.67623 18.0997 8.92507 18.3351C8.78832 18.4719 8.65156 18.6333 8.51481 18.8081C8.41617 18.9314 8.32874 19.057 8.25475 19.1803C7.23471 19.2677 6.12947 19.864 5.61832 21.904C5.23272 23.4464 4.57361 23.6818 3.87639 23.9306C3.71498 23.9934 3.54011 24.0539 3.3787 24.1301C3.26661 24.1794 3.15451 24.2534 3.05587 24.3296C3.09398 24.0808 3.15451 23.8454 3.28006 23.5719C3.3787 23.3971 3.47958 23.285 3.61634 23.1236V23.1213Z" fill="white"/>
<path d="M0 30.8244C0 34.8282 2.38758 37.2157 6.39155 37.2157H11.0927C13.1082 37.2157 15.0339 38.0743 16.3768 39.5898L16.749 40L17.1211 39.5898C18.464 38.0855 20.392 37.2157 22.4052 37.2157H27.1064C31.2224 37.2157 33.4979 34.9403 33.4979 30.8244V0H0V30.8244ZM0.995388 0.993107H32.5048V30.8244C32.5048 34.3552 30.6396 36.2204 27.1086 36.2204H22.4074C20.2934 36.2204 18.2533 37.0543 16.749 38.5339C15.2447 37.0543 13.2046 36.2204 11.0905 36.2204H6.38931C2.95702 36.2204 0.993146 34.2566 0.993146 30.8244V0.993107H0.995388Z" fill="white"/>
</svg>
