<svg width="106" height="52" viewBox="0 0 106 52" fill="none" xmlns="http://www.w3.org/2000/svg">
<path d="M53.7674 7.01147H57.9554V14.545H59.4593V5.6534H52.2664V14.545H53.7703V7.01147H53.7674Z" fill="#E72F39"/>
<path d="M72.3327 14.6931C74.8391 14.6931 76.5033 12.7842 76.5033 10.103C76.5033 7.42187 74.8391 5.513 72.3327 5.513C69.8263 5.513 68.1622 7.42187 68.1622 10.103C68.1622 12.7842 69.8263 14.6931 72.3327 14.6931ZM72.3327 6.88564C73.9823 6.88564 74.9674 8.22622 74.9674 10.103C74.9674 11.9799 73.9648 13.3204 72.3327 13.3204C70.7006 13.3204 69.7126 11.9799 69.7126 10.103C69.6952 8.22914 70.6832 6.88564 72.3327 6.88564Z" fill="#E72F39"/>
<path d="M56.9671 37.763L54.1226 30.8765H52.2632V39.7681H53.7029V33.3333L56.3551 39.736H57.5675L60.2021 33.3333V39.7681H61.6244V30.8765H59.797L56.9671 37.763Z" fill="#E72F39"/>
<path d="M86.3825 10.4532L89.9555 14.542H91.847L87.8863 9.90239L91.7654 5.65041H89.9381L86.3825 9.4973V5.65041H84.8786V14.542H86.3825V10.4532Z" fill="#E72F39"/>
<path d="M83.5491 13.1869H79.2649V10.6485H83.3072V9.34H79.2649V7.01147H83.5491V5.6534H77.761V14.545H83.5491V13.1869Z" fill="#E72F39"/>
<path d="M73.4015 24.0815H75.1648C77.0388 24.0815 78.187 22.773 78.187 21.1731C78.187 19.5731 77.0883 18.2646 75.1152 18.2646H71.8831V27.1561H73.387V24.0845H73.4045L73.4015 24.0815ZM73.4015 19.5877H74.987C76.0857 19.5877 76.6832 20.2346 76.6832 21.1731C76.6832 22.1115 76.0682 22.773 74.987 22.773H73.4015V19.5877Z" fill="#E72F39"/>
<path d="M99.1152 5.6534H92.0186V7.01147H94.8164V14.545H96.3203V7.01147H99.1182V5.6534H99.1152Z" fill="#E72F39"/>
<path d="M93.8178 35.1207C94.3832 34.8788 94.9806 34.2464 94.9806 33.1972C94.9806 31.9033 94.0422 30.8862 92.2323 30.8862H88.8049V39.7778H92.346C94.1733 39.7778 95.3216 38.7257 95.3216 37.2569C95.3216 35.9484 94.4648 35.3014 93.8178 35.1236V35.1207ZM90.3088 32.1627H92.0225C92.9289 32.1627 93.4622 32.6144 93.4622 33.375C93.4622 34.0541 93.025 34.5874 92.0895 34.5874H90.3117V32.1627H90.3088ZM92.1828 38.4663H90.3088V35.8143H92.2498C93.2028 35.8143 93.8032 36.3156 93.8032 37.1403C93.7857 37.9971 93.1416 38.4663 92.1857 38.4663H92.1828Z" fill="#E72F39"/>
<path d="M87.9362 30.8765H86.1089L82.5358 34.7234V30.8765H81.032V39.7681H82.5358V35.6793L86.1089 39.7681H88.0179L84.0397 35.1285L87.9362 30.8765Z" fill="#E72F39"/>
<path d="M105.169 30.8765H103.665V39.7681H105.169V30.8765Z" fill="#E72F39"/>
<path d="M56.9671 25.1511L54.1226 18.2646H52.2632V27.1561H53.7029V20.7213L56.3551 27.1241H57.5675L60.2021 20.7213V27.1561H61.6244V18.2646H59.797L56.9671 25.1511Z" fill="#E72F39"/>
<path d="M84.5595 27.1519H86.145L82.8313 18.2603H81.2633L77.9642 27.1519H79.5496L80.2928 25.0507H83.8018L84.5624 27.1519H84.5595ZM80.7445 23.7422L82.0385 20.0556L83.3326 23.7422H80.7475H80.7445Z" fill="#E72F39"/>
<path d="M99.7031 34.0298H97.9894V30.8765H96.4856V39.7681H99.7352C101.595 39.7681 102.757 38.4916 102.757 36.8916C102.757 35.2917 101.641 34.0298 99.7031 34.0298ZM99.5574 38.442H97.9894V35.3558H99.5574C100.624 35.3558 101.239 35.9532 101.239 36.8916C101.239 37.83 100.61 38.445 99.5574 38.445V38.442Z" fill="#E72F39"/>
<path d="M67.4245 8.56188C67.4245 6.94444 66.3257 5.6534 64.3527 5.6534H61.1205V14.545H62.6244V11.4733H64.3876C66.2791 11.4733 67.4274 10.1647 67.4274 8.56479L67.4245 8.56188ZM62.6244 10.1618V6.97649H64.2098C65.3086 6.97649 65.9061 7.62347 65.9061 8.56188C65.9061 9.50029 65.2911 10.1618 64.2098 10.1618H62.6244Z" fill="#E72F39"/>
<path d="M76.1114 38.5398C74.558 38.5398 73.5729 37.1992 73.5729 35.3224C73.5729 33.4456 74.5755 32.105 76.1114 32.105C77.4054 32.105 78.099 32.8802 78.3409 33.7866H79.8448C79.5854 32.1225 78.3263 30.7324 76.1114 30.7324C73.7011 30.7324 72.037 32.6237 72.037 35.3224C72.037 38.0211 73.7507 39.9124 76.1114 39.9124C78.4721 39.9124 79.7165 38.2163 79.8768 36.8408H78.3584C78.2302 37.6014 77.5015 38.5369 76.1114 38.5369V38.5398Z" fill="#E72F39"/>
<path d="M66.5846 25.9377C65.1769 25.9377 64.5153 25.0168 64.3201 24.3698H62.8162C63.0115 25.6142 64.1102 27.2958 66.5671 27.2958C68.8957 27.2958 70.6561 25.5822 70.6561 22.7057C70.6561 19.8293 68.9599 18.1157 66.5817 18.1157C64.3988 18.1157 63.1222 19.5233 62.8483 21.0417H64.3346C64.594 20.2344 65.2877 19.4738 66.5817 19.4738C67.8757 19.4738 68.8783 20.3626 69.0881 21.9801H65.5645V23.274H69.1056C68.9599 24.9381 67.9893 25.9406 66.5846 25.9406V25.9377Z" fill="#E72F39"/>
<path d="M67.038 30.7324C64.5316 30.7324 62.8675 32.6412 62.8675 35.3224C62.8675 38.0036 64.5316 39.9124 67.038 39.9124C69.5445 39.9124 71.2086 38.0036 71.2086 35.3224C71.2086 32.6412 69.5445 30.7324 67.038 30.7324ZM67.038 38.5398C65.3885 38.5398 64.418 37.1992 64.418 35.3224C64.418 33.4456 65.4031 32.105 67.038 32.105C68.673 32.105 69.6727 33.4456 69.6727 35.3224C69.6727 37.1992 68.6876 38.5398 67.038 38.5398Z" fill="#E72F39"/>
<path d="M3.31457 34.3233L4.44537 33.9502C4.21804 33.2887 4.54154 32.7204 4.97871 32.528C5.139 32.4464 5.31678 32.3823 5.51205 32.3182C6.52919 31.9452 7.9048 31.4439 8.58387 28.7948C8.93943 27.3726 9.50482 26.7082 10.1023 26.4196C9.76421 27.6641 9.90702 28.8444 10.0382 29.8469C10.1198 30.5084 10.1985 31.1408 10.1198 31.6246C9.99153 32.3678 9.44071 33.0147 8.4702 33.6122L8.26036 33.7404L8.19624 33.9823C8.19624 33.9823 7.24322 37.392 6.74194 39.1552L6.6924 39.333L6.74194 39.5107C6.79149 39.7206 6.8556 39.9158 6.90224 40.1082C7.16162 41.0466 7.37146 41.7897 7.37146 43.0662H8.66547C8.66547 41.6119 8.42357 40.7551 8.14961 39.7672C8.11755 39.639 8.06801 39.4932 8.03595 39.3621C8.26328 38.5869 8.55181 37.5348 8.81119 36.5993C9.19881 36.5032 9.55437 36.4041 9.87787 36.3254C11.5916 35.9057 12.4484 35.6784 14.1446 34.7575C15.4852 34.0143 16.4878 32.7379 16.9075 32.123C18.0237 32.2191 21.1917 32.429 23.4067 32.0093C25.4759 31.6217 26.7058 31.1204 27.2858 30.829L29.4512 33.787L29.2909 33.9007L28.5303 34.4835L28.9499 35.0023C28.9674 35.0198 29.9525 36.2321 30.4538 36.8937C30.55 37.0394 31.0367 37.768 30.3401 38.4936C29.7106 39.1552 28.3991 39.2863 27.6559 38.753C27.3645 38.5432 27.1867 38.2692 27.1371 37.9283C27.0876 37.6048 27.1692 37.2492 27.347 37.0073C28.0086 36.133 28.1543 35.1334 27.7521 34.3087C27.414 33.6297 26.7495 33.2246 25.9568 33.2246C25.4876 33.2246 24.9222 33.2246 24.2606 33.242C22.5965 33.2595 20.5097 33.2916 18.4259 33.2246L17.2631 33.1925L17.8459 34.195C17.8459 34.2125 18.251 34.8741 18.6387 35.6493C17.604 35.3899 16.1002 35.2442 14.2728 35.6988C12.2998 36.2001 10.248 37.8321 10.0702 40.3384C9.98862 41.3905 10.2976 42.3434 10.895 43.037C11.4284 43.652 12.157 43.99 12.9963 44.0541H13.1916C14.13 44.0541 14.9869 43.649 15.5202 42.938C16.039 42.2589 16.1818 41.4196 15.9253 40.6269C15.8291 40.353 15.7155 40.1256 15.5698 39.9158C16.4412 39.7876 16.9774 40.1256 17.1552 40.4666C17.5603 41.2273 16.7822 42.0025 16.7501 42.0345L16.3771 42.3901L18.0587 45.2024H23.0365V43.9084H21.3403C21.2121 43.7802 21.0168 43.5704 20.8711 43.2614C20.7575 43.0341 20.434 42.2764 20.9352 41.9034C21.2733 41.644 21.5968 41.644 22.3429 41.9354C22.8121 42.1132 23.2172 42.323 23.6515 42.5504C24.7502 43.1157 25.881 43.7132 27.9678 43.7627L28.5507 45.2024H33.7413V43.9084H31.5584L31.4126 43.343C32.4647 42.97 33.3857 42.3901 34.0648 41.6294C35.1635 40.3996 35.6648 38.753 35.5191 36.8762C35.6968 36.6809 36.0029 36.3749 36.2622 36.1156L36.9092 35.4861L35.3908 34.7254C34.0968 34.0959 33.4673 33.5131 32.9165 31.6042L32.5609 30.2636L31.331 30.7008C30.6024 30.9601 30.1011 31.6071 29.9904 32.3328L28.5681 30.3919C29.6669 30.3744 30.7511 29.9547 31.2523 29.6633C33.3711 28.4189 34.4699 27.7894 35.0178 27.4659C35.8746 28.5005 37.3464 30.4239 37.6379 31.3128C37.7661 31.7179 37.7982 33.2216 37.7661 34.1746L39.0601 34.2067C39.0776 33.787 39.1096 31.6858 38.8648 30.9077C38.381 29.4534 35.9387 26.542 35.6473 26.2186L35.3559 25.863L35.3238 25.7814C34.4028 26.2506 33.4148 26.3788 32.6891 26.3788C33.0622 25.8776 33.3682 25.2306 33.5285 24.4059L36.6644 22.7097C37.4076 23.5491 38.6521 25.0528 38.9435 25.831C39.1038 26.2681 39.2029 27.8681 39.235 28.8706L40.529 28.8385C40.5115 28.4014 40.4474 26.1865 40.1734 25.3967C39.6896 24.0707 37.5388 21.7276 37.2969 21.4537L36.9588 21.0806L33.613 22.8904C33.3857 21.2409 32.287 19.8828 31.4476 18.8337C31.2523 18.5918 31.0746 18.3645 30.9288 18.1721C30.6549 17.7845 30.3314 17.2337 30.0399 16.7179C30.4275 16.7674 30.8647 16.75 31.366 16.6217C31.6895 16.6858 32.6105 17.0093 33.3391 17.3153L33.7267 17.4756L34.4058 16.8286C35.2451 16.0214 35.2626 14.6633 34.4553 13.8211L31.9664 11.2827V10.3297L31.6108 10.152C31.4505 10.0704 30.0749 9.40881 29.2676 9.27767C28.1368 9.05035 26.1958 9.01829 24.6278 10.6678L23.0278 10.2161C23.124 9.6507 23.1735 9.35927 23.2056 9.02121L23.2376 8.74726C23.5116 6.88793 22.4129 5.59398 21.5881 4.96449C21.83 4.36705 21.9261 3.49276 21.2325 2.79916C20.6496 2.21629 19.9385 2.08806 18.8893 2.37949C18.2744 2.53978 17.741 2.96236 17.1756 3.38202C16.9483 3.55979 16.7064 3.73756 16.4645 3.89785C15.1705 4.78672 14.0892 3.94739 13.5559 3.38202L12.6174 4.28837C13.4247 5.16266 14.3807 5.61438 15.3162 5.61438C15.9632 5.61438 16.5927 5.40455 17.2077 4.99946C17.4816 4.8042 17.741 4.61186 17.9683 4.43408C18.4521 4.06105 18.8572 3.75505 19.2303 3.65888C20.0055 3.44905 20.2008 3.62682 20.329 3.75505C20.6846 4.1106 20.329 4.67597 20.2795 4.72551C19.5859 4.99946 17.7906 5.7601 17.5487 7.89337C17.4845 8.37715 17.4525 8.94544 17.4204 9.3651C16.5956 9.34761 15.1734 9.47876 13.8794 10.3356L9.04726 3.72299L7.99515 4.48363L10.2742 7.60486C10.0323 7.94291 9.33579 9.0591 9.75838 9.94796C10.0323 10.5308 10.8746 12.2765 11.2447 13.0517C10.5016 13.9581 8.44688 16.6246 7.36563 19.6788L7.02756 20.6318L8.03012 20.5357C9.53397 20.3899 10.2276 20.7309 10.9708 21.0865C11.2768 21.2322 11.5857 21.3779 11.9559 21.4915C13.314 21.9287 14.2845 21.7655 15.1239 21.6198C15.2375 21.8296 15.3658 22.0394 15.4969 22.2347C15.2229 22.2347 14.9315 22.2668 14.6401 22.3309L14.5439 22.3484C13.8969 22.4766 13.2674 22.6223 12.6204 22.9953C12.1366 22.4941 11.2127 21.8325 9.75838 21.8325C7.49387 21.8325 5.86178 23.2547 5.24684 25.761C4.69601 28.0254 4.14809 28.6695 3.69636 29.1882C3.48652 29.4301 3.25919 29.6895 3.0989 30.0625C2.41983 31.5343 2.59761 32.7146 3.1805 34.3466L3.32622 34.3291L3.31457 34.3233ZM30.1973 43.8764H29.4046L29.3405 43.7132C29.6144 43.6957 29.8738 43.6636 30.1332 43.617L30.1973 43.8764ZM30.9084 34.2912L30.9725 34.1134C31.0046 34.0318 31.2961 33.2741 31.2465 32.6417C31.229 32.3503 31.3922 32.0588 31.6516 31.9306C32.3307 34.2271 33.2196 35.0518 34.7059 35.795C34.5456 35.9728 34.3999 36.133 34.3183 36.2321L34.1726 36.442L34.2047 36.6838C34.3824 38.3159 33.9948 39.706 33.0884 40.7085C32.5551 41.2914 31.8585 41.7606 31.0367 42.0491L29.8884 42.3405C29.5503 42.3901 29.1947 42.4221 28.8363 42.4367V42.4192H28.2213C26.2803 42.4192 25.2952 41.9034 24.246 41.3526C23.8089 41.1253 23.3396 40.8834 22.8238 40.6735C22.2584 40.4462 21.2063 40.044 20.1891 40.8018C19.3148 41.4313 19.137 42.597 19.7374 43.7773C19.7549 43.7948 19.7549 43.8268 19.7695 43.8414H18.8164L18.0237 42.5008C18.5075 41.8538 18.898 40.8193 18.3297 39.7847C17.8284 38.8638 16.6802 38.3771 15.4211 38.5723C13.8211 38.8142 13.2062 39.6564 12.9788 40.3996C12.9468 40.4637 12.9293 40.5453 12.9147 40.6269V40.7231C12.9147 41.1427 13.2528 41.4983 13.69 41.4983C14.1271 41.4983 14.4652 41.1602 14.4652 40.7231C14.4652 40.6415 14.4477 40.5628 14.4331 40.4812C14.5468 40.5453 14.675 40.691 14.7712 40.965C14.8994 41.338 14.8208 41.7402 14.5614 42.0812C14.2379 42.5008 13.7045 42.7281 13.1391 42.6786C12.6553 42.6465 12.2327 42.4513 11.9267 42.0957C11.5537 41.6761 11.3759 41.0437 11.4254 40.3326C11.5712 38.1993 13.5267 37.1327 14.643 36.8558C17.6186 36.1126 19.5101 37.2113 19.5888 37.2434L21.1567 38.1964L20.5272 36.4682C20.2999 35.8387 19.8977 35.0606 19.5742 34.4311C21.3199 34.4631 23.0161 34.4311 24.3276 34.4136C24.9892 34.3961 25.5575 34.3961 26.0093 34.3961C26.3007 34.3961 26.5251 34.5243 26.6388 34.7691C26.7845 35.0606 26.7845 35.5618 26.3648 36.1097C25.9772 36.6285 25.814 37.3396 25.9131 38.0011C26.0093 38.6802 26.3823 39.263 26.9477 39.6652C28.2242 40.5861 30.2294 40.3938 31.3135 39.2455C32.3307 38.1614 32.1529 36.8383 31.5234 35.9815C31.2174 35.5764 30.7481 34.9965 30.4071 34.5739L30.9084 34.2825V34.2912ZM17.9101 10.6911L18.6387 10.8193L18.6707 10.0762C18.6707 10.0587 18.7203 8.91338 18.831 8.03909C18.9913 6.68102 20.1075 6.17976 20.705 5.93787C21.1567 6.27593 22.1593 7.16771 21.9669 8.57241L21.9349 8.84635C21.8708 9.26601 21.8212 9.62156 21.6609 10.56L21.5473 11.1428L23.8118 11.7898C22.6956 13.7628 22.713 16.2196 22.8267 17.9477C22.9404 19.6439 23.4562 21.1972 23.4883 21.2613L24.7182 20.8562C24.7182 20.8387 24.2344 19.3845 24.1207 17.8661C24.0071 16.1846 23.9925 13.7453 25.1728 12.0463C26.3211 10.4288 27.8891 10.3181 28.9878 10.5104C29.3929 10.5745 30.1361 10.8835 30.6199 11.1079V11.7694L33.4644 14.6954C33.6101 14.8557 33.7063 15.0684 33.6917 15.2782C33.6917 15.5055 33.5955 15.7154 33.4498 15.8611L33.3857 15.9252C32.7241 15.6658 31.7361 15.2957 31.2844 15.2782H31.1882L31.092 15.3103C29.8476 15.6484 29.186 15.0363 29.1685 15.0043L28.539 14.3427L28.1339 15.1675C27.9882 15.4589 27.9736 15.6046 28.6847 16.9773C28.88 17.3503 29.3784 18.2858 29.833 18.9182C29.9933 19.1455 30.1886 19.3874 30.3984 19.6293C31.3689 20.8242 32.5638 22.3134 32.2724 24.0095C32.0946 25.0761 31.6108 25.7056 30.9638 26.3206L30.2527 26.9821L31.1416 27.3872C31.3514 27.4834 31.707 27.565 32.1442 27.6145C31.707 27.8739 31.1911 28.1653 30.5937 28.5209C30.1565 28.7628 28.233 29.5554 27.312 28.6666L14.6546 11.3701C16.141 10.4172 17.9042 10.6911 17.9188 10.6911H17.9101ZM14.8382 23.6394L14.9344 23.6219C16.0011 23.3946 17.0532 23.7822 17.0532 23.7822C17.5866 24.1552 18.2015 24.4437 18.831 24.6069L19.1691 23.3625C17.7964 22.9895 16.6306 21.9549 16.1293 20.6785L15.9341 20.2092L15.4328 20.2908C15.2871 20.3083 15.1268 20.3404 14.981 20.3724C14.1883 20.5007 13.4451 20.6318 12.361 20.2908C12.0695 20.1947 11.8101 20.081 11.5362 19.9528C10.8746 19.6468 10.146 19.2912 8.9336 19.2592C10.2597 16.1875 12.4746 13.6491 12.4892 13.6171L12.7632 13.2936L12.5854 12.906C12.5854 12.906 11.2914 10.1753 10.9212 9.41464C10.8717 9.33304 10.9533 9.05909 11.099 8.75309L26.4727 29.7361C25.9218 29.978 24.8552 30.3831 23.1415 30.7066C20.6846 31.1758 16.6598 30.7707 16.6277 30.7707L16.2226 30.7212L16.0128 31.0767C15.9953 31.0942 14.9781 32.7903 13.5063 33.583C11.9559 34.4223 11.2098 34.6176 9.54563 35.0373C9.43196 35.0693 9.3183 35.1014 9.19007 35.1189C9.25419 34.8915 9.30373 34.6992 9.35036 34.5535C10.4986 33.7783 11.1777 32.8719 11.3701 31.8373C11.4983 31.1583 11.4021 30.4297 11.3059 29.672C11.1282 28.2323 10.9329 26.746 12.0987 25.2277C13.0517 24.0153 13.7628 23.8696 14.8295 23.6423L14.8382 23.6394ZM4.70184 30.0567C5.20312 29.4738 5.89675 28.6666 6.5117 26.0962C6.8352 24.7556 7.67456 23.1556 9.76129 23.1556C10.6997 23.1556 11.2797 23.5287 11.6032 23.8347C11.4254 24.0124 11.2477 24.2223 11.0699 24.4496C10.9416 24.6099 10.828 24.7731 10.7318 24.9333C9.40573 25.047 7.96892 25.8222 7.30443 28.4742C6.80314 30.4793 5.9463 30.7853 5.03991 31.1088C4.83007 31.1904 4.60275 31.2691 4.39291 31.3681C4.24719 31.4323 4.10146 31.5284 3.97323 31.6275C4.02277 31.304 4.10146 30.998 4.26467 30.6425C4.39291 30.4152 4.52406 30.2695 4.70184 30.0596V30.0567Z" fill="#E72F39"/>
<path d="M0 40.0718C0 45.2767 3.10387 48.3805 8.30905 48.3805H14.4206C17.0407 48.3805 19.5442 49.4966 21.2899 51.4667L21.7737 52L22.2575 51.4667C24.0033 49.5112 26.5097 48.3805 29.1269 48.3805H35.2384C40.5893 48.3805 43.5475 45.4224 43.5475 40.0718V0H0V40.0718ZM1.29401 1.29104H42.2564V40.0718C42.2564 44.6618 39.8316 47.0865 35.2413 47.0865H29.1298C26.3815 47.0865 23.7293 48.1706 21.7737 50.0941C19.8182 48.1706 17.166 47.0865 14.4177 47.0865H8.30614C3.84414 47.0865 1.29109 44.5336 1.29109 40.0718V1.29104H1.29401Z" fill="#E72F39"/>
</svg>
