<svg width="140" height="40" viewBox="0 0 140 40" fill="none" xmlns="http://www.w3.org/2000/svg">
<path d="M7.53482 15.8199V13.4319H10.5488V15.8199V15.9692V16.2677C10.5488 20.2975 8.74039 24.0289 5.72646 26.7154C4.0688 28.2079 2.10975 29.402 0 30.1482V27.1632C1.35627 26.5662 2.56184 25.8199 3.61671 24.7751C6.02786 22.6856 7.53482 19.5513 7.53482 16.2677V15.9692V15.8199ZM22.6045 15.8199V13.4319H25.6184V15.8199V15.9692V16.2677C25.6184 19.5513 27.1254 22.5363 29.5365 24.7751C30.5914 25.6706 31.7969 26.5662 33.1532 27.1632V30.1482C30.8928 29.402 28.9337 28.2079 27.4268 26.7154C24.4128 24.0289 22.6045 20.2975 22.6045 16.2677V15.9692V15.8199ZM0 35.2228C3.46602 34.3273 6.63064 32.5363 9.19248 30.2975C11.1515 28.5064 12.6585 26.5662 13.7134 24.1781C14.4669 26.1184 15.371 27.7602 16.5766 29.402C17.6315 27.9094 18.5357 26.1184 19.4398 24.1781C20.4947 26.4169 22.0017 28.5064 23.9607 30.2975C26.5226 32.5363 29.6872 34.3273 33.1532 35.2228V32.2378C30.4407 31.3423 28.0295 29.999 26.0705 28.2079C22.7552 25.2229 20.7961 21.0438 20.7961 16.5662V4.02893H17.7822V16.5662C17.7822 18.805 17.3301 21.3423 16.7273 23.4318C15.9738 21.4915 15.6724 18.805 15.6724 16.5662V4.02893H12.6585V16.5662C12.6585 21.0438 10.5488 25.2229 7.38413 28.2079C5.42507 29.999 3.01393 31.3423 0.301393 32.2378V35.2228H0ZM13.5627 28.5064C12.8092 29.5512 11.905 30.4467 10.8501 31.3423C7.83622 34.0288 4.2195 35.9691 0 36.8646V39.7004C4.97298 38.6557 9.49388 36.4169 13.1106 33.2826C13.8641 32.5363 14.6176 31.9393 15.2203 31.0438H15.0696C14.4669 30.2975 14.0148 29.402 13.5627 28.5064ZM18.0836 31.3423C18.6864 32.0885 19.4398 32.6855 20.0426 33.4318C23.5086 36.5661 28.0295 38.9542 33.1532 39.8497V37.0139C28.9337 36.1184 25.1663 34.1781 22.3031 31.4915C21.3989 30.596 20.4947 29.7005 19.7412 28.805C19.2891 29.7005 18.8371 30.4467 18.2343 31.193C18.2343 31.193 18.0836 31.193 18.0836 31.3423Z" fill="white"/>
<path d="M46.7164 15.0746C47.4699 11.4925 48.3741 7.61191 48.6754 4.02983H52.2922V20.5969H50.0317V14.0298L50.3331 8.05967C50.0317 9.99996 48.6754 17.0149 47.0178 20.4477H46.7164H46.415C44.7573 17.0149 43.4011 9.99996 43.0997 8.05967L43.4011 14.0298V20.5969H41.1406V4.02983H44.7573C45.2094 7.61191 46.1136 11.4925 46.7164 15.0746ZM100.666 6.86564V7.61191V8.95518C100.666 10.2985 100.063 11.194 99.1588 11.791C100.063 12.5373 100.666 13.7313 100.666 15.0746V20.4477C99.0081 20.4477 97.5011 20.4477 95.8434 20.4477H93.1309V3.88058H95.8434C97.5011 3.88058 99.0081 3.88058 100.666 3.88058V6.86564ZM95.6927 13.1343V18.2089H97.9532C97.9532 17.1641 97.9532 16.1193 97.9532 14.9253C97.9532 13.2835 96.7476 13.1343 95.6927 13.1343ZM95.6927 6.26863V10.7462C96.7476 10.7462 97.9532 10.7462 97.9532 9.10444V7.61191V6.41788H95.6927V6.26863ZM86.0482 20.5969H83.3356V3.88058H86.0482H88.61H91.3225V20.4477H88.61H86.0482V20.5969ZM88.4593 6.26863H86.0482V18.2089H88.4593V6.26863ZM56.9638 20.5969H54.2512V3.88058H56.9638H59.5256H62.2381V20.4477H59.5256H56.9638V20.5969ZM59.3749 6.26863H56.9638V18.2089H59.3749V6.26863ZM105.036 20.5969H102.323V3.88058H105.036H107.598H110.31V10.597H107.598V6.26863H105.036V18.2089H107.598V13.8805H110.31V20.5969H107.598H105.036ZM66.6083 20.5969H63.8958V3.88058H66.6083H69.1702H71.8827V10.597H69.1702V6.26863H66.6083V18.2089H69.1702V13.8805H71.8827V20.5969H69.1702H66.6083ZM114.831 20.5969H112.119V4.02983H114.831V10.597H115.283C116.79 10.597 117.242 9.10444 117.242 8.05967V4.17909H119.955V7.91041C119.955 9.70145 119.352 10.8955 117.996 11.791C119.352 12.6865 119.955 14.0298 119.955 15.6716V20.5969H117.242V15.5223C117.242 14.4775 116.64 13.1343 115.283 13.1343H114.831V20.5969ZM138.491 1.94029H132.613V0H138.491V1.94029ZM131.558 20.5969V4.02983H133.97V13.7313L136.682 4.02983H139.696V20.5969H137.134V9.10444L133.819 20.7462L131.558 20.5969ZM121.613 20.5969V4.02983H124.024V13.7313L126.736 4.02983H129.75V20.5969H127.339V9.10444L124.024 20.7462L121.613 20.5969ZM76.4036 20.5969H73.8418V4.02983H76.5543V10.597H77.0064C78.5133 10.597 78.9654 9.10444 78.9654 8.05967V4.17909H81.678V7.91041C81.678 9.70145 81.0752 10.8955 79.7189 11.791C81.0752 12.6865 81.678 14.0298 81.678 15.6716V20.5969H78.9654V15.5223C78.9654 14.4775 78.3626 13.1343 77.0064 13.1343H76.5543V20.5969H76.4036Z" fill="white"/>
<path d="M53.6484 39.8507H50.9359V23.2836H58.7721V39.8507H56.0596V25.6717H53.4977V39.8507H53.6484ZM43.8532 39.8507H41.1406V23.2836H43.8532H46.415H49.1275V30H46.415V25.6717H43.8532V37.6119H46.415V33.2836H49.1275V40H46.415H43.8532V39.8507ZM63.293 39.8507H60.5805V23.2836H63.293H65.8548H68.5674V39.8507H65.8548H63.293ZM65.8548 25.5224H63.4437V37.4627H65.8548V25.5224ZM78.664 23.2836H86.9523V25.6717H84.2398V39.8507H81.3766V25.6717H78.664V23.2836ZM77.9106 28.9552V29.7015V31.0448C77.9106 33.5821 76.5543 35.3731 73.9924 35.3731H73.0883V39.8507H70.3757V23.2836C72.9376 23.2836 75.3487 23.2836 77.9106 23.2836V28.9552ZM73.0883 25.5224V32.9851C74.1431 32.9851 75.3487 32.8358 75.3487 31.194V29.7015V25.6717H73.0883V25.5224Z" fill="white"/>
</svg>
