<svg width="168" height="48" viewBox="0 0 168 48" fill="none" xmlns="http://www.w3.org/2000/svg">
<path d="M9.04179 18.9847V16.119H12.6585V18.9847V19.1638V19.522C12.6585 24.3579 10.4885 28.8356 6.87176 32.0595C4.88257 33.8505 2.5317 35.2834 0 36.1789V32.5968C1.62752 31.8804 3.07421 30.9848 4.34006 29.7311C7.23344 27.2236 9.04179 23.4624 9.04179 19.522V19.1638V18.9847ZM27.1254 18.9847V16.119H30.7421V18.9847V19.1638V19.522C30.7421 23.4624 32.5505 27.0445 35.4438 29.7311C36.7097 30.8057 38.1564 31.8804 39.7839 32.5968V36.1789C37.0714 35.2834 34.7205 33.8505 32.9121 32.0595C29.2954 28.8356 27.1254 24.3579 27.1254 19.522V19.1638V18.9847ZM0 42.2685C4.15922 41.1939 7.95678 39.0446 11.031 36.358C13.3819 34.2087 15.1902 31.8804 16.4561 29.0147C17.3602 31.343 18.4453 33.3132 19.8919 35.2834C21.1578 33.4923 22.2428 31.343 23.3278 29.0147C24.5937 31.7013 26.402 34.2087 28.7529 36.358C31.8271 39.0446 35.6247 41.1939 39.7839 42.2685V38.6864C36.5288 37.6118 33.6355 35.9998 31.2846 33.8505C27.3062 30.2684 24.9554 25.2534 24.9554 19.8802V4.8353H21.3386V19.8802C21.3386 22.5668 20.7961 25.6116 20.0728 28.1191C19.1686 25.7907 18.8069 22.5668 18.8069 19.8802V4.8353H15.1902V19.8802C15.1902 25.2534 12.6585 30.2684 8.86096 33.8505C6.51009 35.9998 3.61672 37.6118 0.361672 38.6864V42.2685H0ZM16.2752 34.2087C15.371 35.4625 14.286 36.5371 13.0202 37.6118C9.40347 40.8357 5.0634 43.1641 0 44.2387V47.6417C5.96758 46.388 11.3927 43.7014 15.7327 39.9401C16.6369 39.0446 17.5411 38.3282 18.2644 37.2536H18.0836C17.3602 36.358 16.8177 35.2834 16.2752 34.2087ZM21.7003 37.6118C22.4236 38.5073 23.3278 39.2237 24.0512 40.1193C28.2104 43.8805 33.6355 46.7462 39.7839 47.8208V44.4178C34.7205 43.3432 30.1996 41.0148 26.7637 37.7909C25.6787 36.7162 24.5937 35.6416 23.6895 34.567C23.147 35.6416 22.6045 36.5371 21.8811 37.4327C21.8811 37.4327 21.7003 37.4327 21.7003 37.6118Z" fill="#E72F39"/>
<path d="M56.0594 18.0897C56.9636 13.7912 58.0486 9.13442 58.4103 4.83587H62.7503V24.7167H60.0378V16.836L60.3995 9.67174C60.0378 12.0001 58.4103 20.4181 56.4211 24.5376H56.0594H55.6977C53.7085 20.4181 52.081 12.0001 51.7193 9.67174L52.081 16.836V24.7167H49.3685V4.83587H53.7085C54.251 9.13442 55.3361 13.7912 56.0594 18.0897ZM120.799 8.23889V9.13442V10.7464C120.799 12.3583 120.075 13.433 118.99 14.1494C120.075 15.0449 120.799 16.4778 120.799 18.0897V24.5376C118.809 24.5376 117.001 24.5376 115.012 24.5376H111.757V4.65676H115.012C117.001 4.65676 118.809 4.65676 120.799 4.65676V8.23889ZM114.831 15.7614V21.851H117.544C117.544 20.5972 117.544 19.3435 117.544 17.9106C117.544 15.9405 116.097 15.7614 114.831 15.7614ZM114.831 7.52246V12.8956C116.097 12.8956 117.544 12.8957 117.544 10.9255V9.13442V7.70157H114.831V7.52246ZM103.258 24.7167H100.003V4.65676H103.258H106.332H109.587V24.5376H106.332H103.258V24.7167ZM106.151 7.52246H103.258V21.851H106.151V7.52246ZM68.3562 24.7167H65.1012V4.65676H68.3562H71.4304H74.6855V24.5376H71.4304H68.3562V24.7167ZM71.2496 7.52246H68.3562V21.851H71.2496V7.52246ZM126.043 24.7167H122.788V4.65676H126.043H129.117H132.372V12.7165H129.117V7.52246H126.043V21.851H129.117V16.6569H132.372V24.7167H129.117H126.043ZM79.9297 24.7167H76.6747V4.65676H79.9297H83.0039H86.259V12.7165H83.0039V7.52246H79.9297V21.851H83.0039V16.6569H86.259V24.7167H83.0039H79.9297ZM137.797 24.7167H134.542V4.83587H137.797V12.7165H138.34C140.148 12.7165 140.691 10.9255 140.691 9.67174V5.01497H143.946V9.49263C143.946 11.6419 143.222 13.0748 141.595 14.1494C143.222 15.224 143.946 16.836 143.946 18.8062V24.7167H140.691V18.6271C140.691 17.3733 139.967 15.7614 138.34 15.7614H137.797V24.7167ZM166.188 2.32838H159.136V0H166.188V2.32838ZM157.87 24.7167V4.83587H160.763V16.4778L164.018 4.83587H167.635V24.7167H164.561V10.9255L160.583 24.8958L157.87 24.7167ZM145.935 24.7167V4.83587H148.828V16.4778L152.083 4.83587H155.7V24.7167H152.807V10.9255L148.828 24.8958L145.935 24.7167ZM91.6841 24.7167H88.6099V4.83587H91.8649V12.7165H92.4074C94.2158 12.7165 94.7583 10.9255 94.7583 9.67174V5.01497H98.0133V9.49263C98.0133 11.6419 97.29 13.0748 95.6625 14.1494C97.29 15.224 98.0133 16.836 98.0133 18.8062V24.7167H94.7583V18.6271C94.7583 17.3733 94.0349 15.7614 92.4074 15.7614H91.8649V24.7167H91.6841Z" fill="#E72F39"/>
<path d="M64.3778 47.8209H61.1228V27.9401H70.5263V47.8209H67.2712V30.8058H64.197V47.8209H64.3778ZM52.6235 47.8209H49.3685V27.9401H52.6235H55.6977H58.9528V35.9999H55.6977V30.8058H52.6235V45.1343H55.6977V39.9402H58.9528V48H55.6977H52.6235V47.8209ZM75.9513 47.8209H72.6963V27.9401H75.9513H79.0256H82.2806V47.8209H79.0256H75.9513ZM79.0256 30.6267H76.1322V44.9552H79.0256V30.6267ZM94.3966 27.9401H104.343V30.8058H101.088V47.8209H97.6516V30.8058H94.3966V27.9401ZM93.4924 34.7462V35.6417V37.2537C93.4924 40.2985 91.8649 42.4477 88.7907 42.4477H87.7057V47.8209H84.4506V27.9401C87.5248 27.9401 90.4182 27.9401 93.4924 27.9401V34.7462ZM87.7057 30.6267V39.582C88.9715 39.582 90.4182 39.4029 90.4182 37.4328V35.6417V30.8058H87.7057V30.6267Z" fill="#E72F39"/>
</svg>
