<svg width="708" height="507" viewBox="0 0 708 507" fill="none" xmlns="http://www.w3.org/2000/svg">
<g opacity="0.9">
<path d="M237.001 315.287C237.002 379.953 291.885 435.774 358.782 435.776C424.008 435.776 477.518 379.954 477.519 315.287H586.218C586.219 379.953 641.102 435.775 708 435.776V507C629.658 506.999 560.268 457.783 531.177 387.934C502.812 457.782 435.165 507 358.782 507C278.039 506.999 206.793 454.725 179.388 381.458C151.981 454.724 80.7428 507 0 507V435.776C66.8985 435.776 121.781 379.954 121.782 315.287H237.001Z" fill="#FA9500"/>
<path d="M237.001 315.287C237.002 379.953 291.885 435.774 358.782 435.776C424.008 435.776 477.518 379.954 477.519 315.287H586.218C586.219 379.953 641.102 435.775 708 435.776V507C629.658 506.999 560.268 457.783 531.177 387.934C502.812 457.782 435.165 507 358.782 507C278.039 506.999 206.793 454.725 179.388 381.458C151.981 454.724 80.7428 507 0 507V435.776C66.8985 435.776 121.781 379.954 121.782 315.287H237.001Z" fill="url(#paint0_linear_204_6612)"/>
<path d="M237.001 123.574C237.001 188.241 291.884 244.061 358.782 244.063C424.009 244.063 477.519 188.242 477.519 123.574H586.218C586.218 188.241 641.102 244.062 708 244.063V315.287C629.657 315.286 560.267 266.071 531.177 196.221C502.812 266.069 435.165 315.287 358.782 315.287C278.039 315.286 206.793 263.013 179.388 189.745C151.981 263.012 80.7434 315.287 0 315.287V244.063C66.8991 244.063 121.782 188.242 121.782 123.574H237.001Z" fill="#FA9500"/>
<path d="M237.001 123.574C237.001 188.241 291.884 244.061 358.782 244.063C424.009 244.063 477.519 188.242 477.519 123.574H586.218C586.218 188.241 641.102 244.062 708 244.063V315.287C629.657 315.286 560.267 266.071 531.177 196.221C502.812 266.069 435.165 315.287 358.782 315.287C278.039 315.286 206.793 263.013 179.388 189.745C151.981 263.012 80.7434 315.287 0 315.287V244.063C66.8991 244.063 121.782 188.242 121.782 123.574H237.001Z" fill="url(#paint1_linear_204_6612)"/>
<path d="M429.88 74.9187L355.102 149.837L280.324 74.9187L355.102 0L429.88 74.9187Z" fill="#FA9500"/>
<path d="M429.88 74.9187L355.102 149.837L280.324 74.9187L355.102 0L429.88 74.9187Z" fill="url(#paint2_linear_204_6612)"/>
</g>
<defs>
<linearGradient id="paint0_linear_204_6612" x1="-9.31369e-06" y1="507" x2="479.989" y2="-163.28" gradientUnits="userSpaceOnUse">
<stop stop-color="#FF1420"/>
<stop offset="1" stop-color="#F8C768"/>
</linearGradient>
<linearGradient id="paint1_linear_204_6612" x1="-9.31369e-06" y1="507" x2="479.989" y2="-163.28" gradientUnits="userSpaceOnUse">
<stop stop-color="#FF1420"/>
<stop offset="1" stop-color="#F8C768"/>
</linearGradient>
<linearGradient id="paint2_linear_204_6612" x1="-9.31369e-06" y1="507" x2="479.989" y2="-163.28" gradientUnits="userSpaceOnUse">
<stop stop-color="#FF1420"/>
<stop offset="1" stop-color="#F8C768"/>
</linearGradient>
</defs>
</svg>
