<svg width="38" height="38" viewBox="0 0 38 38" fill="none" xmlns="http://www.w3.org/2000/svg">
<path d="M36.0052 9.08751C36.0051 5.17038 32.8299 1.99496 28.9135 1.99477H9.08751C5.1709 1.99477 1.99488 5.17026 1.99477 9.08751V28.9125C1.99477 32.8299 5.17083 36.0052 9.08751 36.0052H28.9135C32.83 36.005 36.0052 32.8298 36.0052 28.9125V9.08751ZM38 28.9125C38 33.9314 33.9317 37.9998 28.9135 38H9.08751C4.0691 38 0 33.9315 0 28.9125V9.08751C0.000112585 4.06862 4.06918 0 9.08751 0H28.9135C33.9316 0.000190221 37.9999 4.06874 38 9.08751V28.9125Z" fill="#FFF9F2"/>
<path d="M23.9248 18.085H12.728V13.6541H23.9248C24.5795 13.6541 25.0343 13.7681 25.2627 13.9672C25.4901 14.1663 25.6322 14.5356 25.6322 15.0749V16.6659C25.6322 17.2342 25.4901 17.6035 25.2627 17.8025C25.0343 18.0016 24.5795 18.0867 23.9248 18.0867V18.085ZM24.6932 9.4768H20.5147H16.3361H7.979V28.4254H12.728V22.2607H21.4792L25.6322 28.4254H30.9497L26.3713 22.2317C28.0588 21.9816 28.8168 21.4643 29.4422 20.6118C30.0675 19.7593 30.3802 18.3964 30.3802 16.5774V15.1566C30.3802 14.0778 30.2665 13.2254 30.0675 12.572C29.8676 11.9186 29.5274 11.3502 29.0432 10.8397C28.5325 10.3565 27.964 10.0162 27.2809 9.78816C26.5977 9.58908 25.744 9.4751 24.6932 9.4751V9.4768Z" fill="#FFF9F2"/>
<path d="M26.9028 0.997559C32.4255 0.99759 36.9027 5.47488 36.9028 10.9976V18.8901C35.3166 18.7649 33.7848 18.4456 32.3315 17.9536C32.3723 17.5033 32.3911 17.0423 32.3911 16.5776V15.1567C32.3911 13.9505 32.2655 12.8869 31.9907 11.9858C31.6932 11.0141 31.1846 10.1776 30.5024 9.45752L30.4644 9.41748L30.4253 9.38037C29.6976 8.69274 28.8735 8.20158 27.9165 7.88232L27.8804 7.86963L27.8433 7.85889C26.9337 7.59358 25.8819 7.46536 24.6938 7.46533H22.6841V7.46729H20.9927C20.1332 5.46502 19.6094 3.28497 19.4907 0.997559H26.9028Z" fill="#FFF9F2"/>
</svg>
