<svg width="486" height="173" viewBox="0 0 486 173" fill="none" xmlns="http://www.w3.org/2000/svg">
<g opacity="0.2">
<path d="M486 119.989L453.103 159.944L394.035 113.07L318.519 173L243.003 113.07L167.481 173L91.965 113.07L32.9028 159.944L0 119.989L91.9703 47.0031L167.481 106.933L243.003 47.0031L318.514 106.933L394.035 47.0031L486 119.989Z" fill="#FE131F"/>
<path d="M486 119.989L453.103 159.944L394.035 113.07L318.519 173L243.003 113.07L167.481 173L91.965 113.07L32.9028 159.944L0 119.989L91.9703 47.0031L167.481 106.933L243.003 47.0031L318.514 106.933L394.035 47.0031L486 119.989Z" fill="url(#paint0_linear_187_11179)"/>
<path d="M486 119.989L453.103 159.944L394.035 113.07L318.519 173L243.003 113.07L167.481 173L91.965 113.07L32.9028 159.944L0 119.989L91.9703 47.0031L167.481 106.933L243.003 47.0031L318.514 106.933L394.035 47.0031L486 119.989Z" fill="url(#paint1_linear_187_11179)" fill-opacity="0.3"/>
<path fill-rule="evenodd" clip-rule="evenodd" d="M240.947 -344.528C283.489 -344.751 325.037 -331.644 359.747 -307.045C394.457 -282.446 420.589 -247.59 434.475 -207.377C448.361 -167.164 449.301 -123.61 437.165 -82.8345C433.023 -68.9196 427.422 -55.5708 420.514 -42.9804L486 10.4728L453.103 51.5733L394.035 3.35632L318.519 65.0019L243.003 3.35632L167.481 65.0019L91.965 3.35632L32.9028 51.5733L0 10.4728L64.1278 -41.8724C57.2813 -54.1685 51.6828 -67.2027 47.4819 -80.7944C34.9199 -121.439 35.4043 -164.998 48.8669 -205.353C62.3305 -245.71 88.1002 -280.837 122.551 -305.798C157.001 -330.759 198.404 -344.305 240.947 -344.528ZM375.786 -222.196C258.526 -221.022 160.646 -126.748 155.587 -12.6663L167.481 -2.95578L243.003 -64.596L318.514 -2.95578L355.63 -33.2539C372.471 -51.0262 384.995 -72.5837 392.043 -96.263C396.118 -109.954 398.272 -124.054 398.52 -138.168C355.075 -147.484 308.811 -126.597 289.542 -86.4939L247.104 -106.884C273.744 -162.327 333.059 -192.333 391.675 -186.763C391.138 -188.519 390.572 -190.27 389.971 -192.01C386.311 -202.607 381.544 -212.719 375.786 -222.196ZM93.1475 -189.283C83.1752 -158.588 82.9294 -125.551 92.4657 -94.697C97.1146 -79.6559 103.978 -65.4998 112.75 -52.6536C118.226 -80.7711 128.29 -107.38 142.1 -131.707C138.262 -157.86 118.905 -180.299 93.1475 -189.283ZM139.378 -259.099C130.086 -251.029 121.809 -241.916 114.694 -231.965C140.609 -221.479 162.336 -202.524 175.855 -178.635C184.103 -187.854 192.966 -196.526 202.392 -204.565C195.927 -232.492 170.618 -255.132 139.378 -259.099ZM241.197 -297.446C224.415 -297.358 207.861 -294.574 192.144 -289.291C214.846 -276.399 232.978 -256.769 243.109 -233.345C271.256 -249.649 302.503 -261.079 335.575 -266.402C334.566 -267.154 333.551 -267.9 332.523 -268.629C305.839 -287.539 273.902 -297.617 241.197 -297.446Z" fill="#FE131F"/>
<path fill-rule="evenodd" clip-rule="evenodd" d="M240.947 -344.528C283.489 -344.751 325.037 -331.644 359.747 -307.045C394.457 -282.446 420.589 -247.59 434.475 -207.377C448.361 -167.164 449.301 -123.61 437.165 -82.8345C433.023 -68.9196 427.422 -55.5708 420.514 -42.9804L486 10.4728L453.103 51.5733L394.035 3.35632L318.519 65.0019L243.003 3.35632L167.481 65.0019L91.965 3.35632L32.9028 51.5733L0 10.4728L64.1278 -41.8724C57.2813 -54.1685 51.6828 -67.2027 47.4819 -80.7944C34.9199 -121.439 35.4043 -164.998 48.8669 -205.353C62.3305 -245.71 88.1002 -280.837 122.551 -305.798C157.001 -330.759 198.404 -344.305 240.947 -344.528ZM375.786 -222.196C258.526 -221.022 160.646 -126.748 155.587 -12.6663L167.481 -2.95578L243.003 -64.596L318.514 -2.95578L355.63 -33.2539C372.471 -51.0262 384.995 -72.5837 392.043 -96.263C396.118 -109.954 398.272 -124.054 398.52 -138.168C355.075 -147.484 308.811 -126.597 289.542 -86.4939L247.104 -106.884C273.744 -162.327 333.059 -192.333 391.675 -186.763C391.138 -188.519 390.572 -190.27 389.971 -192.01C386.311 -202.607 381.544 -212.719 375.786 -222.196ZM93.1475 -189.283C83.1752 -158.588 82.9294 -125.551 92.4657 -94.697C97.1146 -79.6559 103.978 -65.4998 112.75 -52.6536C118.226 -80.7711 128.29 -107.38 142.1 -131.707C138.262 -157.86 118.905 -180.299 93.1475 -189.283ZM139.378 -259.099C130.086 -251.029 121.809 -241.916 114.694 -231.965C140.609 -221.479 162.336 -202.524 175.855 -178.635C184.103 -187.854 192.966 -196.526 202.392 -204.565C195.927 -232.492 170.618 -255.132 139.378 -259.099ZM241.197 -297.446C224.415 -297.358 207.861 -294.574 192.144 -289.291C214.846 -276.399 232.978 -256.769 243.109 -233.345C271.256 -249.649 302.503 -261.079 335.575 -266.402C334.566 -267.154 333.551 -267.9 332.523 -268.629C305.839 -287.539 273.902 -297.617 241.197 -297.446Z" fill="url(#paint2_linear_187_11179)"/>
<path fill-rule="evenodd" clip-rule="evenodd" d="M240.947 -344.528C283.489 -344.751 325.037 -331.644 359.747 -307.045C394.457 -282.446 420.589 -247.59 434.475 -207.377C448.361 -167.164 449.301 -123.61 437.165 -82.8345C433.023 -68.9196 427.422 -55.5708 420.514 -42.9804L486 10.4728L453.103 51.5733L394.035 3.35632L318.519 65.0019L243.003 3.35632L167.481 65.0019L91.965 3.35632L32.9028 51.5733L0 10.4728L64.1278 -41.8724C57.2813 -54.1685 51.6828 -67.2027 47.4819 -80.7944C34.9199 -121.439 35.4043 -164.998 48.8669 -205.353C62.3305 -245.71 88.1002 -280.837 122.551 -305.798C157.001 -330.759 198.404 -344.305 240.947 -344.528ZM375.786 -222.196C258.526 -221.022 160.646 -126.748 155.587 -12.6663L167.481 -2.95578L243.003 -64.596L318.514 -2.95578L355.63 -33.2539C372.471 -51.0262 384.995 -72.5837 392.043 -96.263C396.118 -109.954 398.272 -124.054 398.52 -138.168C355.075 -147.484 308.811 -126.597 289.542 -86.4939L247.104 -106.884C273.744 -162.327 333.059 -192.333 391.675 -186.763C391.138 -188.519 390.572 -190.27 389.971 -192.01C386.311 -202.607 381.544 -212.719 375.786 -222.196ZM93.1475 -189.283C83.1752 -158.588 82.9294 -125.551 92.4657 -94.697C97.1146 -79.6559 103.978 -65.4998 112.75 -52.6536C118.226 -80.7711 128.29 -107.38 142.1 -131.707C138.262 -157.86 118.905 -180.299 93.1475 -189.283ZM139.378 -259.099C130.086 -251.029 121.809 -241.916 114.694 -231.965C140.609 -221.479 162.336 -202.524 175.855 -178.635C184.103 -187.854 192.966 -196.526 202.392 -204.565C195.927 -232.492 170.618 -255.132 139.378 -259.099ZM241.197 -297.446C224.415 -297.358 207.861 -294.574 192.144 -289.291C214.846 -276.399 232.978 -256.769 243.109 -233.345C271.256 -249.649 302.503 -261.079 335.575 -266.402C334.566 -267.154 333.551 -267.9 332.523 -268.629C305.839 -287.539 273.902 -297.617 241.197 -297.446Z" fill="url(#paint3_linear_187_11179)" fill-opacity="0.3"/>
</g>
<defs>
<linearGradient id="paint0_linear_187_11179" x1="-341.855" y1="477.988" x2="1081.39" y2="-754.264" gradientUnits="userSpaceOnUse">
<stop stop-color="#FF1420"/>
<stop offset="1" stop-color="#F8C768"/>
</linearGradient>
<linearGradient id="paint1_linear_187_11179" x1="-182.256" y1="214.65" x2="820.38" y2="-373.918" gradientUnits="userSpaceOnUse">
<stop stop-color="#FF1420"/>
<stop offset="1" stop-color="#FA9500"/>
</linearGradient>
<linearGradient id="paint2_linear_187_11179" x1="-341.855" y1="477.988" x2="1081.39" y2="-754.264" gradientUnits="userSpaceOnUse">
<stop stop-color="#FF1420"/>
<stop offset="1" stop-color="#F8C768"/>
</linearGradient>
<linearGradient id="paint3_linear_187_11179" x1="-182.256" y1="214.65" x2="820.38" y2="-373.918" gradientUnits="userSpaceOnUse">
<stop stop-color="#FF1420"/>
<stop offset="1" stop-color="#FA9500"/>
</linearGradient>
</defs>
</svg>
